<svg xmlns="http://www.w3.org/2000/svg" xmlns:xlink="http://www.w3.org/1999/xlink" viewBox="0 0 375 710"><defs><style>.cls-1,.cls-5{fill:none;}.cls-2{fill:#e6321e;}.cls-3{clip-path:url(#clip-path);}.cls-4{fill:#f0e6d2;}.cls-5{stroke:#f0e6d2;stroke-width:2.96px;}</style><clipPath id="clip-path"><rect class="cls-1" width="375" height="710"/></clipPath></defs><g id="레이어_2" data-name="레이어 2"><g id="레이어_1-2" data-name="레이어 1"><rect class="cls-2" width="375" height="710"/><g class="cls-3"><path class="cls-4" d="M165.35,329.78c3.21-1.75,4.79-4.61,4.51-7.52l2.17,3.21,2.78-1.51-6.43-11.86L159,317.18l1.67,3.07,5.81-3.16.22.41c1.1,2,2,6.29-2.4,8.65-4.14,2.26-8.09-.1-10.72-4.95-2.73-5-2.31-9.59,1.63-11.73a5.36,5.36,0,0,1,7.22,1.54l3.51-2.79c-2.15-2.73-6.58-5.11-12.39-2-6.45,3.5-7.66,10.31-3.95,17.14s9.8,9.59,15.73,6.37m20.33-11.24c4.36-2.37,5.81-7,3-12.19s-7.46-6.44-11.82-4.08-5.83,7-3,12.13,7.5,6.51,11.86,4.14m-1.54-2.82c-2.33,1.26-4.7.22-6.62-3.32s-1.47-6,.86-7.3,4.64-.27,6.56,3.27,1.53,6.08-.8,7.35m18.77-6.53c4.36-2.37,5.81-7,3-12.2s-7.46-6.44-11.82-4.07-5.83,6.94-3,12.13,7.5,6.5,11.86,4.14m-1.54-2.83c-2.33,1.27-4.7.22-6.62-3.32s-1.47-6,.86-7.3,4.63-.26,6.56,3.27,1.53,6.08-.8,7.35m17.49-5.84a5.73,5.73,0,0,0,3.13-5.8l1.52,2.8,3.42-1.86-12.22-22.51-3.64,2,5,9.18a5.14,5.14,0,0,0-5.76-.2c-3.78,2.05-4.58,6.79-2,11.63s6.85,6.77,10.51,4.78m-.31-3.53c-2.21,1.2-4.65-.05-6.45-3.37s-1.52-6,.69-7.17,4.48-.14,6.13,2.91l.54,1c1.58,2.92,1.21,5.49-.91,6.64m21.31-8.35,3.42-1.86-8.73-16.08a22.58,22.58,0,0,0-1.44-2.36l.12-.06a15.48,15.48,0,0,0,1.81,2L249,283.69l3.49-1.89-3.7-18.94a17.59,17.59,0,0,0-.72-2.62l.09-.05a22.46,22.46,0,0,0,1.2,2.49l8.73,16.08,3.57-1.94-12-22-5.48,3,3.5,17.92a12.51,12.51,0,0,0,.75,2.69l-.06,0a12.2,12.2,0,0,0-1.83-2.06l-13.2-12.69-5.45,3Zm16.85-32.58,3.93-2.14-2.1-3.88-3.94,2.13Zm10,18,3.63-2-8.43-15.52-3.63,2Zm8.45-4.59,3.63-2-4.47-8.23c-1.6-2.95-1.27-5.38.85-6.53,1.91-1,3.47-.32,4.8,2.13l5,9.26,3.66-2-5.22-9.63c-2.26-4.16-5.15-5.36-8.45-3.57a5.9,5.9,0,0,0-3.18,6.14l-1.63-3L266.74,254Zm23-12a5.75,5.75,0,0,0,3.13-5.8l1.51,2.79,3.42-1.86L294,230.08l-3.63,2,5,9.19a5.14,5.14,0,0,0-5.76-.21c-3.79,2.05-4.59,6.79-2,11.63s6.86,6.77,10.52,4.79m-.31-3.54c-2.21,1.2-4.65,0-6.46-3.36s-1.51-6,.7-7.17,4.47-.14,6.12,2.9l.54,1c1.59,2.92,1.22,5.49-.9,6.64m14-12.61,2.76-1.49-8-16.57-4.33,2.35Zm4.75.52-4.14,2.25,2.15,4,4.15-2.26Z"/><path class="cls-4" d="M143.77,300.43l4.54-2.46-5.16-18.1a10.61,10.61,0,0,0-.52-1.4l.12-.07a10.15,10.15,0,0,0,.89,1.21L156,293.79l4.54-2.46L153.7,266.5l-4,2.16,5.5,17.92a15.28,15.28,0,0,0,.62,1.59l-.09.05a9.15,9.15,0,0,0-1-1.36l-12.55-14.09-3.94,2.14,5,18.19a11.37,11.37,0,0,0,.57,1.63l-.09,0a14.87,14.87,0,0,0-1-1.4l-12-14.36-4,2.15Zm32-28.41c-2.58-4.75-6.51-6-10.9-3.61s-5.52,7.1-2.74,12.22,7.12,6.46,11.75,3.95a7.68,7.68,0,0,0,4.33-7.78l-3.5.21a4.31,4.31,0,0,1-2.29,4.58c-2.39,1.3-4.91.5-6.35-2.09l10.62-5.77Zm-4,1.19L164.71,277c-1.33-2.61-.88-4.86,1.43-6.11,2.15-1.17,4.11-.51,5.49,2Zm27.37-2.16c5.48-3,6.65-7.46,4.59-11.25s-5.39-4.31-9.36-3.16l-3.49,1c-2.65.75-4.12.35-5.1-1.45s0-3.84,2.29-5.1a5.76,5.76,0,0,1,7.5,1.11l2.21-3.37c-2.92-3.15-7.09-3.1-11.18-.88-4.85,2.63-6.51,6.79-4.44,10.6s5.3,4.41,9.08,3.28l3.35-1c2.63-.78,4.31-.73,5.47,1.41,1.25,2.3-.32,4.32-2.53,5.52a6.49,6.49,0,0,1-8.25-1.31l-2.52,3.3c2.84,3.12,7.29,4,12.38,1.27m2.26-18.51,2.73-1.48,4.35,8c1.7,3.14,4,4.44,7.61,2.46a12.9,12.9,0,0,0,2.33-1.62l-1.71-3.14a5.83,5.83,0,0,1-1.38,1c-1.51.82-2.63.43-3.54-1.25l-4-7.42,3.69-2-1.46-2.7-3.7,2-2.93-5.4-2.82,3.46,2.12,3.91-2.73,1.48Zm24.24,3.92c2.46-1.33,3.74-3.51,3.44-5.8a24.86,24.86,0,0,0,1.69,2.54l3.63-2a21.64,21.64,0,0,1-3.06-4.56L228.83,242c-2.45-4.5-5.51-5.37-10-2.94-3.91,2.13-5.34,5.56-3.78,9l3.73-2a3.07,3.07,0,0,1,1.48-4.35c1.94-1,3.36-.53,4.62,1.8l.22.4-3,2.15a15.05,15.05,0,0,0-4.18,4.07,4.54,4.54,0,0,0,.06,4.51c1.5,2.77,4.55,3.48,7.64,1.8m-.25-3.28c-1.6.87-3,.56-3.74-.74s-.22-2.57,1.6-4l3.13-2.39.54,1c1.35,2.48.71,4.92-1.53,6.13m19.27-7c3.6-2,5-5.45,3.68-9.19l-3.81,1.14c.84,2.36.35,4.11-1.47,5.1-2.33,1.27-4.74.08-6.56-3.27-1.74-3.2-1.39-5.88.85-7.1,1.79-1,3.59-.46,5,1.52l3.22-2.51c-2.37-3.3-5.94-4-9.69-2-4.61,2.5-5.78,7.12-3,12.18s7.33,6.56,11.84,4.11m20.15-11.42,4.21-2.29-10.91-6.3,2.24-9.09-4.43,2.4-2.16,10.1-7.53-13.88-3.64,2,12.22,22.5,3.64-2-2.51-4.62.94-3.61Zm19.64-10.18a5.71,5.71,0,0,0,2.95-5.83L289,221.6l3.45-1.88L284,204.2l-3.67,2,4.67,8.6c1.42,2.61,1,5-1,6.12-1.75,1-3.34.21-4.57-2.06l-5.1-9.4-3.64,2,5.41,10c2,3.64,4.64,5.16,8.34,3.16m16.07-1.38,3.64-2-4.5-8.29a5.56,5.56,0,0,0,5.9.18c3.72-2,4.54-6.58,1.83-11.57s-6.85-6.77-10.49-4.8a5.8,5.8,0,0,0-3.17,5.7l-1.47-2.7-3.45,1.88Zm2.42-12.37c-2.15,1.17-4.54,0-6.15-3l-.43-.78c-1.7-3.13-1.3-5.64.88-6.83s4.56,0,6.37,3.34,1.52,6.05-.67,7.23"/></g><rect class="cls-5" x="111.52" y="211.92" width="232.2" height="97.82" transform="translate(-96.87 140.22) rotate(-28.5)"/><g class="cls-3"><path class="cls-4" d="M78.53,434.37l1.47-3.3-14.52-6.46-10.2,22.92,4.06,1.8,4.44-10,9.92,4.42,1.47-3.3-9.92-4.41,2.83-6.36Zm3.82,10.55,1.74-3.9-3.52-1.57-7.19,16.13,3.78,1.69,3-6.75c.81-1.81,1.78-3.57,3.6-4.27a4.86,4.86,0,0,1,3.78.32l.5.23,1.66-3.71a2.55,2.55,0,0,0-.43-.23c-2.55-1.14-5-.14-6.92,2.06m20.07,13c2.2-4.94.79-8.81-3.77-10.84s-9-.06-11.36,5.26-.8,9.59,4,11.73a7.66,7.66,0,0,0,8.8-1.3l-2.29-2.65a4.33,4.33,0,0,1-5,1c-2.49-1.1-3.38-3.59-2.21-6.31l11,4.91Zm-3.37-2.43-7.33-3.26c1.25-2.65,3.33-3.67,5.72-2.6,2.23,1,2.9,3,1.73,5.6Zm8.69,15.9c4.09,1.82,7.35.95,8.76-2.22,1.19-2.67.65-4.93-2.41-6.79l-2.47-1.56c-1.58-.94-2-1.91-1.53-3s1.85-1.45,3.65-.65a4.86,4.86,0,0,1,3,4.62l3.26-.29c.34-2.87-1.51-5.58-4.91-7.1-4-1.78-7.24-.94-8.57,2.06-1.17,2.62-.45,5.06,2.64,6.94l2.25,1.39c1.63,1,2,1.84,1.47,3.13s-1.88,1.52-3.77.68a4.93,4.93,0,0,1-3.17-5.16l-3.38,0c-.34,3.48,1.57,6.31,5.19,7.92m10.44,4.18,3.77,1.68,3.81-8.55c1.39-3.13,3.48-4.33,5.74-3.32,1.92.85,2.32,2.58,1.23,5l-4.32,9.71,3.8,1.7,4.47-10c1.91-4.29,1.13-7.35-2.27-8.86a5.62,5.62,0,0,0-6.59,1.16l4.55-10.23-3.78-1.68Zm52.22-4.21-17.6-7.83-1.5,3.39,6.76,3-8.69,19.53,4.06,1.8,8.69-19.52,6.77,3Zm.79,5.27,4.09,1.82,1.8-4-4.1-1.82ZM163,495.49l3.78,1.68L174,481l-3.78-1.68Zm16-12.23-7.19,16.14,3.78,1.68,4.15-9.33c1.15-2.58,2.93-3.61,4.82-2.77,1.67.75,2,2.3,1,4.53l-4.47,10,3.78,1.69,4.19-9.43c1.15-2.58,2.85-3.52,4.78-2.67,1.73.77,2.07,2.28,1,4.64l-4.42,9.94,3.78,1.68,4.69-10.56c1.7-3.8.88-6.8-2.14-8.14a5.65,5.65,0,0,0-6.38,1.1,4.81,4.81,0,0,0-3-5.28c-2.2-1-4.19-.59-6.12,1.22l1.28-2.87Zm37.21,25.27c2.2-4.94.79-8.81-3.77-10.84s-9-.06-11.36,5.26-.8,9.59,4,11.73a7.66,7.66,0,0,0,8.8-1.3l-2.29-2.65a4.33,4.33,0,0,1-5,1c-2.49-1.1-3.38-3.59-2.21-6.32l11,4.92Zm-3.37-2.43-7.33-3.27c1.25-2.65,3.33-3.66,5.72-2.59,2.23,1,2.91,3,1.73,5.6Zm9.2,7.73,2.86,1.27,8.29-16.41-4.5-2Zm2.48,4.08L220.18,516l-1.84,4.13,4.31,1.92Z"/><path class="cls-4" d="M71.28,415.81l4.72,2.1L87.21,402.8a12.36,12.36,0,0,0,.8-1.28l.12.06a11.35,11.35,0,0,0-.41,1.44L84,421.47l4.72,2.1L104.24,403l-4.13-1.84L89.24,416.46a14.8,14.8,0,0,0-.88,1.46l-.09,0a10.67,10.67,0,0,0,.44-1.66l3.53-18.53-4.09-1.83-11.41,15a10.67,10.67,0,0,0-.94,1.44l-.09,0a14,14,0,0,0,.5-1.64l4.07-18.29-4.12-1.83Zm42,8.07c2.2-4.94.8-8.82-3.77-10.85s-9-.06-11.36,5.27-.79,9.58,4,11.73a7.66,7.66,0,0,0,8.8-1.31l-2.29-2.64a4.33,4.33,0,0,1-5,1c-2.49-1.11-3.38-3.59-2.21-6.32l11,4.92Zm-3.37-2.43-7.33-3.27c1.26-2.65,3.33-3.66,5.72-2.59,2.23,1,2.91,3,1.73,5.6Zm11.54,16.7,3.56,1.58L132.45,423a21.36,21.36,0,0,0,1-2.57l.12.05a14.85,14.85,0,0,0-.51,2.68l-2.13,19.19,3.62,1.62,12.77-14.46a17.68,17.68,0,0,0,1.64-2.17l.1,0a23.5,23.5,0,0,0-1.25,2.46l-7.44,16.72,3.71,1.65,10.21-22.91-5.7-2.54L136.5,436.46a12.22,12.22,0,0,0-1.67,2.23l-.07,0a12.86,12.86,0,0,0,.53-2.7l2-18.2-5.67-2.53Zm36.11-6.47,4.09,1.82,1.8-4-4.09-1.83Zm-8.19,18.9,3.78,1.68,7.18-16.14-3.77-1.68Zm6.64,2.95,4.13,1.84,4.74-3.11a7.84,7.84,0,0,0,1.63-1.29l.06,0a6.74,6.74,0,0,0,.1,2.06l.86,5.6,4.32,1.92-2-10.83,8.72-5.51-4.22-1.88-4.08,2.9a9,9,0,0,0-1.55,1.28h0a11,11,0,0,0-.12-2l-.67-5-4.31-1.92,1.85,10.14Z"/></g><rect class="cls-5" x="100.45" y="340.39" width="97.82" height="232.21" transform="translate(-328.42 407.27) rotate(-66)"/><g class="cls-3"><path class="cls-4" d="M39.19,302.88V301l-6.45-1.49a3.12,3.12,0,0,0-.52-.08v-.05a4.63,4.63,0,0,0,.52-.07l6.46-1.46V296l-8.8-2.11v1.62l6.45,1.36a4.26,4.26,0,0,0,.6.07v0a3.53,3.53,0,0,0-.6.1l-6.45,1.53v1.62l6.45,1.56a3.72,3.72,0,0,0,.6.11v0c-.17,0-.34,0-.6.08l-6.46,1.32V305Zm-3-15.26a2.63,2.63,0,0,0-3.08,2.68c-.09,1.85,1.12,3,3.17,3.13a2.84,2.84,0,0,0,3.33-2.88,2.75,2.75,0,0,0-1.53-2.78l-.58,1.11a1.57,1.57,0,0,1,1,1.57A1.59,1.59,0,0,1,36.66,292l.21-4.35Zm-.37,1.45L35.68,292c-1-.07-1.62-.64-1.58-1.58s.61-1.36,1.62-1.31Zm-2.07-6.73,6.16.68.17-1.48-3.57-.39c-1-.11-1.52-.61-1.44-1.35s.56-.95,1.41-.86l3.84.42.16-1.48-3.61-.39c-1-.11-1.48-.59-1.4-1.34s.55-1,1.45-.87l3.8.42.16-1.48-4-.44c-1.46-.16-2.38.45-2.51,1.63a2.06,2.06,0,0,0,1,2.07,1.73,1.73,0,0,0-1.45,1.61,1.87,1.87,0,0,0,1.06,2l-1.1-.12ZM34,271.48l.22-1.59-1.54-.21-.21,1.6Zm7.19.89.19-1.48-6.15-.82-.2,1.48Zm.36-2.64.26-1.6-1.49-1.35a2.66,2.66,0,0,0-.58-.45v0a2.4,2.4,0,0,0,.68-.23l1.83-.83.27-1.68L39,265.29l-2.66-2.51-.26,1.65,1.35,1.14A3,3,0,0,0,38,266h0a3.1,3.1,0,0,0-.67.23l-1.65.71-.26,1.68L38.7,267Zm-3.58-15-.3,1.47-.68-.14c-.65-.13-.91-.47-.79-1.05a4.64,4.64,0,0,1,.19-.61l-1.13-.23a4.13,4.13,0,0,0-.27.84,1.92,1.92,0,0,0,1.6,2.49l.78.16-.22,1,1.06.22.21-1,5,1,.3-1.45-5-1L39,255ZM40,252.34,38.57,252l-.31,1.36,6,1.4.34-1.45-2.53-.59a2.48,2.48,0,0,1-1.71-1,1.79,1.79,0,0,1-.14-1.35l.05-.2-1.39-.32a.55.55,0,0,0-.05.17A2.06,2.06,0,0,0,40,252.34m3.34-8.08a2.62,2.62,0,0,0-3.56,2c-.46,1.79.49,3.19,2.48,3.7a2.85,2.85,0,0,0,3.84-2.16,2.75,2.75,0,0,0-1-3l-.79,1a1.56,1.56,0,0,1,.62,1.73,1.59,1.59,0,0,1-2.07,1.17L44,244.43Zm-.66,1.35-.72,2.8a1.46,1.46,0,0,1-1.22-1.87,1.33,1.33,0,0,1,1.85-1Zm5.15-4.1c.46-1.55,0-2.66-1.16-3a1.72,1.72,0,0,0-2.26,1.2l-.44,1c-.26.61-.58.81-1,.69s-.59-.59-.39-1.26a1.74,1.74,0,0,1,1.48-1.3l-.25-1.15a2.59,2.59,0,0,0-2.26,2.11c-.44,1.51,0,2.62,1.1,2.94A1.82,1.82,0,0,0,45,241.41l.38-.87c.28-.63.56-.82,1-.68s.62.59.41,1.31a1.77,1.77,0,0,1-1.67,1.38l.17,1.2a2.76,2.76,0,0,0,2.53-2.24m1-4,.45-1.42-3.13-1c-1.15-.37-1.64-1.06-1.37-1.91s.82-.94,1.72-.65l3.56,1.14.46-1.43-3.68-1.18c-1.57-.5-2.61-.09-3,1.18a2,2,0,0,0,.64,2.31l-3.75-1.2-.45,1.42Zm-1.69-11,.39-1.05,3,1.12a1.75,1.75,0,0,0,2.6-1.14,5.23,5.23,0,0,0,.25-1L52.28,224a2,2,0,0,1-.14.6c-.22.58-.61.74-1.23.51l-2.79-1,.53-1.42-1-.38-.53,1.42-2-.75,0,1.6,1.46.55-.39,1Zm0-6,.6-1.49-1.44-.58-.6,1.5ZM54,223.15l.55-1.38-5.76-2.31-.55,1.39Zm-4.41-5.8,5.68,2.51.6-1.36-3.28-1.45c-.91-.4-1.27-1-1-1.72s.82-.74,1.6-.39l3.53,1.56.61-1.36L54,213.67c-.91-.4-1.24-1-.93-1.7s.81-.76,1.64-.39l3.49,1.55.61-1.36-3.72-1.65c-1.33-.59-2.39-.28-2.87.81a2,2,0,0,0,.37,2.28,1.74,1.74,0,0,0-1.87,1.1,1.86,1.86,0,0,0,.41,2.19l-1-.44Zm9.32-13.52A2.61,2.61,0,0,0,55,205.09c-.81,1.67-.16,3.22,1.68,4.12a2.86,2.86,0,0,0,4.2-1.34,2.76,2.76,0,0,0-.33-3.17l-1,.8a1.55,1.55,0,0,1,.26,1.81,1.6,1.6,0,0,1-2.26.74l1.9-3.92ZM58,205l-1.26,2.6a1.46,1.46,0,0,1-.83-2.07,1.33,1.33,0,0,1,2-.58Zm-.18-7.32.77-1.41-1.36-.74L56.43,197Zm6.38,3.41.72-1.31-5.45-3-.71,1.3ZM65.85,198l.75-1.29-2.85-1.64c-1-.59-1.36-1.39-.93-2.14s1-.76,1.85-.27l3.2,1.85.75-1.3-3.33-1.93c-1.44-.83-2.54-.64-3.21.53a2.11,2.11,0,0,0,.15,2.47l-1-.6-.71,1.22Zm6.9-11.15a3.26,3.26,0,1,0-4.39.79,2.94,2.94,0,0,0,4.39-.79m-1-.61c-.51.8-1.43.89-2.62.13s-1.47-1.63-1-2.43,1.4-.9,2.6-.13,1.49,1.62,1,2.43m4.57-4.81a2,2,0,0,0,0-2.33l.94.65.81-1.16-5.09-3.54-.86,1.23,2.82,2c.86.59,1.11,1.43.64,2.1s-1,.62-1.78.1l-3.09-2.15L70,179.54l3.27,2.28c1.19.83,2.28.87,3.14-.37m.06-8.42-1.2-.9-.83,1.11,5,3.72.89-1.19-2.07-1.56A2.44,2.44,0,0,1,77,172.64a1.75,1.75,0,0,1,.42-1.3l.12-.16-1.14-.85a.45.45,0,0,0-.11.13,2.05,2.05,0,0,0,.13,2.57M85.72,169c1-1.25,1-2.45.08-3.22a1.72,1.72,0,0,0-2.55.23l-.77.72c-.47.47-.84.53-1.17.27s-.32-.77.12-1.32A1.75,1.75,0,0,1,83.3,165l.21-1.15A2.57,2.57,0,0,0,80.62,165c-1,1.22-1,2.42-.12,3.14a1.81,1.81,0,0,0,2.62-.3l.69-.65c.5-.48.83-.55,1.22-.24s.33.79-.14,1.37a1.76,1.76,0,0,1-2.06.64l-.31,1.17a2.78,2.78,0,0,0,3.2-1.1m3.63-4.35a2.12,2.12,0,0,0,.46-2.37,8,8,0,0,0,.87.62l1-1.12a7.63,7.63,0,0,1-1.58-1.12l-1.39-1.22c-1.36-1.18-2.48-1.08-3.69.31-1,1.2-1.12,2.53-.19,3.47l1-1.15a1.09,1.09,0,0,1,0-1.63c.53-.6,1.06-.61,1.76,0l.13.11-.75,1.1a5.58,5.58,0,0,0-.91,1.89,1.58,1.58,0,0,0,.56,1.49,1.87,1.87,0,0,0,2.77-.38m-.47-1.06c-.44.5-.95.58-1.34.23s-.38-.82,0-1.53l.77-1.2.3.26a1.51,1.51,0,0,1,.22,2.24m-1.66-10.28-1,1.09,6.63,6.08,1-1.09Zm9.23,3.52a2.11,2.11,0,0,0,.58-2.34,7.63,7.63,0,0,0,.83.67l1-1.07a8.08,8.08,0,0,1-1.51-1.21l-1.33-1.28c-1.3-1.25-2.43-1.2-3.7.12-1.12,1.16-1.25,2.47-.36,3.47l1.06-1.1a1.09,1.09,0,0,1,.06-1.64c.55-.57,1.08-.55,1.75.09l.12.12-.8,1.06a5.49,5.49,0,0,0-1,1.84,1.6,1.6,0,0,0,.49,1.52,1.86,1.86,0,0,0,2.78-.25M96,155.73c-.46.48-1,.53-1.35.17s-.34-.85.13-1.53l.82-1.16.29.28a1.5,1.5,0,0,1,.11,2.24m5.59-4.12a2.07,2.07,0,0,0,.56-2.29l.77.8,1-1-6.24-6.48-1.07,1,2.54,2.65a1.86,1.86,0,0,0-2,.5c-1.12,1.08-1,2.77.38,4.17s3,1.63,4.05.59m-.42-1.17c-.65.63-1.61.44-2.53-.52s-1.06-1.89-.41-2.52,1.53-.49,2.37.39l.28.29c.81.84.92,1.75.29,2.36m6.07-4.09c1.21-1.08,1.41-2.26.6-3.17a1.71,1.71,0,0,0-2.55-.18l-.88.59c-.54.38-.92.38-1.2.07s-.19-.81.34-1.28a1.75,1.75,0,0,1,1.94-.33l.4-1.1a2.59,2.59,0,0,0-3,.6c-1.17,1-1.39,2.22-.62,3.08a1.82,1.82,0,0,0,2.64.12l.79-.53c.57-.39.9-.41,1.23,0s.21.83-.35,1.33a1.77,1.77,0,0,1-2.14.3l-.49,1.11a2.77,2.77,0,0,0,3.33-.57m2.91-5-1.34,1.14,1.12,1.31,1.34-1.14Zm6.06-2.77,1.48-1.13-2.75-6a3.37,3.37,0,0,0-.25-.46l0,0c.13.14.24.24.38.37l5.1,4.23,1.47-1.14L118,126.11l-1.29,1,2.85,5.94c.12.24.21.37.3.52l0,0a4.72,4.72,0,0,0-.44-.41L114.26,129,113,130l2.69,6.06a4.3,4.3,0,0,0,.28.54l0,0a4,4,0,0,0-.42-.43l-5-4.31-1.29,1Zm10.28-11.7a2.62,2.62,0,0,0-4-.82c-1.53,1-1.73,2.72-.57,4.41a2.85,2.85,0,0,0,4.31.91,2.76,2.76,0,0,0,1.28-2.91l-1.23.21a1.64,1.64,0,0,1-3,1.23l3.59-2.46Zm-1.38.59-2.39,1.63a1.47,1.47,0,0,1,.31-2.21,1.32,1.32,0,0,1,2,.49Zm9.27-1.43c1.37-.85,1.79-2,1.15-3a1.71,1.71,0,0,0-2.48-.63l-1,.42c-.6.28-1,.21-1.19-.15s0-.83.56-1.2a1.76,1.76,0,0,1,2,0l.58-1a2.57,2.57,0,0,0-3.09,0c-1.34.83-1.76,1.94-1.16,2.93a1.83,1.83,0,0,0,2.58.59l.87-.39c.63-.28,1-.24,1.22.18s.05.86-.58,1.25a1.77,1.77,0,0,1-2.16-.09l-.69,1a2.78,2.78,0,0,0,3.39,0m.09-6.25,1-.56,1.6,2.77a1.75,1.75,0,0,0,2.74.77,4.16,4.16,0,0,0,.82-.61l-.62-1.08a2.42,2.42,0,0,1-.49.37c-.54.31-.94.18-1.28-.4l-1.48-2.57,1.31-.75-.54-.94-1.31.76-1.08-1.87-1,1.26.78,1.35-1,.56Zm8.76,1.08a2.09,2.09,0,0,0,1.26-2.06,8.59,8.59,0,0,0,.59.89l1.31-.71a7.23,7.23,0,0,1-1.08-1.6l-.89-1.63c-.86-1.58-1.95-1.88-3.56-1-1.41.77-1.93,2-1.39,3.2l1.34-.73a1.1,1.1,0,0,1,.55-1.54c.7-.38,1.21-.2,1.65.61l.08.14-1.08.77a5.38,5.38,0,0,0-1.51,1.46,1.6,1.6,0,0,0,0,1.6,1.87,1.87,0,0,0,2.73.6m-.08-1.15c-.57.31-1.08.21-1.33-.25s-.07-.91.58-1.42l1.14-.86.19.35a1.51,1.51,0,0,1-.58,2.18m7-2.48a2.58,2.58,0,0,0,1.48-3.21l-1.39.37a1.31,1.31,0,0,1-.61,1.78c-.86.43-1.7,0-2.29-1.22s-.4-2.09.43-2.5a1.29,1.29,0,0,1,1.75.59l1.2-.85a2.49,2.49,0,0,0-3.44-.8,3.26,3.26,0,0,0,2.87,5.84m7.55-3.71,1.58-.7-3.7-2.48,1.08-3.15-1.65.74-1.09,3.5-2.26-5.07-1.36.61,3.66,8.22,1.36-.61-.75-1.68.45-1.25Zm7.5-3a2,2,0,0,0,1.34-1.91l.41,1.08,1.32-.51-2.22-5.79-1.4.54,1.23,3.21c.37,1,.11,1.8-.66,2.1s-1.2-.08-1.52-.92l-1.35-3.51-1.39.53,1.43,3.72c.52,1.36,1.39,2,2.81,1.46m5.76.22,1.41-.48-1.06-3.13a2,2,0,0,0,2.07.39c1.45-.49,2-2,1.39-3.91s-2-2.75-3.4-2.27a2.08,2.08,0,0,0-1.49,1.8l-.35-1-1.34.45Zm1.64-4.16c-.83.28-1.6-.25-2-1.38l-.1-.3c-.4-1.19-.1-2,.75-2.32s1.61.27,2,1.52.15,2.19-.7,2.48m10.83-8.78a2.17,2.17,0,0,1,.5-.08l-.32-1.07a1.91,1.91,0,0,0-.33.06,1.56,1.56,0,0,0-1.25,1.56,3.11,3.11,0,0,0-1.32.13c-1.52.45-2.21,1.54-1.86,2.72a2,2,0,0,0,1.17,1.31,1.37,1.37,0,0,0-.55,1.54,1.13,1.13,0,0,0,1.06.85,1.29,1.29,0,0,0-.64,1.46c.25.84,1.2,1.31,3.24.71s2.94-1.73,2.58-3-1.22-1.5-2.61-1.09l-1.55.45c-.67.2-1,0-1.08-.28a.53.53,0,0,1,.16-.54,3.18,3.18,0,0,0,1.27-.14c1.51-.44,2.19-1.57,1.84-2.75a1.9,1.9,0,0,0-1-1.24,1,1,0,0,1,.74-.64m-1.79,3.77a1.13,1.13,0,0,1-1.44-.85,1.14,1.14,0,1,1,2.2-.63,1.12,1.12,0,0,1-.76,1.48m1.6,2.65c.69-.2,1.11,0,1.25.43s-.18,1-1.53,1.38c-1,.31-1.79.27-2-.36a.89.89,0,0,1,.22-.89,3.58,3.58,0,0,0,.48-.11Zm5.88-1.35a3.26,3.26,0,1,0-3.74-2.42,2.92,2.92,0,0,0,3.74,2.42m-.27-1.09c-.93.23-1.66-.33-2-1.7s0-2.18,1-2.42,1.64.31,2,1.68,0,2.21-.94,2.44m7.22-.51a3.26,3.26,0,1,0-3.65-2.57,2.94,2.94,0,0,0,3.65,2.57m-.23-1.1c-.94.19-1.65-.39-1.94-1.78s.13-2.18,1.07-2.38,1.62.37,1.91,1.76-.11,2.2-1,2.4m6.71-.16a2,2,0,0,0,1.75-1.57l.19,1.1,1.38-.24-1.5-8.87L203,90.7l.61,3.62a1.87,1.87,0,0,0-1.94-.72c-1.53.26-2.36,1.75-2,3.66s1.53,3,3,2.77m.32-1.21c-.9.16-1.58-.54-1.8-1.85s.19-2.16,1.08-2.31,1.54.46,1.74,1.66l.07.39c.19,1.15-.24,2-1.09,2.11m7.63-6.49.63,6.18,1.48-.15-.36-3.57c-.1-1,.27-1.61,1-1.69s1,.34,1.14,1.2l.39,3.84,1.48-.15L216,94.38c-.1-1,.27-1.57,1-1.65s1.06.33,1.15,1.23l.39,3.8,1.48-.15-.41-4c-.15-1.45-.94-2.22-2.13-2.1a2,2,0,0,0-1.8,1.46,1.74,1.74,0,0,0-1.88-1.09,1.88,1.88,0,0,0-1.7,1.45l-.11-1.1Zm10.69-2,1.61-.12-.12-1.55-1.61.12Zm.62,7.21,1.48-.11-.46-6.19-1.49.11Zm3.52-.25,1.49-.06-.12-3.28c0-1.18.46-1.9,1.33-1.93s1.17.44,1.2,1.42l.14,3.7,1.5,0-.14-3.85c-.06-1.66-.8-2.49-2.15-2.44a2.1,2.1,0,0,0-2,1.44L226.6,91l-1.41.06Zm9.43-.11a2.06,2.06,0,0,0,2-1.26V97h1.4l0-9h-1.48l0,3.67a1.85,1.85,0,0,0-1.78-1c-1.55,0-2.62,1.32-2.63,3.25s1,3.25,2.5,3.25m.51-1.14c-.91,0-1.46-.8-1.46-2.12s.56-2.1,1.46-2.1,1.44.71,1.44,1.93v.4c0,1.17-.56,1.9-1.43,1.89m8.38-6.08,1.61.06.06-1.55-1.61-.06Zm-.23,7.23,1.48.06.26-6.2L243.76,91Zm3.5.16,1.49.11.22-3.29c.08-1.17.65-1.83,1.51-1.77s1.12.56,1.06,1.54L251,97.59l1.5.1.26-3.84c.11-1.66-.54-2.56-1.89-2.65a2.11,2.11,0,0,0-2.15,1.22l.08-1.2-1.41-.1Zm13.07,1.37a3.26,3.26,0,1,0-2.58-3.63,2.95,2.95,0,0,0,2.58,3.63m.15-1.12c-1-.12-1.42-.91-1.23-2.32s.84-2,1.79-1.89,1.41.89,1.22,2.29-.83,2-1.78,1.92m6.31,2a2,2,0,0,0,2.12-1l-.19,1.14,1.39.24,1-6.12-1.48-.25L268.84,97c-.18,1-.83,1.61-1.64,1.47s-1-.67-.84-1.57l.63-3.7L265.53,93l-.67,3.92c-.25,1.44.17,2.44,1.67,2.69M274.11,96l.29-1.47L273,94.3l-1.2,6.09,1.46.28.5-2.54a2.55,2.55,0,0,1,.91-1.75,1.77,1.77,0,0,1,1.35-.17l.2,0,.27-1.39a.43.43,0,0,0-.16,0A2.08,2.08,0,0,0,274.11,96m7.69,6.66c1.57.39,2.66-.11,3-1.29a1.71,1.71,0,0,0-1.29-2.21l-1-.4c-.62-.23-.84-.54-.73-1s.56-.61,1.25-.44a1.73,1.73,0,0,1,1.35,1.42l1.14-.29a2.58,2.58,0,0,0-2.2-2.17c-1.53-.38-2.62.1-2.9,1.22s.17,1.78,1.38,2.25l.89.35c.64.25.84.52.72,1s-.56.64-1.29.46a1.77,1.77,0,0,1-1.45-1.61l-1.19.22a2.77,2.77,0,0,0,2.34,2.44m5.47,1.42a2.13,2.13,0,0,0,2.34-.62,7.84,7.84,0,0,0-.19,1l1.43.4a7.61,7.61,0,0,1,.34-1.91l.49-1.78c.47-1.73-.11-2.7-1.88-3.19-1.54-.43-2.76.08-3.21,1.34l1.47.4a1.09,1.09,0,0,1,1.46-.73c.77.21,1,.69.76,1.59l0,.16-1.31-.2a5.54,5.54,0,0,0-2.1,0,1.58,1.58,0,0,0-1.1,1.16,1.87,1.87,0,0,0,1.54,2.33m.75-.89c-.64-.18-.93-.6-.79-1.11s.58-.7,1.41-.61l1.41.16-.11.39a1.5,1.5,0,0,1-1.92,1.17m4.48,2.23,1.42.45,1-3.14c.35-1.12,1.06-1.63,1.89-1.37s.95.81.66,1.75l-1.12,3.52,1.44.45,1.15-3.66c.5-1.59.09-2.62-1.2-3a2.15,2.15,0,0,0-2.38.68l.36-1.14-1.35-.43Zm8.89,3.1a2.07,2.07,0,0,0,2.3-.52l-.37,1,1.32.47,3-8.48-1.4-.5L305,104a1.86,1.86,0,0,0-1.34-1.57c-1.46-.52-2.91.37-3.56,2.2s-.14,3.39,1.27,3.89m.87-.9c-.86-.31-1.12-1.24-.67-2.5s1.22-1.79,2.07-1.48,1.12,1.15.71,2.29l-.13.38c-.39,1.1-1.17,1.6-2,1.31m5.28,3,1.4.57,2.56-3.37c.1-.16.25-.38.33-.52h0a3.35,3.35,0,0,0-.12.6l-.58,4.2,1.4.58,3.95-5.09-1.35-.56-2.48,3.46-.35.57h0a6.56,6.56,0,0,0,.14-.66l.63-4.22-1.3-.53-2.52,3.43c-.12.17-.25.36-.38.57h0c.07-.23.11-.47.15-.66l.69-4.19-1.35-.56Zm10.61-3.39,1.48.65.62-1.41-1.47-.66Zm-2.85,6.65,1.36.61,2.51-5.68-1.37-.6Zm5.41,2.65a2.58,2.58,0,0,0,3.43-.84l-1.15-.86a1.34,1.34,0,0,1-1.78.64c-.86-.41-1-1.35-.47-2.56s1.39-1.61,2.22-1.22a1.29,1.29,0,0,1,.64,1.74l1.41.4a2.48,2.48,0,0,0-1.52-3.18,2.91,2.91,0,0,0-4.14,1.64,3,3,0,0,0,1.36,4.24m3.94,1.76L326,119l1.51-2.93c.55-1.07,1.32-1.44,2.11-1s.79,1,.36,1.8l-1.71,3.32,1.33.69,1.77-3.43c.75-1.47.52-2.56-.67-3.18a2,2,0,0,0-2.38.26l1.8-3.5-1.32-.68Zm12.84,3.06a2.61,2.61,0,0,0-1-4c-1.61-.91-3.2-.35-4.2,1.44a2.84,2.84,0,0,0,1.09,4.27,2.76,2.76,0,0,0,3.18-.14l-.74-1a1.65,1.65,0,0,1-2.43-2.15l3.8,2.13Zm-1.13-1L333.84,119a1.47,1.47,0,0,1,2.12-.71,1.34,1.34,0,0,1,.45,2Zm2.63,6c1.38.84,2.57.69,3.2-.35a1.72,1.72,0,0,0-.57-2.5l-.81-.67c-.53-.4-.64-.76-.42-1.12s.72-.42,1.32,0a1.76,1.76,0,0,1,.88,1.76l1.17.06a2.6,2.6,0,0,0-1.45-2.73c-1.35-.82-2.54-.68-3.14.3a1.83,1.83,0,0,0,.65,2.57l.74.59c.54.43.66.75.4,1.17s-.74.44-1.37,0a1.75,1.75,0,0,1-.91-2l-1.21-.15a2.79,2.79,0,0,0,1.52,3m5.64,1.32-1.48-1-.93,1.45,1.48,1Z"/></g></g></g></svg>