<svg xmlns="http://www.w3.org/2000/svg" xmlns:xlink="http://www.w3.org/1999/xlink" viewBox="0 0 335 209.19"><defs><style>.cls-1{fill:none;}.cls-2{clip-path:url(#clip-path);}.cls-3{fill:#f0e6d2;}</style><clipPath id="clip-path" transform="translate(0 0)"><rect class="cls-1" width="335" height="209.19"/></clipPath></defs><g id="레이어_2" data-name="레이어 2"><g id="레이어_1-2" data-name="레이어 1"><g class="cls-2"><path class="cls-3" d="M111.82,203v6.06h1.45v-3.5c0-1,.43-1.54,1.15-1.54s1,.43,1,1.27v3.77h1.46v-3.54c0-1,.41-1.5,1.15-1.5s1,.42,1,1.31v3.73h1.46v-4c0-1.44-.69-2.26-1.86-2.26a2,2,0,0,0-1.89,1.24,1.69,1.69,0,0,0-1.72-1.24,1.82,1.82,0,0,0-1.79,1.24V203Zm-4.53,5.1c-.93,0-1.49-.7-1.49-2.08s.56-2.06,1.49-2.06,1.48.67,1.48,2.06-.55,2.08-1.48,2.08m0,1.1a3.18,3.18,0,1,0-3-3.18,2.87,2.87,0,0,0,3,3.18m-6.71,0a2.51,2.51,0,0,0,2.67-2.17l-1.36-.28c-.14.85-.59,1.3-1.31,1.3-.94,0-1.48-.75-1.48-2.06s.56-2,1.45-2a1.26,1.26,0,0,1,1.29,1.27l1.41-.23a2.43,2.43,0,0,0-2.66-2.18,2.85,2.85,0,0,0-3,3.18,2.88,2.88,0,0,0,3,3.17m-4.18-1.83H94.68v1.69H96.4Zm-4.31-2.91V203H90.73v6.06h1.45v-2.54a2.44,2.44,0,0,1,.55-1.84,1.76,1.76,0,0,1,1.26-.42h.19v-1.39a.5.5,0,0,0-.17,0,2,2,0,0,0-1.92,1.61m-4.41,1H84.85c0-1,.55-1.61,1.47-1.61s1.36.52,1.36,1.52Zm1.43.29a2.56,2.56,0,0,0-2.77-2.87c-1.8,0-2.89,1.24-2.89,3.24a2.78,2.78,0,0,0,3,3.11,2.71,2.71,0,0,0,2.64-1.63l-1.12-.51a1.52,1.52,0,0,1-1.47,1,1.56,1.56,0,0,1-1.62-1.67h4.26Zm-7.27-5.45H80.38v8.79h1.46Zm-3.64,0H76.75v8.79H78.2Zm-4.56,5.16H70.81c0-1,.55-1.61,1.47-1.61s1.36.52,1.36,1.52Zm1.43.29a2.56,2.56,0,0,0-2.77-2.87c-1.8,0-2.89,1.24-2.89,3.24a2.78,2.78,0,0,0,3,3.11A2.71,2.71,0,0,0,75,207.56l-1.12-.51a1.51,1.51,0,0,1-1.47,1,1.56,1.56,0,0,1-1.62-1.67h4.26Zm-9.21,3.48c1.58,0,2.5-.72,2.5-1.91,0-1-.5-1.64-1.75-1.8l-1-.14c-.64-.07-.92-.32-.92-.73s.39-.71,1.08-.71a1.7,1.7,0,0,1,1.62,1l1-.55a2.52,2.52,0,0,0-2.59-1.54c-1.54,0-2.46.72-2.46,1.85,0,1,.58,1.64,1.84,1.8l.92.12c.67.09.92.29.92.78s-.39.74-1.11.74A1.73,1.73,0,0,1,64.14,207l-1.08.49a2.71,2.71,0,0,0,2.8,1.75m-7.11-1.11c-.88,0-1.43-.78-1.43-2.07s.53-2,1.42-2,1.4.69,1.4,1.88v.38c0,1.14-.54,1.86-1.39,1.86m-.5,1.11A2,2,0,0,0,60.19,208v1.09h1.37v-8.79H60.11v3.59a1.82,1.82,0,0,0-1.75-1c-1.51,0-2.55,1.3-2.55,3.19s1,3.16,2.44,3.16m-6.76-1c-.64,0-1-.32-1-.83s.37-.82,1.17-1l1.37-.2v.38a1.47,1.47,0,0,1-1.51,1.6m-.47,1a2.07,2.07,0,0,0,2-1.18,10.35,10.35,0,0,0,.09,1h1.46a7.45,7.45,0,0,1-.18-1.88v-1.81c0-1.75-.8-2.52-2.6-2.52-1.56,0-2.58.8-2.67,2.1h1.49a1.06,1.06,0,0,1,1.18-1.07c.78,0,1.13.39,1.13,1.3v.16l-1.28.15a5.62,5.62,0,0,0-2,.55A1.56,1.56,0,0,0,49,207.4,1.83,1.83,0,0,0,51,209.19m-3.65-8.93H45.92v8.79h1.45ZM41,208.16c-.64,0-1-.32-1-.83s.37-.82,1.17-1l1.37-.2v.38a1.47,1.47,0,0,1-1.51,1.6m-.47,1a2.07,2.07,0,0,0,2-1.18,10.35,10.35,0,0,0,.09,1h1.46a7.45,7.45,0,0,1-.18-1.88v-1.81c0-1.75-.8-2.52-2.6-2.52-1.56,0-2.58.8-2.68,2.1h1.49a1.07,1.07,0,0,1,1.19-1.07c.78,0,1.13.39,1.13,1.3v.16l-1.28.15a5.62,5.62,0,0,0-2,.55,1.56,1.56,0,0,0-.74,1.37,1.83,1.83,0,0,0,2.06,1.79m-5.61,0c1.58,0,2.5-.72,2.5-1.91,0-1-.5-1.64-1.75-1.8l-1-.14c-.65-.07-.92-.32-.92-.73s.38-.71,1.07-.71a1.71,1.71,0,0,1,1.63,1l1-.55a2.52,2.52,0,0,0-2.59-1.54c-1.54,0-2.46.72-2.46,1.85,0,1,.58,1.64,1.84,1.8l.92.12c.67.09.92.29.92.78s-.38.74-1.11.74A1.73,1.73,0,0,1,33.2,207l-1.08.49a2.71,2.71,0,0,0,2.8,1.75m-4.77-1.83H28.43v1.69h1.72Zm-9.32,1.69h1.48l1.06-4c0-.18.08-.44.11-.59h0a3.55,3.55,0,0,0,.11.59l1,4h1.48L27.8,203H26.37l-.94,4c0,.2-.08.43-.11.66h0a6,6,0,0,0-.12-.66l-1-4H22.8l-1,4c0,.2-.09.43-.13.66h0c0-.23-.08-.46-.11-.66l-.94-4H19.17Zm-9.44,0h1.47l1.06-4c0-.18.08-.44.11-.59h0a3.55,3.55,0,0,0,.11.59l1,4h1.48L18.35,203H16.92L16,207c0,.2-.08.43-.11.66h0a6,6,0,0,0-.12-.66l-1-4H13.35l-1,4c0,.2-.1.43-.14.66h0c0-.23-.08-.46-.11-.66l-.93-4H9.73Zm-9.45,0H3.42l1-4c0-.18.08-.44.11-.59h0a3.55,3.55,0,0,0,.11.59l1,4H7.23L8.9,203H7.47l-.94,4c0,.2-.07.43-.11.66h0c0-.23-.09-.46-.13-.66l-1-4H3.9l-1,4c-.05.2-.1.43-.14.66h0c0-.23-.07-.46-.11-.66l-.93-4H.28Z" transform="translate(0 0)"/><path class="cls-3" d="M141.49,183.49c-.65,0-1-.32-1-.83s.36-.81,1.16-.95l1.37-.2v.39a1.46,1.46,0,0,1-1.5,1.59m-.48,1a2,2,0,0,0,2-1.18,7.81,7.81,0,0,0,.1,1h1.45a7.45,7.45,0,0,1-.18-1.88v-1.8c0-1.76-.8-2.52-2.59-2.52-1.57,0-2.59.8-2.68,2.09h1.49a1.06,1.06,0,0,1,1.19-1.06c.77,0,1.12.38,1.12,1.29v.16l-1.28.16a5.44,5.44,0,0,0-2,.54,1.56,1.56,0,0,0-.74,1.37,1.83,1.83,0,0,0,2.06,1.79m-4.55-3.76h-2.82c0-1,.54-1.61,1.46-1.61s1.36.52,1.36,1.51Zm1.43.29a2.55,2.55,0,0,0-2.76-2.87c-1.81,0-2.9,1.23-2.9,3.23a2.78,2.78,0,0,0,3,3.11,2.7,2.7,0,0,0,2.64-1.63l-1.11-.51a1.54,1.54,0,0,1-1.48,1,1.56,1.56,0,0,1-1.61-1.68h4.25Zm-8.43-1.26v-1.47H128.1v6.06h1.45v-2.53a2.5,2.5,0,0,1,.55-1.85,1.76,1.76,0,0,1,1.26-.42h.19v-1.39h-.17a2,2,0,0,0-1.92,1.61m-5.89,3.63c-.93,0-1.49-.7-1.49-2.08s.56-2.06,1.49-2.06,1.48.68,1.48,2.06-.55,2.08-1.48,2.08m0,1.1a3.18,3.18,0,1,0-3-3.18,2.87,2.87,0,0,0,3,3.18m-5.14-.14h1.81l-3.32-5.13h0l3.09-3.46h-1.87l-3.44,4v-4h-1.56v8.6h1.56v-2.74l1.16-1.3Zm-11.78,1.78a1.73,1.73,0,0,0,1.32-1.88v-1.59h-1.72v1.69h.86v0c0,.57-.14.84-.79,1.1Zm-2.33-10.56h-1.45v8.78h1.45Zm-6.84,8.92a2,2,0,0,0,1.89-1.27v1.13h1.38v-6.06H99.28v3.36c0,1-.53,1.68-1.33,1.68s-1.07-.48-1.07-1.37v-3.67H95.43v3.89c0,1.42.57,2.31,2,2.31m-6.43-1.1c-.94,0-1.49-.7-1.49-2.08s.55-2.06,1.49-2.06,1.47.68,1.47,2.06-.54,2.08-1.47,2.08m0,1.1a3.18,3.18,0,1,0-3-3.18,2.86,2.86,0,0,0,3,3.18m-5.55-3.76H82.68c0-1,.54-1.61,1.46-1.61s1.36.52,1.36,1.51Zm1.43.29a2.55,2.55,0,0,0-2.76-2.87c-1.81,0-2.9,1.23-2.9,3.23a2.78,2.78,0,0,0,3,3.11,2.71,2.71,0,0,0,2.64-1.63l-1.12-.51a1.52,1.52,0,0,1-1.47,1,1.56,1.56,0,0,1-1.61-1.68h4.25Zm-10,3.53c2.19,0,3.3-1.16,3.3-2.64s-.94-2.18-2.36-2.48l-1.25-.27c-.94-.2-1.33-.57-1.33-1.27s.63-1.16,1.56-1.16A2,2,0,0,1,79,178.32l1.25-.65c-.37-1.43-1.67-2.1-3.3-2.1-1.94,0-3.15,1-3.15,2.47a2.4,2.4,0,0,0,2.25,2.47l1.2.26c.94.19,1.45.48,1.45,1.32s-.82,1.25-1.71,1.25a2.27,2.27,0,0,1-2.32-1.75l-1.33.58c.35,1.41,1.57,2.41,3.61,2.41m-9.23,1.58A1.73,1.73,0,0,0,69,184.28v-1.59H67.32v1.69h.86v0c0,.57-.14.84-.79,1.1Zm-5.54-1.64a2,2,0,0,0,1.89-1.27v1.13h1.38v-6.06H64v3.36c0,1-.53,1.68-1.33,1.68s-1.06-.48-1.06-1.37v-3.67H60.13v3.89c0,1.42.57,2.31,2,2.31m-5.48-.19c.71,0,1.06.25,1.06.74s-.45.87-1.82.87c-1,0-1.74-.24-1.74-.88a.88.88,0,0,1,.44-.77,3.79,3.79,0,0,0,.49,0Zm-.76-2.93a1.09,1.09,0,0,1-1.11-1.19,1.12,1.12,0,1,1,2.23,0,1.1,1.1,0,0,1-1.12,1.18m2.71-3a2,2,0,0,1,.49.06v-1.09a1.86,1.86,0,0,0-.33,0,1.53,1.53,0,0,0-1.6,1.12,3.06,3.06,0,0,0-1.27-.24c-1.55,0-2.5.83-2.5,2a1.93,1.93,0,0,0,.74,1.55,1.34,1.34,0,0,0-.94,1.29,1.12,1.12,0,0,0,.76,1.09,1.26,1.26,0,0,0-1,1.18c0,.86.76,1.57,2.83,1.57s3.24-.82,3.24-2.06-.73-1.75-2.15-1.75H55.35c-.68,0-.94-.23-.94-.56a.53.53,0,0,1,.31-.46,3.09,3.09,0,0,0,1.22.22c1.54,0,2.48-.87,2.48-2.07a1.88,1.88,0,0,0-.64-1.45,1,1,0,0,1,.87-.39M48.3,181.65H52v-1.28H48.3Zm-6.92,2.73h1.45v-3.21c0-1.15.51-1.83,1.36-1.83s1.13.47,1.13,1.43v3.61h1.46v-3.76c0-1.62-.69-2.46-2-2.46a2.07,2.07,0,0,0-2,1.34v-1.18H41.38Zm-4.86-.89c-.64,0-1-.32-1-.83s.37-.81,1.17-.95l1.37-.2v.39a1.47,1.47,0,0,1-1.51,1.59m-.47,1a2.06,2.06,0,0,0,2-1.18,7.91,7.91,0,0,0,.09,1h1.46a7.37,7.37,0,0,1-.19-1.88v-1.8c0-1.76-.79-2.52-2.59-2.52-1.56,0-2.58.8-2.68,2.09h1.49a1.07,1.07,0,0,1,1.19-1.06c.78,0,1.13.38,1.13,1.29v.16l-1.29.16a5.44,5.44,0,0,0-2,.54,1.54,1.54,0,0,0-.74,1.37,1.83,1.83,0,0,0,2.06,1.79m-5.61,0c1.58,0,2.5-.72,2.5-1.91,0-1-.5-1.64-1.75-1.79l-1-.15c-.65-.07-.93-.31-.93-.73s.39-.71,1.08-.71a1.71,1.71,0,0,1,1.63,1l1-.55a2.51,2.51,0,0,0-2.59-1.53c-1.54,0-2.46.71-2.46,1.84,0,1,.58,1.65,1.84,1.8l.92.12c.67.09.92.29.92.78s-.38.74-1.11.74a1.73,1.73,0,0,1-1.76-1.18l-1.08.49a2.7,2.7,0,0,0,2.8,1.75m-5.64-.19c.7,0,1.05.25,1.05.74s-.45.87-1.82.87c-1.05,0-1.74-.24-1.74-.88a.87.87,0,0,1,.45-.77,3.53,3.53,0,0,0,.48,0ZM24,181.4a1.1,1.1,0,0,1-1.11-1.19,1.12,1.12,0,1,1,2.23,0A1.1,1.1,0,0,1,24,181.4m2.72-3a1.91,1.91,0,0,1,.48.06v-1.09a1.86,1.86,0,0,0-.33,0,1.51,1.51,0,0,0-1.59,1.12,3.14,3.14,0,0,0-1.28-.24c-1.55,0-2.49.83-2.49,2a1.91,1.91,0,0,0,.74,1.55,1.35,1.35,0,0,0-1,1.29,1.11,1.11,0,0,0,.77,1.09,1.26,1.26,0,0,0-1,1.18c0,.86.76,1.57,2.83,1.57s3.24-.82,3.24-2.06-.73-1.75-2.14-1.75H23.44c-.68,0-.93-.23-.93-.56a.52.52,0,0,1,.3-.46,3.09,3.09,0,0,0,1.22.22c1.54,0,2.49-.87,2.49-2.07a1.85,1.85,0,0,0-.65-1.45,1,1,0,0,1,.88-.39m-12.32,6h1.45v-3.21c0-1.15.51-1.83,1.36-1.83s1.12.47,1.12,1.43v3.61h1.47v-3.76c0-1.62-.69-2.46-2-2.46a2.07,2.07,0,0,0-2,1.34v-1.18H14.43Zm-4.53-1c-.94,0-1.49-.7-1.49-2.08s.55-2.06,1.49-2.06,1.47.68,1.47,2.06-.54,2.08-1.47,2.08m0,1.1a3.18,3.18,0,0,0,0-6.34,3.18,3.18,0,0,0,0,6.34m-7-.14H4.48V181.1l2.9-5.32H5.68l-1.76,3.43a2.61,2.61,0,0,0-.21.55h0a2,2,0,0,0-.23-.55L1.7,175.78H0l2.9,5.32Z" transform="translate(0 0)"/><path class="cls-3" d="M134.75,170.58a1.72,1.72,0,0,0,1.32-1.87v-1.59h-1.72v1.68h.86v0c0,.57-.13.84-.79,1.09ZM132.42,160H131v8.78h1.45Zm-5,8.78h1.45v-6.05H127.4Zm-.07-7.06h1.57v-1.51h-1.57Zm-3.64,7c.71,0,1.06.26,1.06.74s-.45.88-1.82.88c-1.05,0-1.75-.25-1.75-.89a.87.87,0,0,1,.45-.76l.49,0Zm-.76-2.93a1.09,1.09,0,0,1-1.12-1.18,1.12,1.12,0,1,1,1.12,1.18m2.71-3a2,2,0,0,1,.49.07v-1.1l-.33,0a1.54,1.54,0,0,0-1.6,1.11,3.27,3.27,0,0,0-1.27-.24c-1.55,0-2.5.84-2.5,2a2,2,0,0,0,.74,1.55,1.33,1.33,0,0,0-.94,1.28,1.11,1.11,0,0,0,.76,1.09,1.28,1.28,0,0,0-1,1.19c0,.86.76,1.56,2.83,1.56s3.23-.81,3.23-2.06-.72-1.74-2.14-1.74h-1.57c-.68,0-.94-.23-.94-.56a.5.5,0,0,1,.31-.46,3.28,3.28,0,0,0,1.22.22c1.54,0,2.48-.87,2.48-2.07a1.9,1.9,0,0,0-.64-1.46,1,1,0,0,1,.87-.39m-10.84,3.29h3.72v-1.29H114.8Zm-4.32,2.9a2.84,2.84,0,0,0,3.07-3c0-1.81-1-2.92-2.61-2.92a2.13,2.13,0,0,0-1.94,1l.28-2.42h3.85v-1.23h-5l-.5,4.9,1.36.13a1.48,1.48,0,0,1,1.51-1.22c1,0,1.52.74,1.52,1.84s-.58,1.74-1.56,1.74a1.46,1.46,0,0,1-1.5-1.28l-1.49.21a2.75,2.75,0,0,0,3,2.28m-10.24-1.13c-.93,0-1.49-.71-1.49-2.09s.56-2.06,1.49-2.06,1.48.68,1.48,2.06-.55,2.09-1.48,2.09m0,1.1a3.18,3.18,0,1,0-3-3.19,2.87,2.87,0,0,0,3,3.19m-5.74-4.74v-1.46H93.14v6.05H94.6v-2.53a2.45,2.45,0,0,1,.54-1.84A1.72,1.72,0,0,1,96.4,164h.19v-1.4h-.17a2,2,0,0,0-1.92,1.61m-7.23,1.87H91v-1.29H87.27Zm-7.4,2.72h1.45v-3.21c0-1.15.51-1.83,1.36-1.83s1.12.48,1.12,1.43v3.61h1.47v-3.75c0-1.63-.69-2.46-2-2.46a2.05,2.05,0,0,0-2,1.33v-1.17H79.87ZM75,167.92c-.65,0-1-.33-1-.84s.36-.81,1.16-.94l1.37-.21v.39a1.47,1.47,0,0,1-1.5,1.6m-.48,1a2.05,2.05,0,0,0,2-1.19,7.65,7.65,0,0,0,.1,1h1.45a7.31,7.31,0,0,1-.18-1.87v-1.81c0-1.76-.8-2.52-2.59-2.52-1.57,0-2.58.8-2.68,2.1h1.49a1.07,1.07,0,0,1,1.19-1.07c.77,0,1.12.39,1.12,1.3v.15l-1.28.16a5.22,5.22,0,0,0-2,.55,1.54,1.54,0,0,0-.73,1.37,1.83,1.83,0,0,0,2,1.79m-9.65-.15h1.48l1-4c0-.19.09-.44.11-.6h0a5,5,0,0,0,.1.6l1,4h1.47l1.68-6.05H70.42l-1,4c0,.19-.07.42-.11.65h0c0-.23-.09-.46-.12-.65l-1-4H66.84l-1,4a5.33,5.33,0,0,0-.13.65h0a5.48,5.48,0,0,0-.11-.65l-.93-4H63.22Zm-4.55-.05c.7,0,1.05.26,1.05.74s-.45.88-1.82.88c-1.05,0-1.74-.25-1.74-.89a.85.85,0,0,1,.45-.76l.48,0Zm-.77-2.93a1.09,1.09,0,0,1-1.11-1.18,1.12,1.12,0,1,1,2.23,0,1.09,1.09,0,0,1-1.12,1.17m2.72-3a1.92,1.92,0,0,1,.48.07v-1.1l-.33,0a1.52,1.52,0,0,0-1.59,1.11,3.32,3.32,0,0,0-1.28-.24c-1.55,0-2.49.84-2.49,2a1.92,1.92,0,0,0,.74,1.55,1.32,1.32,0,0,0-1,1.28,1.11,1.11,0,0,0,.76,1.09,1.28,1.28,0,0,0-1,1.19c0,.86.76,1.56,2.83,1.56s3.24-.81,3.24-2.06-.73-1.74-2.15-1.74H59c-.68,0-.93-.23-.93-.56a.51.51,0,0,1,.3-.46,3.28,3.28,0,0,0,1.22.22c1.54,0,2.49-.87,2.49-2.07a1.87,1.87,0,0,0-.65-1.46,1,1,0,0,1,.88-.39m-9.74,5.13c-.65,0-1-.33-1-.84s.36-.81,1.16-.94l1.37-.21v.39a1.47,1.47,0,0,1-1.5,1.6m-.48,1a2.05,2.05,0,0,0,2-1.19,7.65,7.65,0,0,0,.1,1h1.45a7.31,7.31,0,0,1-.18-1.87v-1.81c0-1.76-.8-2.52-2.59-2.52-1.57,0-2.59.8-2.68,2.1h1.49a1.07,1.07,0,0,1,1.19-1.07c.77,0,1.12.39,1.12,1.3v.15l-1.28.16a5.22,5.22,0,0,0-2,.55,1.55,1.55,0,0,0-.74,1.37A1.84,1.84,0,0,0,52.06,169m-5.6,0C48,169,49,168.22,49,167c0-1-.5-1.63-1.74-1.79l-1-.14c-.64-.08-.92-.32-.92-.73s.39-.72,1.08-.72a1.72,1.72,0,0,1,1.62,1l1-.54a2.5,2.5,0,0,0-2.59-1.54c-1.54,0-2.46.72-2.46,1.84s.59,1.65,1.85,1.81l.92.12c.66.08.92.29.92.77s-.39.74-1.12.74a1.72,1.72,0,0,1-1.75-1.17l-1.08.48a2.7,2.7,0,0,0,2.8,1.76m-5.2-3.77H38.44c0-1,.54-1.61,1.46-1.61s1.36.52,1.36,1.51Zm1.43.29a2.55,2.55,0,0,0-2.76-2.87c-1.81,0-2.9,1.24-2.9,3.23A2.79,2.79,0,0,0,40,169a2.69,2.69,0,0,0,2.64-1.64l-1.11-.51a1.52,1.52,0,0,1-1.48,1,1.55,1.55,0,0,1-1.61-1.67h4.25Zm-10,2.45c-.64,0-1-.33-1-.84s.36-.81,1.16-.94l1.37-.21v.39a1.46,1.46,0,0,1-1.5,1.6m-.47,1a2,2,0,0,0,2-1.19,9.68,9.68,0,0,0,.1,1h1.46a6.81,6.81,0,0,1-.19-1.87v-1.81c0-1.76-.8-2.52-2.59-2.52-1.56,0-2.58.8-2.68,2.1h1.49a1.07,1.07,0,0,1,1.19-1.07c.78,0,1.13.39,1.13,1.3v.15l-1.29.16a5.16,5.16,0,0,0-2,.55,1.53,1.53,0,0,0-.74,1.37A1.83,1.83,0,0,0,32.26,169m-8.82-1.37v-6.15h1.49c1.68,0,2.58,1.29,2.58,3s-.93,3.11-2.6,3.11Zm-1.56,1.22H25a4,4,0,0,0,4.2-4.33A4,4,0,0,0,25,160.2h-3.1Zm-6.51,1.78a1.72,1.72,0,0,0,1.32-1.87v-1.59H15v1.68h.86v0c0,.57-.13.84-.78,1.09Zm-4.89-2.72c-1,0-1.72-.58-1.72-1.45s.35-1.22,1.25-1.57l.74.22c1,.3,1.41.73,1.41,1.43s-.63,1.37-1.68,1.37m-.07-6.6c.93,0,1.48.46,1.48,1.24s-.3,1.07-1.08,1.4l-.45-.14c-1-.27-1.38-.66-1.38-1.32s.54-1.18,1.43-1.18m1.52,3a1.84,1.84,0,0,0,1.4-1.87c0-1.31-1.14-2.15-2.91-2.15s-2.9.9-2.9,2.26a2,2,0,0,0,1.4,2,2.06,2.06,0,0,0-1.68,2.13c0,1.44,1.28,2.37,3.23,2.37s3.21-1,3.21-2.47a2.25,2.25,0,0,0-1.75-2.29M.41,168.8H6.32v-1.24H2.43A15.55,15.55,0,0,0,4.52,166a4.3,4.3,0,0,0,1.72-3.23c0-1.64-1-2.58-2.84-2.58s-2.94,1-2.94,2.52a2.66,2.66,0,0,0,.08.67l1.51.14a3.46,3.46,0,0,1-.09-.74,1.26,1.26,0,0,1,1.37-1.36c.85,0,1.32.5,1.32,1.43a3.2,3.2,0,0,1-1.29,2.49,22.58,22.58,0,0,1-2.95,2.31Z" transform="translate(0 0)"/><path class="cls-3" d="M80.59,153.23H86.5V152H82.61a14,14,0,0,0,2.09-1.55,4.3,4.3,0,0,0,1.72-3.22c0-1.65-1-2.58-2.84-2.58s-2.94,1-2.94,2.52a2.64,2.64,0,0,0,.08.66l1.51.15a3.53,3.53,0,0,1-.09-.74,1.27,1.27,0,0,1,1.37-1.37c.85,0,1.32.51,1.32,1.43a3.22,3.22,0,0,1-1.29,2.5,22.58,22.58,0,0,1-3,2.31Zm-4-.95c-1,0-1.72-.58-1.72-1.45s.35-1.21,1.25-1.56l.73.22c1,.3,1.42.72,1.42,1.43s-.63,1.36-1.68,1.36m-.07-6.6c.93,0,1.47.46,1.47,1.25S77.73,148,77,148.32l-.45-.13c-1-.28-1.38-.67-1.38-1.32s.54-1.19,1.43-1.19m1.52,3a1.85,1.85,0,0,0,1.4-1.88c0-1.31-1.14-2.14-2.91-2.14s-2.9.89-2.9,2.25a2,2,0,0,0,1.4,2A2.06,2.06,0,0,0,73.38,151c0,1.44,1.28,2.37,3.23,2.37s3.21-1,3.21-2.47a2.24,2.24,0,0,0-1.75-2.29m-11.52,4.58h5.91V152H68.57a14,14,0,0,0,2.09-1.55,4.3,4.3,0,0,0,1.72-3.22c0-1.65-1-2.58-2.84-2.58s-2.94,1-2.94,2.52a2.64,2.64,0,0,0,.08.66l1.51.15a3.53,3.53,0,0,1-.09-.74,1.27,1.27,0,0,1,1.37-1.37c.85,0,1.32.51,1.32,1.43a3.22,3.22,0,0,1-1.29,2.5,22.58,22.58,0,0,1-3,2.31Zm-4.42-1c-1.26,0-1.9-1.18-1.9-3.19s.64-3.21,1.9-3.21S64,147,64,149s-.65,3.19-1.91,3.19m0,1.19c2.2,0,3.43-1.66,3.43-4.38s-1.23-4.4-3.43-4.4-3.42,1.66-3.42,4.4,1.22,4.38,3.42,4.38M52,147.33v2.77H49.4a6.59,6.59,0,0,0,.69-.92l1.33-2a5.58,5.58,0,0,0,.55-1h0c0,.36,0,.54,0,1.11m2.74,3.89V150.1H53.39v-5.29H51.74L48,150.21v1h3.91v2h1.46v-2ZM44.09,149a1.62,1.62,0,0,1,0-3.23c1.2,0,1.63.94,1.72,1.9A1.85,1.85,0,0,1,44.09,149m0-4.38a2.75,2.75,0,0,0-3,2.81,2.56,2.56,0,0,0,2.75,2.72,2.16,2.16,0,0,0,2-1c0,1.87-.51,3.07-1.7,3.07a1.42,1.42,0,0,1-1.48-1.32l-1.44.28a2.61,2.61,0,0,0,2.87,2.23c2.26,0,3.2-1.86,3.2-4.54s-1.08-4.24-3.2-4.24m-8,8.6h1.63V153a10.24,10.24,0,0,1,2.87-7v-1.15H34.86v1.3H39a10.78,10.78,0,0,0-2.94,7Zm-11.27,0h5.91V152H26.84a14,14,0,0,0,2.09-1.55,4.3,4.3,0,0,0,1.72-3.22c0-1.65-1.06-2.58-2.84-2.58s-2.94,1-2.94,2.52a2.64,2.64,0,0,0,.08.66l1.51.15a3,3,0,0,1-.09-.74,1.27,1.27,0,0,1,1.37-1.37c.85,0,1.32.51,1.32,1.43a3.2,3.2,0,0,1-1.3,2.5,21.86,21.86,0,0,1-2.94,2.31Zm-10.16,0h5.91V152H16.68a14,14,0,0,0,2.09-1.55,4.29,4.29,0,0,0,1.71-3.22c0-1.65-1.05-2.58-2.83-2.58s-2.94,1-2.94,2.52a2.64,2.64,0,0,0,.08.66l1.5.15a3.47,3.47,0,0,1-.08-.74,1.27,1.27,0,0,1,1.37-1.37c.85,0,1.32.51,1.32,1.43a3.2,3.2,0,0,1-1.3,2.5,22.51,22.51,0,0,1-2.94,2.31Zm-4-.95c-1,0-1.72-.58-1.72-1.45s.36-1.21,1.25-1.56l.74.22c1,.3,1.42.72,1.42,1.43s-.63,1.36-1.69,1.36m-.07-6.6c.94,0,1.48.46,1.48,1.25S11.8,148,11,148.32l-.45-.13c-1-.28-1.38-.67-1.38-1.32s.55-1.19,1.43-1.19m1.53,3a1.85,1.85,0,0,0,1.39-1.88c0-1.31-1.14-2.14-2.91-2.14s-2.89.89-2.89,2.25a2,2,0,0,0,1.39,2A2.06,2.06,0,0,0,7.45,151c0,1.44,1.27,2.37,3.22,2.37s3.21-1,3.21-2.47a2.24,2.24,0,0,0-1.74-2.29m-5.83.06H4.05v-2.24H2.85v2.24H.59v1H2.85v2.39h1.2v-2.39H6.31Z" transform="translate(0 0)"/><path class="cls-3" d="M327.89,54.22a7.06,7.06,0,0,0-2.36-6.4,17.72,17.72,0,0,1-2.25-3.23c-.26-.4-.51-.88-1-.86-2.57.13-3.83-1.79-5.29-3.34-.8-.86-1-.92-1.47.14A3.28,3.28,0,0,0,316,43.8a1.05,1.05,0,0,0,1.55.26,1.42,1.42,0,0,1,1.53-.05c.56.3.78.74.3,1.31a2.35,2.35,0,0,1-2.57,1c-3.51-.83-4.33-2.75-4-6.19a16.78,16.78,0,0,1,1.56-4.85c.64-1.53.14-2.86-.35-4.19a7.17,7.17,0,0,0-1.37-2.07c-.71-.84-1.47-.65-2,.27-.35.62-1,.29-1.44.09A10,10,0,0,1,304,24.47c-.57-1.28-1.23-2.59-.08-3.95a.69.69,0,0,0-.14-1.09c-.37-.18-.55.3-.69.57a17.38,17.38,0,0,0-2,6.76,1.87,1.87,0,0,0,.52,1.36c.9,1.15,1.56,2.44,2.55,3.58,2.45,2.81,2.82,6.43,3,10a13.66,13.66,0,0,0,.2,1.83c.41,2.12-.54,4-1.09,5.9a14.5,14.5,0,0,1-2.24,5.07c-1,1.3-2.12,2.33-3.9,2.25a2,2,0,0,0-1.31.3A2.4,2.4,0,0,1,296.1,57a4.29,4.29,0,0,0-2.46-.94c-1,0-1.26-1.41-1.76-2.24s-.87-1.78-1.4-2.9a10.25,10.25,0,0,0-1.19,4.44,13.3,13.3,0,0,1-.47,3.67,8.23,8.23,0,0,0,2.1,8,10.7,10.7,0,0,0,5.35,3,5,5,0,0,0,4.36-1.52c.5-.68,2-1,2.48-.44.61.72.16,1.44-.33,2s-.67.7-.41,1.28a.55.55,0,0,1-.19.67c-1.73,1.29-3.29,3.2-5.7,2.72-3-.59-5.87-1.27-8-4-2.58-3.25-3.24-6.94-3.66-10.83a20.59,20.59,0,0,1,1.34-10.59,15.93,15.93,0,0,1,2.25-3.8c1-1.18,1.33-2.73,2.29-4,.58-.74,1.13-1.52,1.66-2.32.93-1.43,3.63-2,5.2-1.37a2.4,2.4,0,0,1,1.6,1.9c.13.9.39,1.79.47,2.69.05.49,0,1.2-.68,1.27a1.08,1.08,0,0,1-1.14-1,4.29,4.29,0,0,0-.14-.73c-.09-.22-.24-.51-.43-.57-.34-.11-.3.31-.43.48-1.66,2.18-1.73,4.06-.25,6.22a1.42,1.42,0,0,0,1.87.69,7.17,7.17,0,0,0,4.66-4.09,21.88,21.88,0,0,0,1.56-6.62,4.6,4.6,0,0,0-1.37-3.73C301.8,33,300,31.89,299,29.89c-.86-1.8-1.43-3.54-.38-5.44a4.08,4.08,0,0,0,.44-1.3c.69-4.79,3.73-8.16,7-11.3A9.26,9.26,0,0,0,308.8,4a3.29,3.29,0,0,0-1-1.86c-.19-.21-.4-.42-.58-.65a.93.93,0,0,1,0-1.26c.43-.44.85-.14,1.21.17A11.5,11.5,0,0,1,310.87,4a9.33,9.33,0,0,1,1.42,2.88c.24,1.49-.53,2.66-1.1,3.88a18.16,18.16,0,0,1-1.68,2.76,13.53,13.53,0,0,0-1.95,5.19,1,1,0,0,0,.54,1.24c.15.07.4.14.43.24.29,1.4,1.32.78,2.08.73,1.36-.07,2.71.2,4.08.09a4.71,4.71,0,0,1,3.69,1.82,12.12,12.12,0,0,1,3.51,7.37c.12,1.45-.63,2.8-.91,4.21-.2,1-.84,1.88-.88,2.92,0,.71,0,1.5,1.07.75.47-.31,1.31-.1,1.38-1s.35-1.9-.27-2.77c-.38-.53-.78-1.22-.15-1.65a1.3,1.3,0,0,1,1.85.49c.78,1.65,1.89,3.25,1.36,5.26a7.56,7.56,0,0,1-.73,1.58c-.25.48-.24,1,.33,1.1.81.16.89.65,1,1.32a3.26,3.26,0,0,0,1.53,2.31c4.36,2.68,6.15,7.05,7.35,11.68a5.83,5.83,0,0,1-1.16,5,15.54,15.54,0,0,1-5.35,5c-1.47.71-3,1.44-4.49,2-.73.29-1.4.7-1.41,1.57A5.07,5.07,0,0,1,321.16,73a11.69,11.69,0,0,1-6.75,4.58c-3,.63-5.83.59-8.13-1.87a6.88,6.88,0,0,0-1.24-.83,1.13,1.13,0,0,1-.62-1.13c.1-.51.65-.6,1.08-.71a.9.9,0,0,1,1.17.46,3.81,3.81,0,0,0,1.08,1.34,4.25,4.25,0,0,0,4.26.83c4.37-1.11,6.73-3.72,7.09-8.17a8.72,8.72,0,0,0-.14-1c0-.71.14-1.33,1-1.53a8.54,8.54,0,0,0,4.49-3.14,14.15,14.15,0,0,0,2.22-3.07,5.11,5.11,0,0,0,.28-3.85c-.14-.41-.7-.86-.26-1.22s.74.48,1.25.5" transform="translate(0 0)"/><path class="cls-3" d="M287.41,166.7c.27-4,.54-8.09,1.1-12.12.35-2.58.56-5.18.81-7.77.15-1.52.23-3,.4-4.56s0-1.55-1.41-1.58c-1.69,0-3.35.77-5.05.1a3.5,3.5,0,0,1-1.95-1.45,10.24,10.24,0,0,0-2.4-2.94,2,2,0,0,1-.43-2.63,25.19,25.19,0,0,0,.85-4.2,27,27,0,0,1,1.5-5.57c1.38-3,3-6,3.31-9.44a5.87,5.87,0,0,0-.07-2.21c-.09-.32-.17-.68.22-.88a.87.87,0,0,1,.93.14,2,2,0,0,1,.71,1.13c.77,2.5-.17,4.74-1,7-.57,1.5-1.56,2.85-1.58,4.55,0,.55-.62.72-.81,1.21a24,24,0,0,0-1.68,9c0,2,2.26,4,4.28,4.14,1.09.07,2.26.67,3.22-.23a10.88,10.88,0,0,0,3-3.7c.72-1.77,1.5-3.49,2.06-5.33a8.25,8.25,0,0,0-.7-6.24c-.3-.61-1.21-1.12-1-1.77.43-1.36.43-2.86,1.26-4.11.93-1.41,2-2.67,3.08-4a4.4,4.4,0,0,1,4.53-1.31c3.31.89,4,4.09,2.72,6.61a4.76,4.76,0,0,0-.47,4.17,4.66,4.66,0,0,0,4.23,2.24,1,1,0,0,0,.55-.27c1.3-1.61,2.88-3,2.74-5.42-.11-1.76.27-3.58-1.66-4.72a.76.76,0,0,1,.07-1.35c.52-.32,1.11-.85,1.58,0,.91,1.65,2.31,3,2.73,5s0,5.29-2.07,6.46a1.61,1.61,0,0,0-.38.31,4.43,4.43,0,0,1-5.08,1.25c-2.77-.91-4.74-2.39-4.87-5.36a6.71,6.71,0,0,1,.95-3.55c1-1.81.13-3.09-1.81-3.54-1.7-.4-2.31.45-3,1.57s-1.23,2-1.86,2.93a5,5,0,0,0-.44,4.19c.26,1,.7,1.94,1,2.95.92,3.52.08,6.7-1.66,9.75a7.17,7.17,0,0,1-1.11,1.64,4.09,4.09,0,0,0-1,5.06c.59,1.5-.1,3.42-.28,5.14-.45,4.24-1.2,8.45-1.47,12.71-.19,3.06-.61,6.11-.58,9.18,0,.85-.39.89-1,.54-1.1-.6-.94-1.65-1-2.64" transform="translate(0 0)"/><path class="cls-3" d="M273.16,206.47c-1.06.05-2.15.32-3-.78-.43-.59-.44-1,.28-1.22a4.72,4.72,0,0,1,1.43-.4c1.45,0,2.55-.92,3.79-1.46a1.1,1.1,0,0,0,.08-1.94,6.92,6.92,0,0,1-1.59-1.74,3.33,3.33,0,0,1,1.21-5,3.4,3.4,0,0,0,1.2-1.06c.16-.23.33-.55.57-.63,2.18-.71,3.5-2.52,5.15-3.91,1.49-1.26,2.18-3,3-4.69.4-.83-.06-1.62-.39-2.38a8.81,8.81,0,0,1-1-4.68,5.79,5.79,0,0,1,3.18-4.51c3.13-1.57,4.46-4.29,5.35-7.39a9.9,9.9,0,0,0,.45-2.82c0-.62.17-1.33,1.06-1.18s1,.56.77,1.36-.12,1.56-.26,2.32a14.77,14.77,0,0,1-6.17,9.13c-2.25,1.67-3,3.65-2.21,6.28.07.25.08.64.31.64,1.32,0,2,1.17,2.91,1.77,1.77,1.12,3.13.43,4.37-1a6.86,6.86,0,0,0,1.75-3.88,3.51,3.51,0,0,1,.22-1c.35-.83.85-1.58,1.83-1.63.63,0,1.63,1.34,1.55,2.14-.13,1.27-.18,2.56-1.17,3.58-.73.76-.87,1.85-1.4,2.76-1.31,2.27-3.44,2.4-5.52,2.09a2,2,0,0,0-2.54,1.31,12.49,12.49,0,0,1-9,6.85,2.92,2.92,0,0,0-2.18,2.32,2.32,2.32,0,0,0,1.45,2.63c.92.48,1.89.87,2.82,1.33.53.27,1.08.61.92,1.31s-.76.57-1.25.55a1.75,1.75,0,0,0-2.07,1.57c-.37,1.64-3.19,3.43-4.86,3.34-.33,0-.66,0-1,0" transform="translate(0 0)"/><path class="cls-3" d="M318.66,146.64c1.72,1.35.95,2.87,1,4.18,0,1.11,0,2.22.1,3.34.13,1.67,0,3.37,0,5.06,0,3.56-.42,7.1,0,10.7a20.18,20.18,0,0,0,1.51,6.29c.76,1.6,1.57,3.12,3.34,3.84.39.16.8.42.56.93s-.66.4-1.15.24c-2.25-.73-3.19-2.57-4.09-4.53a18,18,0,0,1-1.75-7.18c-.06-2.52,0-5-.17-7.55-.22-3.68,0-7.36-.31-11a19.91,19.91,0,0,1,.17-3.35c.05-.59-.06-.91-.78-.9a5.56,5.56,0,0,1-4.55-2.16A12,12,0,0,0,310.6,143c-.62-.5-.79-1-.14-1.67a4.71,4.71,0,0,0,.57-.81c.23-.37.48-.71,1-.56a1.15,1.15,0,0,1,.87,1.08c.3,2.45,1,3,3.32,2.24a13.61,13.61,0,0,0,6.67-4.09c.95-1.18.62-2.72,1.22-4,1-2.16.19-4.33-.19-6.45a30.73,30.73,0,0,1-.27-9.52c.06-.45.22-.72.66-.76a1.17,1.17,0,0,1,1.27,1c.05.69.52,1,.78,1.46a7.44,7.44,0,0,1,.63,4.09c-.08,2.18-.27,4.36-.37,6.54-.13,3.13.07,6.32-1.44,9.24a16.23,16.23,0,0,1-4,5.15,3.14,3.14,0,0,1-2.5.77" transform="translate(0 0)"/><path class="cls-3" d="M287.63,85.35c.29,0,.66-.13.86,0,1.64,1.12,2.6.23,3.62-1,.66-.81,1.82-1,2.75-1.39,2.42-1.16,5-.89,7.56-.88a2.44,2.44,0,0,1,2.32,1.21,1.07,1.07,0,0,1-.06,1.28.73.73,0,0,1-.94.06c-1.72-1.09-3.54-.74-5.29-.28s-3.7.59-5.08,2.14a4.21,4.21,0,0,0-1.12,2.28c-.07.46-.23.79-.72.89s-.58-.27-.8-.58a3.6,3.6,0,0,0-4.79-1.2c-2.07,1-4.47,1.39-6.19,3a15.14,15.14,0,0,0-4.51,7.59c-.46,2.06.77,3.92,1.65,5.75.24.51.72.93.95,1.45a4.06,4.06,0,0,0,2.78,2.3,3.77,3.77,0,0,1,1.87,1.17,1,1,0,0,1,0,1.35c-.39.56-.81.29-1.18.06-1.91-1.21-3.76-2.28-4.93-4.54a53.94,53.94,0,0,1-2.63-5.54,7.25,7.25,0,0,1,.42-6c2.52-5.32,7.06-7.81,12.47-9.13a4.65,4.65,0,0,1,1,0" transform="translate(0 0)"/><path class="cls-3" d="M322.21,197.29c0-.62-.06-1.25,0-1.87A2.27,2.27,0,0,1,324,193c1.76-.46,2.73-2,3.53-3.46.64-1.22,0-3.67-1-4.68-.29-.29-1-.47-.66-1s.93-.37,1.46-.25a2.32,2.32,0,0,1,1.59,1.29,6.15,6.15,0,0,1,.43,4.86,2.7,2.7,0,0,0-.19.59,4.18,4.18,0,0,1-3.31,3.95c-1.19.33-1.56,1.55-1.07,2.8a12.68,12.68,0,0,0,3,4.66,5.63,5.63,0,0,0,5.09.49,2.72,2.72,0,0,1,.66-.33,1.11,1.11,0,0,1,1.39.74c.25.71-.18,1.14-.84,1.24a13.45,13.45,0,0,1-2.82.25c-1-.07-1.41.1-.93,1.12.21.44.35.89,0,1.26a1.08,1.08,0,0,1-1.39.09,41.85,41.85,0,0,1-5.41-3.94c-1.4-1.36-1.24-3.43-1.25-5.31" transform="translate(0 0)"/><path class="cls-3" d="M297.24,207.86c3-.06,5.61-2.13,5.87-4.27s0-2.49-1.88-3.32c-.42-.19-.92-.41-.84-.94s.63-.44,1-.57a1.89,1.89,0,0,1,1.43.25,10.23,10.23,0,0,1,4.06,2.77c.43.51.85,1,1.51,0a1.37,1.37,0,0,1,2.05-.35c.74.7.14,1.4-.39,1.94a3.06,3.06,0,0,1-3.82.2c-1-.63-1.4-.44-1.53.76-.17,1.56-1.48,2.36-2.6,3.1-3.64,2.43-7.47,2.11-11.29.39a2.55,2.55,0,0,1-1.12-3.77,12.17,12.17,0,0,0,1-3.17c.19-.56-.15-1-.63-1.21a5.41,5.41,0,0,0-2.75-.72,25.71,25.71,0,0,1-4.72-.17c-.51-.07-1.08,0-1.05-.75s.61-.78,1.09-.83a5.72,5.72,0,0,1,1.48.14c1.89.3,3.82,0,5.71.38a12.12,12.12,0,0,1,2.54,1,1,1,0,0,1,.57.77,5,5,0,0,1-.75,4.34c-1.06,1.32-.85,2.48.74,3.14a13.9,13.9,0,0,0,4.31.87" transform="translate(0 0)"/><path class="cls-3" d="M317.21,82.79a5.93,5.93,0,0,1,3.15,1.4,1.19,1.19,0,0,0,1.44.38,3.8,3.8,0,0,1,4.43,1.29c.89,1,1.88,1.86,2.86,2.74a5.38,5.38,0,0,1,1.56,6.2,46.23,46.23,0,0,0-1.59,5.09,2.75,2.75,0,0,1-3.29,1.68c-.85-.45-1.08-1.31-.31-1.85,2.43-1.7,2.92-4.42,3.74-6.93.58-1.79-.73-3-2-4a22.91,22.91,0,0,1-2-1.69c-1.14-1.14-2-1-2.93.26-.23.33-.49.61-.88.56a1.52,1.52,0,0,1-1.23-1.26c-.32-1.12-1-1.95-2.18-1.7a4.89,4.89,0,0,1-1.82-.19c-1-.14-.66-.76-.7-1.21-.05-.67.46-.8,1-.81h.69" transform="translate(0 0)"/><path class="cls-3" d="M312.7,194.33a2.89,2.89,0,0,0,4.47,1.68c.19-.15.45-.28.37-.57s-.32-.22-.52-.26l-4.32-.85m-2.82-1.61a3.1,3.1,0,0,1,.63-2c.19-.32.47-.61.92-.47a.74.74,0,0,1,.59.84c-.13,1.32.35,1.59,1.58,1.1.6-.24,1.48-.57,1.63.77.08.67,2.48,1.22,3.3.88,1.15-.48,1-1.6,1-2.47-.08-1.63-.62-3.11-2.4-3.74-.43-.15-.34-.51-.1-.81a1,1,0,0,1,.8-.27,6.43,6.43,0,0,1,4.07,2.56,5.09,5.09,0,0,1-.65,4.69c-.75,1-1.57,1.86-2.35,2.78a5.42,5.42,0,0,1-9-3.83" transform="translate(0 0)"/><path class="cls-3" d="M325.53,94.52c0,.1.1.2.07.24-2.39,4.48-5.25,8.43-10.63,9.59,0,0,0,.07-.11.23,4-.18,6.82-2.28,9.48-5.37a3.56,3.56,0,0,1-1.51,3,11.67,11.67,0,0,1-5.33,3.25c-2.06.55-4.05.73-5.95-.52a11,11,0,0,0-1.49-.65.74.74,0,0,1-.51-.78c.1-.46.57-.35.83-.27,2.69.85,5.06-.1,7.53-1.08a14,14,0,0,0,2.58-1.77A12.43,12.43,0,0,1,314,102a7,7,0,0,0-1.82.4c-.34.09-.67.12-.89-.21s.26-.5.37-.75c.41-1,1.21-.77,2-.83,1.43-.12,2.59-1.06,3.9-1.56a23.44,23.44,0,0,0,7.68-4.5c.08-.06.22,0,.33-.06" transform="translate(0 0)"/><path class="cls-3" d="M310.77,164.8c-3.06,0-4.55-1.09-5.24-4a14.9,14.9,0,0,1-.34-6.64,3.51,3.51,0,0,1,.16-.6c.32-.69.73-1.61,1.54-1.35s.32,1.21.2,1.86a12.86,12.86,0,0,0,.5,7.19c.12.31.31.62.71.6s.39-.26.48-.51,0-.82.53-.52a.9.9,0,0,1,.34,1.11c-.14.38-.95.67-.2,1.2s1.09,0,1.67-.23c1.81-.65,1.64-2.33,2.14-3.66.1-.26,0-.66.41-.69s.46.39.53.7a6.16,6.16,0,0,1-.6,4.14,2.7,2.7,0,0,1-2.83,1.42" transform="translate(0 0)"/><path class="cls-3" d="M325.44,103.1a1.41,1.41,0,0,1,1.19,1.88,8.28,8.28,0,0,0-.6,1.62c-.26,1.5.65,2.41,1.59,3.28,2.08,1.91,1.94,4.44-.33,6.14-.65.49-1.6.8-1.37,2,0,.23-.26.54-.5.38-.85-.58-2.13-.61-2.49-1.83-.21-.7-.34-1.41.82-1.18.33.06.54-.13.79-.29a7.24,7.24,0,0,1,2.09-1.28c.63-.16.75-2,.22-2.7a5.37,5.37,0,0,0-.84-.73,5,5,0,0,1-1.37-6.73.94.94,0,0,1,.8-.51" transform="translate(0 0)"/><path class="cls-3" d="M313.38,62.81c-.15,1.67.17,3.26-1.61,4-.13,0-.09.41-.22.55-.3.34.08,1.26-.68,1.08a1.37,1.37,0,0,1-1.17-1.64,24.7,24.7,0,0,0,.19-3.84,1.16,1.16,0,0,0-.51-1.23c-1.21-.88-1.1-1.49.27-2,.4-.16.51-.5.69-.82.65-1.13,1.41-1.16,2.15-.07a12,12,0,0,1,.89,4.06" transform="translate(0 0)"/><path class="cls-3" d="M311.39,83.35l0,1.37c0,.32-.14.72-.4.69-1.35-.15-1,.8-1.08,1.53a1.07,1.07,0,0,1-.45,1c-.34.17-.59-.19-.86-.37a2,2,0,0,1-.8-2.31,7.4,7.4,0,0,0,.09-2.48,1.74,1.74,0,1,1,3.45-.27l.06.87h0" transform="translate(0 0)"/><path class="cls-3" d="M297.66,99.09c-1.86-.51-3.69-1-5.53-1.49a4.27,4.27,0,0,1-2.53-1.42c-.3-.38-.62-.79-.24-1.2s.76,0,1.05.28a4.64,4.64,0,0,0,1.88.91c.19.07.53.15.6.07,1-1.19,1.58,0,2.3.36.9.51,1.83,1,2.73,1.5.23.13.54.35.47.67s-.51.15-.73.32" transform="translate(0 0)"/><path class="cls-3" d="M291.16,100a6.65,6.65,0,0,1-5.45-5.13c0-.35-.15-.78.32-1s.61.15.85.37a1.74,1.74,0,0,1,.49,1,3.9,3.9,0,0,0,3.85,3.25c.56.06,1,.29,1,.85s-.45.75-1.1.66" transform="translate(0 0)"/><path class="cls-3" d="M315,109a6.1,6.1,0,0,1-.93-.17c-.37-.15-1-.22-.95-.65s.65-.32,1-.39a17.55,17.55,0,0,0,6.65-2.88c.23-.16.45-.36.69-.51s.38-.24.57-.07.06.46-.1.64a16.76,16.76,0,0,1-6.95,4" transform="translate(0 0)"/></g></g></g></svg>