<svg xmlns="http://www.w3.org/2000/svg" xmlns:xlink="http://www.w3.org/1999/xlink" viewBox="0 0 1166 2208"><defs><style>.cls-1,.cls-5{fill:none;}.cls-2{fill:#e6321e;}.cls-3{clip-path:url(#clip-path);}.cls-4{fill:#f0e6d2;}.cls-5{stroke:#f0e6d2;stroke-width:2.96px;}</style><clipPath id="clip-path" transform="translate(-0.41)"><rect class="cls-1" width="1166.2" height="2208"/></clipPath></defs><g id="레이어_2" data-name="레이어 2"><g id="레이어_1-2" data-name="레이어 1"><rect class="cls-2" width="1166" height="2208"/><g class="cls-3"><path class="cls-4" d="M352,2129.73v15.69h3.77v-9.07c0-2.51,1.1-4,3-4,1.66,0,2.54,1.13,2.54,3.29v9.76H365v-9.16c0-2.51,1.07-3.89,3-3.89,1.73,0,2.58,1.09,2.58,3.39v9.66h3.77v-10.26c0-3.71-1.79-5.84-4.81-5.84a5.14,5.14,0,0,0-4.9,3.2,4.38,4.38,0,0,0-4.45-3.2,4.71,4.71,0,0,0-4.65,3.2v-2.79ZM340.24,2143c-2.41,0-3.86-1.83-3.86-5.41s1.45-5.33,3.86-5.33,3.83,1.76,3.83,5.33-1.41,5.41-3.83,5.41m0,2.85c4.52,0,7.69-3,7.69-8.26s-3.17-8.19-7.69-8.19-7.69,3-7.69,8.19,3.17,8.26,7.69,8.26m-17.39,0c3.73,0,6.37-2.13,6.94-5.62l-3.55-.72c-.35,2.2-1.51,3.36-3.39,3.36-2.42,0-3.83-2-3.83-5.34,0-3.23,1.44-5.18,3.77-5.18,1.85,0,3.07,1.16,3.32,3.3l3.68-.6c-.48-3.58-3-5.65-6.91-5.65-4.77,0-7.72,3.11-7.72,8.23s3,8.22,7.69,8.22M312,2141.06h-4.46v4.36H312Zm-11.18-7.53v-3.8h-3.51v15.69h3.77v-6.56c0-1.75.15-3.55,1.41-4.77a4.47,4.47,0,0,1,3.26-1.1h.5v-3.61a2.08,2.08,0,0,0-.43,0c-2.55,0-4.21,1.69-5,4.18M289.42,2136H282.1c.06-2.61,1.42-4.18,3.8-4.18s3.52,1.35,3.52,3.92Zm3.7.75c0-4.8-2.6-7.44-7.16-7.44s-7.5,3.2-7.5,8.38,2.89,8.07,7.69,8.07a7,7,0,0,0,6.85-4.24l-2.89-1.32a4,4,0,0,1-3.83,2.61,4,4,0,0,1-4.18-4.34h11Zm-18.84-14.13h-3.76v22.76h3.76Zm-9.41,0H261.1v22.76h3.77ZM253,2136h-7.31c.06-2.61,1.41-4.18,3.8-4.18,2.23,0,3.51,1.35,3.51,3.92Zm3.71.75c0-4.8-2.61-7.44-7.16-7.44s-7.5,3.2-7.5,8.38,2.89,8.07,7.69,8.07a7,7,0,0,0,6.84-4.24l-2.89-1.32a3.94,3.94,0,0,1-3.82,2.61,4,4,0,0,1-4.18-4.34h11Zm-23.86,9c4.08,0,6.46-1.88,6.46-5,0-2.61-1.28-4.24-4.52-4.65l-2.63-.37c-1.67-.19-2.39-.82-2.39-1.89s1-1.85,2.8-1.85a4.42,4.42,0,0,1,4.2,2.67l2.61-1.41c-.79-2.45-3.33-4-6.72-4-4,0-6.37,1.85-6.37,4.77,0,2.54,1.5,4.27,4.77,4.68l2.39.32c1.72.22,2.38.75,2.38,2s-1,1.92-2.89,1.92a4.48,4.48,0,0,1-4.55-3l-2.79,1.25c1,2.95,3.64,4.55,7.25,4.55m-18.43-2.88c-2.29,0-3.7-2-3.7-5.38s1.38-5.3,3.67-5.3,3.64,1.79,3.64,4.87v1c0,2.95-1.41,4.81-3.61,4.81m-1.29,2.88a5.22,5.22,0,0,0,5-3.2v2.82h3.54v-22.76H218v9.3a4.71,4.71,0,0,0-4.52-2.61c-3.93,0-6.63,3.36-6.63,8.26s2.55,8.19,6.34,8.19m-17.51-2.66c-1.67,0-2.67-.85-2.67-2.17s.94-2.11,3-2.45l3.55-.53v1a3.8,3.8,0,0,1-3.89,4.15m-1.23,2.66c2.55,0,4.52-1.16,5.28-3.07a20.74,20.74,0,0,0,.25,2.69h3.77a18.53,18.53,0,0,1-.48-4.86v-4.68c0-4.55-2.07-6.53-6.72-6.53-4.05,0-6.68,2.07-6.93,5.43h3.86a2.75,2.75,0,0,1,3.07-2.76c2,0,2.93,1,2.93,3.36v.4l-3.33.41a13.92,13.92,0,0,0-5.12,1.42,4,4,0,0,0-1.91,3.55c0,2.79,2.13,4.64,5.33,4.64M185,2122.66H181.2v22.76H185Zm-16.51,20.48c-1.66,0-2.67-.85-2.67-2.17s.94-2.11,3-2.45l3.54-.53v1a3.8,3.8,0,0,1-3.89,4.15m-1.22,2.66c2.54,0,4.52-1.16,5.27-3.07a22.66,22.66,0,0,0,.25,2.69h3.77a19.06,19.06,0,0,1-.47-4.86v-4.68c0-4.55-2.07-6.53-6.72-6.53-4.05,0-6.69,2.07-6.94,5.43h3.86a2.76,2.76,0,0,1,3.08-2.76c2,0,2.92,1,2.92,3.36v.4l-3.33.41a14,14,0,0,0-5.12,1.42,4,4,0,0,0-1.91,3.55c0,2.79,2.13,4.64,5.34,4.64m-14.54,0c4.08,0,6.47-1.88,6.47-5,0-2.61-1.29-4.24-4.52-4.65l-2.64-.37c-1.66-.19-2.39-.82-2.39-1.89s1-1.85,2.8-1.85a4.45,4.45,0,0,1,4.21,2.67l2.6-1.41c-.78-2.45-3.32-4-6.72-4-4,0-6.37,1.85-6.37,4.77,0,2.54,1.51,4.27,4.77,4.68l2.39.32c1.73.22,2.39.75,2.39,2s-1,1.92-2.89,1.92a4.5,4.5,0,0,1-4.56-3l-2.79,1.25c1,2.95,3.64,4.55,7.25,4.55m-12.37-4.74h-4.45v4.36h4.45Zm-24.14,4.36H120l2.73-10.35c.1-.48.22-1.14.28-1.54h.07a11,11,0,0,0,.28,1.54l2.7,10.35h3.83l4.33-15.69h-3.7l-2.45,10.45c-.1.51-.19,1.1-.28,1.7h-.07c-.06-.6-.21-1.19-.31-1.7l-2.61-10.45h-3.54l-2.58,10.45c-.12.51-.25,1.1-.34,1.7h-.06c-.07-.6-.19-1.19-.29-1.7l-2.41-10.45h-3.71Zm-24.48,0h3.82l2.74-10.35c.09-.48.22-1.14.28-1.54h.06a11,11,0,0,0,.28,1.54l2.71,10.35h3.82l4.34-15.69h-3.71l-2.45,10.45c-.09.51-.19,1.1-.28,1.7h-.06c-.07-.6-.22-1.19-.31-1.7l-2.61-10.45H96.79l-2.57,10.45c-.13.51-.25,1.1-.35,1.7h-.06c-.06-.6-.19-1.19-.28-1.7l-2.42-10.45h-3.7Zm-24.49,0h3.83l2.73-10.35c.09-.48.22-1.14.28-1.54h.07a9.71,9.71,0,0,0,.28,1.54l2.7,10.35h3.83l4.33-15.69H81.56l-2.44,10.45c-.1.51-.19,1.1-.29,1.7h-.06c-.06-.6-.22-1.19-.31-1.7l-2.61-10.45H72.3l-2.57,10.45c-.13.51-.25,1.1-.34,1.7h-.07c-.06-.6-.19-1.19-.28-1.7l-2.42-10.45h-3.7Z" transform="translate(-0.41)"/><path class="cls-4" d="M428.86,2079.21c-1.66,0-2.66-.85-2.66-2.17s.94-2.1,3-2.45l3.55-.53v1a3.8,3.8,0,0,1-3.9,4.15m-1.22,2.66c2.54,0,4.52-1.16,5.28-3.07a21.07,21.07,0,0,0,.25,2.7h3.76a19.15,19.15,0,0,1-.47-4.87V2072c0-4.55-2.07-6.53-6.72-6.53-4.05,0-6.69,2.07-6.93,5.43h3.86a2.75,2.75,0,0,1,3.07-2.76c2,0,2.92,1,2.92,3.36v.41l-3.32.41a13.75,13.75,0,0,0-5.12,1.41,4,4,0,0,0-1.92,3.55c0,2.79,2.14,4.64,5.34,4.64m-11.8-9.76h-7.32c.06-2.61,1.41-4.17,3.8-4.17,2.23,0,3.52,1.35,3.52,3.92Zm3.7.75c0-4.8-2.6-7.44-7.16-7.44s-7.5,3.21-7.5,8.38,2.89,8.07,7.69,8.07a7,7,0,0,0,6.85-4.23l-2.89-1.32a4,4,0,0,1-3.83,2.61,4,4,0,0,1-4.18-4.34h11Zm-21.85-3.26v-3.8h-3.51v15.7h3.76v-6.56c0-1.76.16-3.55,1.42-4.78a4.47,4.47,0,0,1,3.26-1.1h.5v-3.61a2.08,2.08,0,0,0-.43,0c-2.55,0-4.21,1.7-5,4.18M382.44,2079c-2.42,0-3.87-1.82-3.87-5.4s1.45-5.34,3.87-5.34,3.83,1.76,3.83,5.34-1.42,5.4-3.83,5.4m0,2.85c4.52,0,7.68-3,7.68-8.25s-3.16-8.2-7.68-8.2-7.69,2.95-7.69,8.2,3.17,8.25,7.69,8.25m-13.32-.37h4.68l-8.6-13.28,0,0,8-9H368.4l-8.91,10.42v-10.42h-4.06v22.29h4.06v-7.1l3-3.36Zm-30.54,4.61c2.54-.91,3.42-2.32,3.42-4.86v-4.12h-4.46v4.37h2.23v.09c0,1.48-.34,2.17-2,2.83Zm-6-27.37h-3.77v22.76h3.77Zm-17.73,23.13a5.19,5.19,0,0,0,4.89-3.29v2.92h3.58v-15.7h-3.8v8.7c0,2.63-1.38,4.36-3.45,4.36-1.82,0-2.76-1.25-2.76-3.54v-9.52h-3.77v10.08c0,3.67,1.47,6,5.31,6M298.15,2079c-2.42,0-3.87-1.82-3.87-5.4s1.45-5.34,3.87-5.34,3.83,1.76,3.83,5.34-1.42,5.4-3.83,5.4m0,2.85c4.52,0,7.68-3,7.68-8.25s-3.16-8.2-7.68-8.2-7.7,2.95-7.7,8.2,3.18,8.25,7.7,8.25m-14.38-9.76h-7.32c.06-2.61,1.41-4.17,3.8-4.17,2.23,0,3.52,1.35,3.52,3.92Zm3.7.75c0-4.8-2.6-7.44-7.15-7.44s-7.51,3.21-7.51,8.38,2.89,8.07,7.69,8.07a7,7,0,0,0,6.85-4.23l-2.89-1.32a4,4,0,0,1-3.83,2.61,4,4,0,0,1-4.18-4.34h11ZM261.61,2082c5.68,0,8.56-3,8.56-6.85s-2.44-5.65-6.12-6.43l-3.23-.69c-2.45-.54-3.45-1.48-3.45-3.3s1.63-3,4.05-3a5.23,5.23,0,0,1,5.52,4.05l3.23-1.7c-1-3.7-4.33-5.43-8.56-5.43-5,0-8.17,2.54-8.17,6.41s2.33,5.68,5.84,6.4l3.11.66c2.45.5,3.77,1.26,3.77,3.42,0,2.32-2.14,3.23-4.43,3.23a5.88,5.88,0,0,1-6-4.51l-3.45,1.5c.91,3.64,4.08,6.25,9.36,6.25m-23.93,4.08c2.55-.91,3.42-2.32,3.42-4.86v-4.12h-4.45v4.37h2.23v.09c0,1.48-.35,2.17-2,2.83Zm-14.34-4.24a5.18,5.18,0,0,0,4.89-3.29v2.92h3.58v-15.7H228v8.7c0,2.63-1.38,4.36-3.45,4.36-1.82,0-2.76-1.25-2.76-3.54v-9.52H218v10.08c0,3.67,1.48,6,5.31,6m-14.19-.5c1.82,0,2.73.66,2.73,1.92s-1.16,2.26-4.71,2.26c-2.73,0-4.52-.63-4.52-2.3a2.25,2.25,0,0,1,1.16-2c.38,0,.82.06,1.26.06Zm-2-7.6a2.83,2.83,0,0,1-2.89-3.07,2.89,2.89,0,1,1,5.78,0,2.82,2.82,0,0,1-2.89,3m7-7.84a5.79,5.79,0,0,1,1.26.15v-2.82a3.53,3.53,0,0,0-.85-.1,4,4,0,0,0-4.14,2.89,8.13,8.13,0,0,0-3.3-.63c-4,0-6.47,2.17-6.47,5.28a5,5,0,0,0,1.92,4,3.46,3.46,0,0,0-2.45,3.33,2.89,2.89,0,0,0,2,2.83c-1.7.57-2.61,1.69-2.61,3.08,0,2.22,2,4.05,7.35,4.05,5.68,0,8.38-2.11,8.38-5.34,0-2.92-1.88-4.52-5.55-4.52h-4.09c-1.76,0-2.42-.6-2.42-1.45a1.31,1.31,0,0,1,.79-1.19,8.23,8.23,0,0,0,3.17.56c4,0,6.44-2.26,6.44-5.36a4.87,4.87,0,0,0-1.67-3.77,2.6,2.6,0,0,1,2.26-1m-26.84,8.5H197v-3.32h-9.64Zm-17.92,7.07h3.76v-8.32c0-3,1.32-4.74,3.52-4.74,2,0,2.92,1.22,2.92,3.7v9.36h3.8v-9.73c0-4.21-1.79-6.38-5.22-6.38a5.37,5.37,0,0,0-5.21,3.45v-3h-3.57Zm-12.6-2.29c-1.66,0-2.66-.85-2.66-2.17s.94-2.1,3-2.45l3.55-.53v1a3.8,3.8,0,0,1-3.9,4.15m-1.22,2.66c2.55,0,4.52-1.16,5.28-3.07a21.07,21.07,0,0,0,.25,2.7h3.77a18.62,18.62,0,0,1-.48-4.87V2072c0-4.55-2.07-6.53-6.72-6.53-4.05,0-6.68,2.07-6.93,5.43h3.86a2.75,2.75,0,0,1,3.07-2.76c2,0,2.92,1,2.92,3.36v.41l-3.32.41a13.81,13.81,0,0,0-5.12,1.41,4,4,0,0,0-1.92,3.55c0,2.79,2.14,4.64,5.34,4.64m-14.53,0c4.08,0,6.46-1.89,6.46-5,0-2.6-1.28-4.24-4.52-4.64l-2.63-.38c-1.67-.19-2.39-.82-2.39-1.88,0-1.23,1-1.86,2.79-1.86a4.43,4.43,0,0,1,4.21,2.67l2.6-1.41c-.78-2.45-3.32-4-6.71-4-4,0-6.37,1.86-6.37,4.78,0,2.54,1.5,4.27,4.77,4.67l2.38.32c1.73.22,2.39.75,2.39,2s-1,1.91-2.89,1.91a4.47,4.47,0,0,1-4.55-3l-2.79,1.25c1,3,3.64,4.56,7.25,4.56m-14.63-.51c1.82,0,2.73.66,2.73,1.92s-1.16,2.26-4.71,2.26c-2.73,0-4.52-.63-4.52-2.3a2.25,2.25,0,0,1,1.16-2c.38,0,.82.06,1.26.06Zm-2-7.6a2.83,2.83,0,0,1-2.89-3.07,2.89,2.89,0,1,1,5.78,0,2.82,2.82,0,0,1-2.89,3m7-7.84a5.79,5.79,0,0,1,1.26.15v-2.82a3.53,3.53,0,0,0-.85-.1,4,4,0,0,0-4.14,2.89,8.09,8.09,0,0,0-3.3-.63c-4,0-6.47,2.17-6.47,5.28a5,5,0,0,0,1.92,4,3.46,3.46,0,0,0-2.45,3.33,2.89,2.89,0,0,0,2,2.83c-1.7.57-2.61,1.69-2.61,3.08,0,2.22,2,4.05,7.35,4.05,5.68,0,8.38-2.11,8.38-5.34,0-2.92-1.88-4.52-5.56-4.52h-4.08c-1.76,0-2.42-.6-2.42-1.45a1.31,1.31,0,0,1,.79-1.19,8.23,8.23,0,0,0,3.17.56c4,0,6.44-2.26,6.44-5.36a4.87,4.87,0,0,0-1.67-3.77,2.61,2.61,0,0,1,2.26-1M99.59,2081.5h3.76v-8.32c0-3,1.32-4.74,3.52-4.74,2,0,2.92,1.22,2.92,3.7v9.36h3.8v-9.73c0-4.21-1.79-6.38-5.22-6.38a5.35,5.35,0,0,0-5.2,3.45v-3H99.59ZM87.85,2079c-2.42,0-3.87-1.82-3.87-5.4s1.45-5.34,3.87-5.34,3.82,1.76,3.82,5.34-1.41,5.4-3.82,5.4m0,2.85c4.51,0,7.68-3,7.68-8.25s-3.17-8.2-7.68-8.2-7.69,2.95-7.69,8.2,3.16,8.25,7.69,8.25m-18.15-.37h4.11V2073l7.51-13.78h-4.4l-4.55,8.88a7.37,7.37,0,0,0-.57,1.45h-.06a5.38,5.38,0,0,0-.6-1.45l-4.55-8.88H62.2L69.7,2073Z" transform="translate(-0.41)"/><path class="cls-4" d="M411.41,2045.75c2.54-.91,3.42-2.32,3.42-4.87v-4.11h-4.45v4.37h2.22v.09c0,1.48-.34,2.17-2,2.83Zm-6-27.38h-3.76v22.77h3.76Zm-13,22.77h3.76v-15.7h-3.76Zm-.19-18.31h4.08v-3.92h-4.08ZM382.75,2041c1.82,0,2.73.66,2.73,1.91s-1.16,2.27-4.71,2.27c-2.73,0-4.52-.63-4.52-2.3a2.27,2.27,0,0,1,1.16-2,12.26,12.26,0,0,0,1.26.07Zm-2-7.6a2.84,2.84,0,0,1-2.89-3.08,2.89,2.89,0,1,1,5.78,0,2.83,2.83,0,0,1-2.89,3m7-7.85a5.72,5.72,0,0,1,1.26.16v-2.83a4.09,4.09,0,0,0-.85-.09,4,4,0,0,0-4.14,2.89,8.09,8.09,0,0,0-3.3-.63c-4,0-6.47,2.17-6.47,5.27a5,5,0,0,0,1.92,4,3.47,3.47,0,0,0-2.45,3.33,2.89,2.89,0,0,0,2,2.83,3.29,3.29,0,0,0-2.61,3.07c0,2.23,2,4.05,7.35,4.05,5.68,0,8.38-2.1,8.38-5.33,0-2.92-1.88-4.53-5.55-4.53h-4.09c-1.75,0-2.41-.59-2.41-1.44a1.29,1.29,0,0,1,.78-1.19,8.23,8.23,0,0,0,3.17.56c4,0,6.44-2.26,6.44-5.37a4.86,4.86,0,0,0-1.67-3.76,2.61,2.61,0,0,1,2.26-1m-28.09,8.51h9.64v-3.32h-9.64Zm-11.21,7.53c4.9,0,8-3.1,8-7.81s-2.57-7.57-6.78-7.57a5.53,5.53,0,0,0-5,2.54l.72-6.27h10v-3.17H342.53L341.22,2032l3.54.34a3.83,3.83,0,0,1,3.9-3.17c2.57,0,3.95,1.92,3.95,4.78s-1.51,4.52-4.05,4.52a3.81,3.81,0,0,1-3.89-3.33l-3.86.53c.6,3.65,3.52,5.93,7.69,5.93M322,2038.66c-2.41,0-3.86-1.83-3.86-5.41s1.45-5.33,3.86-5.33,3.83,1.76,3.83,5.33-1.41,5.41-3.83,5.41m0,2.85c4.52,0,7.69-3,7.69-8.26s-3.17-8.19-7.69-8.19-7.69,3-7.69,8.19,3.17,8.26,7.69,8.26m-14.88-12.27v-3.8h-3.51v15.7h3.76v-6.57c0-1.76.16-3.54,1.42-4.77a4.49,4.49,0,0,1,3.26-1.1h.5v-3.61a2.08,2.08,0,0,0-.43,0c-2.55,0-4.21,1.7-5,4.18m-18.74,4.83H298v-3.32h-9.64Zm-19.18,7.07h3.77v-8.32c0-3,1.32-4.75,3.51-4.75,2,0,2.92,1.23,2.92,3.71v9.36h3.8v-9.74c0-4.21-1.79-6.37-5.21-6.37a5.36,5.36,0,0,0-5.21,3.45v-3h-3.58Zm-12.59-2.29c-1.66,0-2.67-.85-2.67-2.17s.94-2.11,3-2.45l3.55-.54v1a3.8,3.8,0,0,1-3.9,4.15m-1.22,2.66c2.54,0,4.52-1.16,5.27-3.07a23,23,0,0,0,.25,2.7h3.77a19.26,19.26,0,0,1-.47-4.87v-4.68c0-4.55-2.07-6.53-6.72-6.53-4,0-6.69,2.07-6.94,5.43h3.86a2.76,2.76,0,0,1,3.08-2.76c2,0,2.92,1,2.92,3.36v.4l-3.33.42a13.81,13.81,0,0,0-5.12,1.41,4,4,0,0,0-1.91,3.55c0,2.79,2.13,4.64,5.34,4.64m-25-.37h3.83l2.73-10.36c.09-.48.22-1.14.28-1.54h.06a9.8,9.8,0,0,0,.29,1.54l2.7,10.36h3.82l4.34-15.7h-3.71l-2.45,10.45c-.09.51-.18,1.1-.28,1.7h-.06c-.06-.6-.22-1.19-.31-1.7L239,2025.44h-3.55l-2.57,10.45c-.13.51-.25,1.1-.35,1.7h-.06c-.06-.6-.19-1.19-.28-1.7l-2.42-10.45H226Zm-11.81-.13c1.83,0,2.74.66,2.74,1.91s-1.16,2.27-4.71,2.27c-2.73,0-4.52-.63-4.52-2.3a2.25,2.25,0,0,1,1.16-2,11.9,11.9,0,0,0,1.25.07Zm-2-7.6a2.84,2.84,0,0,1-2.89-3.08,2.89,2.89,0,1,1,5.77,0,2.83,2.83,0,0,1-2.88,3m7-7.85a5.63,5.63,0,0,1,1.25.16v-2.83a4.36,4.36,0,0,0-5,2.8,8.08,8.08,0,0,0-3.29-.63c-4,0-6.47,2.17-6.47,5.27a5,5,0,0,0,1.91,4,3.46,3.46,0,0,0-2.44,3.33,2.88,2.88,0,0,0,2,2.83,3.29,3.29,0,0,0-2.6,3.07c0,2.23,2,4.05,7.34,4.05,5.69,0,8.38-2.1,8.38-5.33,0-2.92-1.88-4.53-5.55-4.53H215c-1.76,0-2.42-.59-2.42-1.44a1.31,1.31,0,0,1,.78-1.19,8.28,8.28,0,0,0,3.18.56c4,0,6.43-2.26,6.43-5.37a4.89,4.89,0,0,0-1.66-3.76,2.59,2.59,0,0,1,2.26-1m-25.24,13.29c-1.67,0-2.67-.85-2.67-2.17s.94-2.11,3-2.45l3.55-.54v1a3.8,3.8,0,0,1-3.89,4.15m-1.23,2.66c2.55,0,4.53-1.16,5.28-3.07a23,23,0,0,0,.25,2.7h3.77a18.8,18.8,0,0,1-.47-4.87v-4.68c0-4.55-2.08-6.53-6.72-6.53-4.06,0-6.69,2.07-6.94,5.43h3.86a2.75,2.75,0,0,1,3.08-2.76c2,0,2.92,1,2.92,3.36v.4l-3.33.42a13.81,13.81,0,0,0-5.12,1.41,4,4,0,0,0-1.92,3.55c0,2.79,2.14,4.64,5.34,4.64m-14.53,0c4.08,0,6.46-1.88,6.46-5,0-2.6-1.28-4.24-4.52-4.64l-2.63-.38c-1.67-.19-2.39-.82-2.39-1.89,0-1.22,1-1.85,2.79-1.85a4.43,4.43,0,0,1,4.21,2.67l2.61-1.41c-.79-2.45-3.33-4-6.72-4-4,0-6.37,1.85-6.37,4.77,0,2.54,1.5,4.27,4.77,4.68l2.39.32c1.72.22,2.38.75,2.38,2s-1,1.92-2.89,1.92a4.48,4.48,0,0,1-4.55-3l-2.79,1.25c1,3,3.64,4.55,7.25,4.55m-13.47-9.76H161.8c.07-2.61,1.42-4.18,3.8-4.18s3.52,1.35,3.52,3.92Zm3.71.75c0-4.8-2.61-7.44-7.16-7.44s-7.5,3.2-7.5,8.38,2.88,8.07,7.69,8.07a7,7,0,0,0,6.84-4.24l-2.89-1.32a3.94,3.94,0,0,1-3.83,2.61,4,4,0,0,1-4.18-4.33h11ZM147,2038.85c-1.67,0-2.67-.85-2.67-2.17s.94-2.11,3-2.45l3.54-.54v1a3.8,3.8,0,0,1-3.89,4.15m-1.22,2.66c2.54,0,4.52-1.16,5.27-3.07a23,23,0,0,0,.25,2.7h3.77a19.26,19.26,0,0,1-.47-4.87v-4.68c0-4.55-2.07-6.53-6.72-6.53-4.05,0-6.69,2.07-6.94,5.43h3.86a2.76,2.76,0,0,1,3.08-2.76c2,0,2.92,1,2.92,3.36v.4l-3.33.42a13.81,13.81,0,0,0-5.12,1.41,4,4,0,0,0-1.91,3.55c0,2.79,2.13,4.64,5.34,4.64M122.94,2038V2022h3.86c4.37,0,6.69,3.35,6.69,7.88s-2.42,8.06-6.75,8.06Zm-4,3.18h8c6.62,0,10.86-4.65,10.86-11.24s-4.27-11.05-10.8-11.05h-8ZM102,2045.75c2.55-.91,3.42-2.32,3.42-4.87v-4.11H101v4.37h2.23v.09c0,1.48-.35,2.17-2,2.83Zm-12.68-7.06c-2.67,0-4.46-1.51-4.46-3.77,0-2,.91-3.14,3.24-4.05l1.91.57c2.58.78,3.67,1.88,3.67,3.7,0,2.2-1.63,3.55-4.36,3.55m-.19-17.11c2.42,0,3.84,1.19,3.84,3.23,0,1.7-.76,2.76-2.8,3.61l-1.16-.34c-2.51-.73-3.58-1.73-3.58-3.43,0-1.91,1.41-3.07,3.7-3.07m4,7.69a4.79,4.79,0,0,0,3.61-4.87c0-3.39-3-5.55-7.53-5.55s-7.51,2.32-7.51,5.83c0,2.49,1.1,4.15,3.61,5.25-2.92.88-4.33,2.67-4.33,5.52,0,3.74,3.3,6.15,8.35,6.15s8.32-2.54,8.32-6.4c0-3-1.35-4.77-4.52-5.93m-29.86,11.87H78.58v-3.24H68.51a37.71,37.71,0,0,0,5.4-4c3-2.76,4.46-5.33,4.46-8.35,0-4.27-2.73-6.68-7.35-6.68s-7.63,2.54-7.63,6.52a6.67,6.67,0,0,0,.22,1.73l3.89.38a8.76,8.76,0,0,1-.22-1.92,3.28,3.28,0,0,1,3.55-3.54c2.2,0,3.43,1.31,3.43,3.7s-.88,4.15-3.37,6.47a56.35,56.35,0,0,1-7.63,6Z" transform="translate(-0.41)"/><path class="cls-4" d="M271.05,2000.77h15.33v-3.23H276.3a37.71,37.71,0,0,0,5.4-4c3-2.76,4.46-5.34,4.46-8.35,0-4.27-2.74-6.69-7.35-6.69s-7.63,2.55-7.63,6.53a6.73,6.73,0,0,0,.22,1.73l3.89.37a8.68,8.68,0,0,1-.22-1.91,3.28,3.28,0,0,1,3.55-3.55c2.2,0,3.42,1.32,3.42,3.71s-.87,4.14-3.35,6.47a57.88,57.88,0,0,1-7.64,6Zm-10.29-2.45c-2.67,0-4.46-1.5-4.46-3.76,0-2,.91-3.14,3.23-4l1.92.56c2.57.79,3.67,1.89,3.67,3.71,0,2.19-1.63,3.54-4.36,3.54m-.19-17.1c2.42,0,3.83,1.19,3.83,3.23,0,1.69-.75,2.76-2.79,3.61l-1.16-.35c-2.52-.72-3.59-1.72-3.59-3.42,0-1.91,1.42-3.07,3.71-3.07m3.95,7.69a4.8,4.8,0,0,0,3.62-4.87c0-3.39-2.95-5.56-7.54-5.56s-7.5,2.32-7.5,5.84c0,2.48,1.1,4.15,3.61,5.25-2.92.88-4.33,2.66-4.33,5.52,0,3.74,3.29,6.15,8.35,6.15s8.31-2.54,8.31-6.4c0-2.95-1.34-4.77-4.52-5.93m-29.85,11.86H250v-3.23H239.91a37.16,37.16,0,0,0,5.4-4c3.05-2.76,4.46-5.34,4.46-8.35,0-4.27-2.73-6.69-7.35-6.69s-7.63,2.55-7.63,6.53a6.73,6.73,0,0,0,.22,1.73l3.9.37a8.68,8.68,0,0,1-.22-1.91,3.28,3.28,0,0,1,3.54-3.55c2.21,0,3.43,1.32,3.43,3.71s-.88,4.14-3.36,6.47a57.81,57.81,0,0,1-7.63,6Zm-11.46-2.6c-3.27,0-4.93-3.08-4.93-8.29s1.66-8.32,4.93-8.32,5,3.08,5,8.32-1.7,8.29-5,8.29m0,3.07c5.71,0,8.88-4.3,8.88-11.36s-3.17-11.4-8.88-11.4-8.86,4.3-8.86,11.4,3.15,11.36,8.86,11.36m-26.34-15.76v7.19h-6.65a19.1,19.1,0,0,0,1.79-2.39l3.45-5.14a13.25,13.25,0,0,0,1.41-2.54h.07c-.07.94-.07,1.41-.07,2.88m7.1,10.08v-2.89h-3.42V1979h-4.27l-9.64,14v2.61h10.14v5.21h3.77v-5.21Zm-27.5-5.71a4.2,4.2,0,0,1,0-8.39c3.11,0,4.24,2.45,4.46,4.93a4.8,4.8,0,0,1-4.49,3.46m0-11.37c-4.74,0-7.72,3.08-7.72,7.29,0,4.45,2.95,7.06,7.12,7.06a5.61,5.61,0,0,0,5.12-2.64c0,4.87-1.32,8-4.4,8-2.29,0-3.42-1.35-3.83-3.43l-3.73.72c.66,3.74,3.26,5.78,7.44,5.78,5.84,0,8.29-4.83,8.29-11.77,0-7.25-2.8-11-8.29-11m-20.75,22.29H160v-.66a26.51,26.51,0,0,1,7.44-18.17v-3H152.54v3.36h10.8c-4.8,5.53-7.62,11.74-7.62,18.12Zm-29.2,0h15.32v-3.23H131.76a37.16,37.16,0,0,0,5.4-4c3.05-2.76,4.46-5.34,4.46-8.35,0-4.27-2.73-6.69-7.34-6.69s-7.64,2.55-7.64,6.53a6.76,6.76,0,0,0,.23,1.73l3.89.37a8.68,8.68,0,0,1-.22-1.91,3.28,3.28,0,0,1,3.55-3.55c2.19,0,3.42,1.32,3.42,3.71s-.88,4.14-3.36,6.47a57.81,57.81,0,0,1-7.63,6Zm-26.34,0H115.5v-3.23H105.42a37.28,37.28,0,0,0,5.41-4c3-2.76,4.45-5.34,4.45-8.35,0-4.27-2.73-6.69-7.34-6.69s-7.63,2.55-7.63,6.53a7.16,7.16,0,0,0,.21,1.73l3.9.37a8.68,8.68,0,0,1-.22-1.91,3.28,3.28,0,0,1,3.55-3.55c2.2,0,3.42,1.32,3.42,3.71s-.88,4.14-3.36,6.47a57.81,57.81,0,0,1-7.63,6Zm-10.29-2.45c-2.67,0-4.46-1.5-4.46-3.76,0-2,.91-3.14,3.23-4l1.92.56c2.57.79,3.67,1.89,3.67,3.71,0,2.19-1.63,3.54-4.36,3.54m-.19-17.1c2.42,0,3.83,1.19,3.83,3.23,0,1.69-.76,2.76-2.8,3.61l-1.16-.35C87.06,1987,86,1986,86,1984.29c0-1.91,1.41-3.07,3.71-3.07m4,7.69a4.79,4.79,0,0,0,3.61-4.87c0-3.39-3-5.56-7.53-5.56s-7.5,2.32-7.5,5.84c0,2.48,1.09,4.15,3.6,5.25-2.91.88-4.33,2.66-4.33,5.52,0,3.74,3.3,6.15,8.35,6.15s8.32-2.54,8.32-6.4c0-2.95-1.35-4.77-4.52-5.93m-15.1.15H72.68v-5.81h-3.1v5.81H63.74v2.73h5.84V1998h3.1v-6.19h5.87Z" transform="translate(-0.41)"/><path class="cls-4" d="M514.22,1134.54c10-5.42,14.89-14.34,14-23.36l6.74,10,8.67-4.7-20-36.89-29.09,15.8,5.19,9.56,18.08-9.82.68,1.26c3.41,6.27,6.11,19.56-7.45,26.92-12.9,7-25.18-.33-33.36-15.39-8.49-15.64-7.18-29.85,5.06-36.5,10.27-5.57,18.14-.72,22.48,4.8l10.9-8.67c-6.69-8.5-20.46-15.9-38.54-6.08-20.06,10.89-23.81,32.06-12.28,53.3s30.47,29.83,48.93,19.81m63.21-34.94c13.56-7.36,18.09-21.7,9.28-37.93s-23.19-20-36.75-12.67-18.14,21.61-9.39,37.73,23.3,20.23,36.86,12.87m-4.77-8.79c-7.25,3.94-14.63.69-20.6-10.32s-4.58-18.76,2.67-22.7,14.42-.83,20.4,10.18,4.78,18.9-2.47,22.84M631,1070.5c13.56-7.36,18.09-21.7,9.28-37.92s-23.19-20-36.75-12.67-18.14,21.61-9.39,37.73,23.3,20.23,36.86,12.86m-4.77-8.78c-7.25,3.94-14.63.69-20.6-10.32s-4.58-18.77,2.67-22.7,14.42-.83,20.4,10.17,4.78,18.91-2.47,22.85m54.39-18.16a17.79,17.79,0,0,0,9.72-18l4.72,8.69,10.64-5.78-38-70-11.3,6.13,15.51,28.58c-5.66-3.92-11.69-4-17.91-.65-11.77,6.39-14.26,21.12-6.08,36.18s21.31,21.06,32.7,14.87m-1-11c-6.87,3.73-14.46-.15-20.07-10.48s-4.72-18.56,2.15-22.29,13.92-.44,19,9l1.68,3.09c4.93,9.07,3.78,17.07-2.81,20.65m66.26-26,10.64-5.78-27.16-50a69.42,69.42,0,0,0-4.46-7.33l.38-.2a45,45,0,0,0,5.62,6.32l43.32,41.61,10.83-5.88-11.49-58.89a55.14,55.14,0,0,0-2.24-8.16l.29-.16a71.13,71.13,0,0,0,3.71,7.74l27.15,50,11.11-6L776.42,901.3l-17,9.25,10.87,55.73a40.47,40.47,0,0,0,2.34,8.35l-.19.11a39.32,39.32,0,0,0-5.67-6.42l-41.06-39.46-16.95,9.2Zm52.4-101.33,12.24-6.65L804,886.56l-12.25,6.65Zm31.12,56,11.3-6.14-26.21-48.27L803.24,913ZM855.73,947l11.3-6.13-13.89-25.59c-5-9.17-4-16.73,2.63-20.31,5.93-3.22,10.8-1,14.94,6.64l15.62,28.77,11.4-6.18-16.25-29.93c-7-12.94-16-16.69-26.28-11.11-7.25,3.93-10.54,10.22-9.86,19.1l-5.09-9.36-10.73,5.83Zm71.63-37.39c7.06-3.84,10.44-10.42,9.72-18l4.72,8.69,10.64-5.78-38-70-11.31,6.14,15.52,28.58c-5.67-3.93-11.7-4-17.91-.66-11.77,6.4-14.26,21.13-6.09,36.18S916,915.78,927.36,909.6m-1-11c-6.88,3.73-14.47-.15-20.08-10.48s-4.71-18.56,2.16-22.29,13.91-.44,19,9l1.68,3.09C934.13,887,933,895,926.4,898.62m43.45-39.22,8.57-4.65-24.81-51.54-13.47,7.32Zm14.77,1.6-12.9,7,6.71,12.36,12.9-7Z" transform="translate(-0.41)"/><path class="cls-4" d="M447.11,1043.29l14.13-7.67-16.05-56.29a35.55,35.55,0,0,0-1.64-4.36l.38-.21a33.16,33.16,0,0,0,2.76,3.75l38.47,44.12,14.12-7.67L478,937.77l-12.33,6.7,17.08,55.73a42.75,42.75,0,0,0,1.95,4.94l-.28.15a32.26,32.26,0,0,0-3.27-4.23l-39-43.81-12.24,6.65,15.49,56.59a30.22,30.22,0,0,0,1.76,5l-.28.15a42.3,42.3,0,0,0-3.08-4.32l-37.43-44.69L394,983.38Zm99.44-88.37c-8-14.77-20.24-18.64-33.9-11.22-14,7.62-17.16,22.06-8.5,38s22.13,20.1,36.54,12.28c9.61-5.21,14.53-13.89,13.45-24.18l-10.86.65c.66,6.39-1.77,11.34-7.14,14.25-7.44,4-15.26,1.54-19.76-6.52l33-17.95Zm-12.37,3.72-21.94,11.91c-4.16-8.12-2.74-15.14,4.42-19,6.69-3.63,12.8-1.57,17.1,6.35Zm85.12-6.72c17.05-9.25,20.67-23.22,14.28-35-6.6-12.15-16.78-13.38-29.11-9.81l-10.85,3.14c-8.24,2.34-12.82,1.08-15.86-4.51-3.15-5.8-.14-11.93,7.11-15.87,8.85-4.81,16.87-3.28,23.34,3.46l6.87-10.48C606,873,593,873.19,580.3,880.09c-15.07,8.18-20.24,21.12-13.79,33,6.34,11.68,16.46,13.69,28.21,10.19l10.42-3c8.19-2.44,13.4-2.27,17,4.39,3.88,7.14-1,13.42-7.88,17.16-10.36,5.62-19.18,2.41-25.63-4.09L580.81,948c8.81,9.71,22.67,12.56,38.49,4m7-57.57,8.48-4.6,13.52,24.91c5.29,9.75,12.36,13.79,23.67,7.65a38.38,38.38,0,0,0,7.24-5.06L674,907.5a19.3,19.3,0,0,1-4.3,3.08c-4.71,2.56-8.18,1.32-11-3.89L646.1,883.61l11.49-6.23L653,869l-11.49,6.24-9.12-16.8-8.78,10.77,6.6,12.16-8.47,4.6Zm75.39,12.2c7.63-4.14,11.62-10.94,10.69-18a78.78,78.78,0,0,0,5.25,7.89l11.3-6.14c-2.77-2.86-6-7.63-9.53-14.19l-7.81-14.39c-7.6-14-17.12-16.7-31.06-9.14-12.15,6.6-16.6,17.26-11.74,28l11.58-6.3c-2.61-5.7-.94-10.48,4.61-13.5,6-3.28,10.44-1.67,14.37,5.57l.69,1.26-9.31,6.67c-6.86,5.1-10.7,8.81-13,12.68a14.12,14.12,0,0,0,.19,14c4.66,8.59,14.15,10.81,23.76,5.6m-.78-10.2c-5,2.7-9.42,1.74-11.63-2.32s-.68-8,5-12.44l9.75-7.42,1.67,3.09c4.2,7.73,2.22,15.3-4.75,19.09m59.92-21.91c11.21-6.09,15.55-17,11.43-28.58l-11.85,3.55c2.64,7.33,1.09,12.79-4.56,15.86-7.25,3.93-14.74.25-20.4-10.18-5.4-9.94-4.32-18.28,2.65-22.06,5.56-3,11.17-1.44,15.48,4.71l10-7.81c-7.39-10.24-18.48-12.47-30.16-6.13-14.31,7.77-18,22.13-9.43,37.87,8.34,15.35,22.78,20.39,36.81,12.77m62.65-35.52,13.09-7.11-33.92-19.58,7-28.28-13.75,7.46-6.73,31.41-23.43-43.16-11.3,6.14,38,70,11.3-6.13-7.82-14.39,2.94-11.22Zm61.09-31.66a17.73,17.73,0,0,0,9.18-18.12l4.88,9,10.74-5.83L883.19,744l-11.4,6.18L886.31,777c4.4,8.11,3.15,15.67-3.07,19-5.46,3-10.39.64-14.21-6.41l-15.88-29.25-11.31,6.13,16.83,31c6.13,11.3,14.44,16,25.93,9.81m50-4.27,11.3-6.14-14-25.78a17.27,17.27,0,0,0,18.35.55c11.58-6.29,14.14-20.44,5.7-36-8.28-15.25-21.31-21.06-32.61-14.92a18.07,18.07,0,0,0-9.88,17.74l-4.56-8.4-10.73,5.83Zm7.53-38.47c-6.69,3.63-14.13,0-19.16-9.22l-1.31-2.41c-5.29-9.76-4-17.56,2.74-21.24s14.17.05,19.78,10.38,4.73,18.81-2,22.49" transform="translate(-0.41)"/></g><rect class="cls-5" x="346.8" y="768.01" width="722.12" height="304.22" transform="translate(-353.67 449.26) rotate(-28.5)"/><g class="cls-3"><path class="cls-4" d="M244.22,1459.79l4.55-10.23-45.12-20.09-31.73,71.25,12.63,5.63,13.81-31,30.83,13.73,4.56-10.24-30.83-13.72,8.8-19.78Zm11.89,32.84,5.4-12.15-11-4.88-22.34,50.18L240,1531l9.34-21c2.51-5.62,5.54-11.12,11.2-13.3,3.24-1.2,7.05-1.07,11.75,1l1.56.7,5.14-11.54a6.53,6.53,0,0,0-1.33-.71c-7.92-3.53-15.52-.42-21.5,6.42m62.41,40.29c6.83-15.36,2.46-27.4-11.74-33.72-14.58-6.5-27.95-.18-35.32,16.38s-2.48,29.8,12.5,36.47c10,4.45,19.86,3.07,27.37-4l-7.13-8.22c-4.66,4.41-10.07,5.5-15.65,3-7.73-3.44-10.51-11.17-6.85-19.65l34.36,15.3ZM308,1525.37l-22.8-10.16c3.9-8.24,10.35-11.38,17.79-8.07,7,3.09,9,9.2,5.37,17.43Zm27,49.43c12.72,5.67,22.85,3,27.23-6.88,3.7-8.33,2-15.34-7.49-21.13l-7.69-4.86c-4.91-2.92-6.28-5.93-4.75-9.34,1.74-3.91,5.76-4.53,11.35-2,6.36,2.83,9.25,8.2,9.32,14.37l10.13-.9c1-8.92-4.7-17.36-15.27-22.07-12.43-5.54-22.51-2.92-26.67,6.4-3.62,8.13-1.38,15.75,8.22,21.58l7,4.32c5.07,3.1,6.36,5.72,4.58,9.73-1.7,3.82-5.86,4.73-11.73,2.12-7-3.1-10.38-8.59-9.87-16.06l-10.5.14c-1.06,10.83,4.88,19.61,16.14,24.62m32.45,13,11.74,5.22,11.85-26.59c4.33-9.74,10.8-13.47,17.85-10.33,6,2.66,7.22,8,3.83,15.65L399.32,1602l11.85,5.27,13.9-31.21c5.94-13.35,3.48-22.86-7.09-27.56-7.44-3.32-14.43-2.1-20.49,3.62l14.16-31.82L399.9,1515Zm162.41-13.08-54.72-24.36-4.69,10.54,21,9.37-27,60.72,12.63,5.62,27-60.72,21.05,9.37Zm2.45,16.37,12.72,5.66,5.59-12.54L538,1578.55Zm-25.47,58.77,11.75,5.23L541,1604.92l-11.74-5.23Zm49.66-38L534.22,1662l11.74,5.23,12.92-29c3.57-8,9.1-11.22,15-8.6,5.19,2.31,6.32,7.14,3.24,14.07l-13.9,31.21,11.75,5.23,13-29.3c3.57-8,8.87-11,14.84-8.31,5.38,2.4,6.46,7.08,3.2,14.41l-13.76,30.92L604,1693.1l14.62-32.82c5.27-11.84,2.73-21.15-6.67-25.33-6.85-3-13.42-2-19.83,3.43.69-7.86-2.49-13.37-9.35-16.42s-13-1.83-19,3.79l4-8.93Zm115.74,78.58c6.83-15.35,2.46-27.4-11.73-33.72-14.59-6.49-28-.18-35.33,16.38s-2.48,29.81,12.5,36.47c10,4.45,19.86,3.07,27.37-4l-7.13-8.22c-4.66,4.42-10.07,5.5-15.65,3-7.73-3.44-10.51-11.17-6.85-19.65l34.36,15.3Zm-10.48-7.55L639,1672.72c3.9-8.24,10.34-11.38,17.79-8.07,7,3.1,9,9.2,5.37,17.43Zm28.59,24,8.91,4,25.78-51.05-14-6.23Zm7.72,12.69-13.41-6L679,1726.49l13.41,6Z" transform="translate(-0.41)"/><path class="cls-4" d="M221.66,1402.08l14.68,6.54,34.88-47a34.28,34.28,0,0,0,2.47-4l.39.17a35.91,35.91,0,0,0-1.29,4.48l-11.59,57.38,14.69,6.53,48.27-63.89-12.82-5.71-33.81,47.48a43.24,43.24,0,0,0-2.74,4.56l-.29-.13a31.25,31.25,0,0,0,1.36-5.17l11-57.63-12.72-5.67-35.48,46.74a32.85,32.85,0,0,0-2.93,4.47l-.29-.13a41.43,41.43,0,0,0,1.56-5.08l12.66-56.9-12.82-5.7Zm130.64,25.09c6.84-15.35,2.46-27.4-11.73-33.72-14.59-6.5-27.95-.18-35.33,16.38s-2.48,29.8,12.5,36.47c10,4.45,19.86,3.07,27.38-4L338,1434c-4.66,4.41-10.07,5.5-15.65,3-7.73-3.44-10.51-11.17-6.85-19.65l34.36,15.3Zm-10.48-7.55L319,1409.46c3.91-8.24,10.35-11.38,17.79-8.07,6.95,3.1,9,9.2,5.37,17.43Zm35.88,51.93,11.06,4.93,23.14-52a70.5,70.5,0,0,0,3.1-8l.39.17a46.09,46.09,0,0,0-1.59,8.32l-6.64,59.69,11.26,5,39.73-45a57.66,57.66,0,0,0,5.11-6.74l.3.13a71.78,71.78,0,0,0-3.89,7.65l-23.14,52,11.55,5.14,31.73-71.26-17.72-7.89-37.6,42.55a41.3,41.3,0,0,0-5.2,6.94l-.19-.08a40.39,40.39,0,0,0,1.63-8.41l6.31-56.6-17.62-7.84ZM490,1451.44l12.72,5.66,5.59-12.54-12.73-5.67Zm-25.46,58.77,11.74,5.23,22.35-50.18L486.87,1460Zm20.65,9.2,12.82,5.71,14.75-9.67a26.22,26.22,0,0,0,5.07-4l.19.08a20.23,20.23,0,0,0,.32,6.4l2.68,17.43,13.41,6-6.23-33.68,27.1-17.16-13.11-5.83-12.7,9a27.43,27.43,0,0,0-4.82,4l-.1,0a32.82,32.82,0,0,0-.36-6.3l-2.09-15.6-13.41-6,5.77,31.55Z" transform="translate(-0.41)"/></g><rect class="cls-5" x="312.4" y="1167.56" width="304.21" height="722.13" transform="translate(-1121.31 1331.21) rotate(-66)"/><g class="cls-3"><path class="cls-4" d="M1081.89,1663.88c1.22-8-1.67-14.32-7.34-19.91-2.87-2.82-4.79-6.6-7-10-.8-1.25-1.58-2.76-3-2.68-8,.4-11.92-5.59-16.46-10.41-2.5-2.66-3.22-2.86-4.58.45-1.51,3.63-.68,7.06,1.46,10.16,1.2,1.74,3,1.94,4.81.82a4.45,4.45,0,0,1,4.78-.17c1.73.94,2.42,2.32.94,4.09-2.09,2.5-4.27,4.07-8,3.19-10.92-2.57-13.47-8.56-12.45-19.25.51-5.34,2.78-10.24,4.83-15.08s.46-8.88-1.08-13a22.84,22.84,0,0,0-4.25-6.45c-2.21-2.59-4.58-2-6.2.83-1.09,1.94-3.13.92-4.47.29-7-3.34-12.91-8.06-16.12-15.37-1.75-4-3.82-8-.24-12.28.78-.92,1-2.71-.42-3.39-1.16-.54-1.72.94-2.17,1.77a54.15,54.15,0,0,0-6.15,21,5.84,5.84,0,0,0,1.61,4.24c2.81,3.58,4.85,7.6,7.93,11.13,7.62,8.74,8.79,20,9.43,31.13a44,44,0,0,0,.64,5.7c1.26,6.61-1.69,12.37-3.42,18.34-1.6,5.53-3.28,11.09-6.95,15.79-3.14,4-6.6,7.22-12.13,7a6.39,6.39,0,0,0-4.09,1c-2.94,2-5.93,1.55-8.72-.18-2.39-1.47-4.35-2.91-7.67-2.91-3.14,0-3.92-4.37-5.47-6.95s-2.7-5.55-4.35-9c-2.18,4.78-3.76,9.05-3.68,13.82a41.78,41.78,0,0,1-1.48,11.42c-2.56,9.61.1,17.77,6.52,25,4.47,5,10.39,7.52,16.65,9.31,4,1.15,11.07-1.41,13.55-4.75,1.56-2.1,6.24-3.09,7.74-1.34,1.89,2.22.5,4.48-1.05,6.19-1.13,1.25-2.08,2.15-1.26,4a1.75,1.75,0,0,1-.6,2.11c-5.36,4-10.24,10-17.73,8.45-9.24-1.84-18.26-3.94-24.93-12.34-8-10.12-10.06-21.6-11.39-33.67-1.24-11.34-.37-22.41,4.17-32.94a48.46,48.46,0,0,1,7-11.83c3-3.67,4.13-8.5,7.1-12.31,1.8-2.32,3.53-4.72,5.16-7.2,2.9-4.45,11.29-6.4,16.19-4.27,2.63,1.14,4.5,2.88,5,5.91.42,2.79,1.23,5.54,1.49,8.35.13,1.54,0,3.73-2.13,4-1.83.2-3.08-1.14-3.55-3a16.28,16.28,0,0,0-.43-2.27c-.28-.68-.76-1.56-1.35-1.75-1.06-.35-.92.94-1.33,1.49-5.15,6.78-5.36,12.63-.77,19.32,1.45,2.11,2.94,3.15,5.82,2.17,6.68-2.26,11.57-6,14.48-12.74a67.43,67.43,0,0,0,4.84-20.57,14.26,14.26,0,0,0-4.25-11.59c-4.53-4.65-10.3-8.08-13.26-14.29-2.65-5.59-4.44-11-1.15-16.93a11.76,11.76,0,0,0,1.34-4c2.16-14.9,11.61-25.39,21.8-35.14,7.23-6.93,9.13-15.13,8.49-24.44-.15-2.24-1.5-4.1-3-5.78-.6-.68-1.25-1.31-1.79-2-1-1.26-1.26-2.72-.13-3.91,1.31-1.37,2.64-.45,3.74.52,3.46,3.08,5.57,7.11,7.61,11.13,1.51,3,3.87,5.42,4.42,9,.72,4.66-1.65,8.29-3.43,12.08a55.85,55.85,0,0,1-5.24,8.57c-3.47,4.87-4.81,10.48-6.07,16.14-.36,1.64,0,3.09,1.71,3.88.47.21,1.24.41,1.31.74.93,4.35,4.11,2.4,6.48,2.27,4.24-.22,8.41.6,12.7.26,4.6-.36,8.41,2.44,11.46,5.67,6.08,6.43,10.18,14,10.92,22.92.37,4.51-2,8.71-2.83,13.09-.62,3.11-2.61,5.84-2.74,9.07-.09,2.22-.1,4.67,3.32,2.36,1.46-1,4.08-.31,4.3-3,.23-2.91,1.1-5.9-.85-8.61-1.17-1.64-2.42-3.8-.46-5.14a4.06,4.06,0,0,1,5.76,1.53c2.43,5.13,5.88,10.12,4.24,16.37a23.46,23.46,0,0,1-2.28,4.89c-.79,1.51-.74,3.08,1,3.43,2.51.5,2.77,2,3.16,4.12a10.2,10.2,0,0,0,4.76,7.17c13.55,8.35,19.12,21.92,22.86,36.34,1.38,5.3-.17,10.82-3.62,15.4-4.62,6.13-9.65,12.09-16.62,15.46-4.59,2.21-9.21,4.49-14,6.37-2.27.9-4.33,2.16-4.38,4.87-.08,3.74-1.76,6.76-3.93,9.5-5.49,6.93-12.1,12.39-21,14.27-9.26,2-18.13,1.81-25.29-5.81a20.54,20.54,0,0,0-3.84-2.6c-1.26-.83-2.25-2-2-3.51s2-1.88,3.37-2.22,2.94-.18,3.62,1.43a12.27,12.27,0,0,0,3.38,4.18c3.92,3.55,8.2,3.85,13.25,2.58,13.6-3.44,20.91-11.57,22-25.4a26.87,26.87,0,0,0-.45-3c-.07-2.21.43-4.13,3-4.75,5.92-1.46,10.15-5.23,14-9.76,2.54-3,5.17-5.87,6.89-9.57a15.71,15.71,0,0,0,.87-12c-.41-1.27-2.18-2.66-.79-3.8,1.55-1.28,2.3,1.51,3.88,1.59" transform="translate(-0.41)"/><path class="cls-4" d="M956,2013.65c.85-12.58,1.69-25.16,3.42-37.67,1.1-8,1.73-16.12,2.52-24.18.46-4.72.72-9.45,1.24-14.16.49-4.44,0-4.85-4.39-4.92-5.24-.09-10.4,2.39-15.71.3-2.48-1-4.62-2.09-6.06-4.5a31.84,31.84,0,0,0-7.45-9.15c-2.43-1.92-2.91-4.5-1.35-8.18,1.66-3.93,1.69-8.69,2.65-13.07,1.3-5.85,2.09-11.65,4.67-17.32,4.28-9.41,9.34-18.68,10.29-29.34.2-2.34.47-4.6-.21-6.89-.29-1-.53-2.12.67-2.72a2.7,2.7,0,0,1,2.91.43,6.13,6.13,0,0,1,2.19,3.51c2.39,7.78-.51,14.73-3.18,21.74-1.77,4.66-4.86,8.86-4.92,14.13,0,1.74-1.93,2.27-2.51,3.77a74.19,74.19,0,0,0-5.24,27.91c.07,6.29,7,12.46,13.3,12.86,3.38.22,7,2.11,10-.69,3.61-3.4,7.41-6.68,9.39-11.54,2.23-5.47,4.67-10.84,6.4-16.55,2.1-6.91.84-13.23-2.17-19.4-.93-1.91-3.76-3.48-3.11-5.51,1.34-4.24,1.34-8.89,3.92-12.8,2.88-4.39,6.33-8.29,9.56-12.39s9.17-5.41,14.09-4.09c10.31,2.78,12.45,12.72,8.47,20.56-2.12,4.18-3.38,8.35-1.46,13,1.61,3.92,9.07,8,13.16,7a3.2,3.2,0,0,0,1.7-.82c4-5,8.95-9.43,8.51-16.86-.32-5.48.86-11.15-5.14-14.69-1.37-.82-1.85-2.92.22-4.19,1.62-1,3.43-2.65,4.89,0,2.83,5.12,7.19,9.3,8.51,15.39,1.24,5.72,0,16.44-6.43,20.09a4.74,4.74,0,0,0-1.21,1c-4.39,4.87-9.75,5.88-15.79,3.88-8.62-2.84-14.74-7.45-15.13-16.67a20.68,20.68,0,0,1,2.94-11c3.12-5.62.41-9.62-5.64-11-5.28-1.22-7.17,1.4-9.31,4.89-1.89,3.07-3.84,6.09-5.8,9.11-2.67,4.13-2.5,8.52-1.35,13,.79,3.12,2.18,6,3,9.17,2.85,11,.23,20.84-5.17,30.31a22.47,22.47,0,0,1-3.46,5.12c-4.74,4.61-5.69,9.11-3.08,15.74,1.83,4.67-.3,10.62-.87,16-1.41,13.19-3.73,26.27-4.56,39.52-.61,9.51-1.89,19-1.82,28.53,0,2.67-1.22,2.77-3.15,1.7-3.39-1.87-2.92-5.13-3-8.23" transform="translate(-0.41)"/><path class="cls-4" d="M911.7,2137.34c-3.31.17-6.69,1-9.18-2.42-1.33-1.83-1.36-3,.86-3.8a14.74,14.74,0,0,1,4.44-1.23c4.52-.08,7.95-2.88,11.8-4.54,2.5-1.08,2.56-4.39.25-6a21.85,21.85,0,0,1-4.94-5.41c-4-5.54-2.3-12.48,3.74-15.69a10.4,10.4,0,0,0,3.74-3.29c.51-.73,1-1.72,1.77-2,6.77-2.21,10.9-7.83,16-12.17,4.63-3.91,6.76-9.37,9.28-14.57,1.26-2.6-.17-5-1.2-7.4-2-4.65-3.92-9.4-3.23-14.56a18,18,0,0,1,9.89-14c9.74-4.88,13.85-13.31,16.64-23a30.84,30.84,0,0,0,1.39-8.76c0-1.94.53-4.13,3.31-3.67,2.34.38,3.07,1.73,2.39,4.23-.63,2.31-.37,4.84-.83,7.2-2.36,12.17-9.5,21.21-19.19,28.39-7,5.19-9.3,11.35-6.86,19.55.23.75.27,2,1,2,4.11.1,6.1,3.62,9.07,5.49,5.51,3.48,9.72,1.34,13.59-3a21.35,21.35,0,0,0,5.44-12.09,11,11,0,0,1,.69-3c1.07-2.59,2.63-4.9,5.7-5.08,2-.12,5,4.18,4.8,6.67-.39,3.95-.57,8-3.64,11.14-2.26,2.35-2.71,5.76-4.34,8.57-4.08,7.06-10.7,7.48-17.17,6.5-4.39-.66-6.11.52-7.92,4.07-5.89,11.58-15.23,18.64-28.11,21.31a9.13,9.13,0,0,0-6.77,7.22c-.78,3.82,1.26,6.49,4.52,8.19,2.86,1.49,5.87,2.7,8.77,4.13,1.65.82,3.37,1.89,2.85,4.07-.46,2-2.36,1.76-3.87,1.72-3.5-.1-5.57.95-6.45,4.86-1.15,5.1-9.92,10.68-15.11,10.38-1-.06-2.06,0-3.1.05" transform="translate(-0.41)"/><path class="cls-4" d="M1053.18,1951.26c5.34,4.22,3,8.92,3.09,13,.12,3.45.06,6.89.32,10.37.38,5.22-.11,10.5-.13,15.76,0,11.07-1.32,22.07,0,33.25.84,6.83,1.76,13.34,4.7,19.56,2.36,5,4.87,9.72,10.38,12,1.21.49,2.5,1.3,1.75,2.91s-2,1.23-3.58.73c-7-2.28-9.92-8-12.71-14.09a55.71,55.71,0,0,1-5.46-22.32c-.19-7.83-.06-15.7-.51-23.47-.68-11.45.11-22.91-1-34.33-.33-3.42.28-6.93.54-10.4.14-1.85-.18-2.85-2.44-2.8-5.78.11-10.37-2.29-14.13-6.73-1.61-1.91-4-3.18-6-4.78s-2.47-3.22-.45-5.19a14.25,14.25,0,0,0,1.79-2.53c.72-1.16,1.5-2.19,3.07-1.73a3.55,3.55,0,0,1,2.71,3.35c1,7.62,3,9.37,10.31,7,7.8-2.57,15.34-6,20.75-12.73,3-3.66,1.92-8.45,3.81-12.42,3.2-6.73.59-13.48-.61-20.06a95.05,95.05,0,0,1-.83-29.63c.18-1.38.69-2.23,2-2.33a3.61,3.61,0,0,1,4,3c.16,2.14,1.6,3,2.43,4.52,2.21,3.91,2.13,8.38,2,12.72-.26,6.78-.86,13.55-1.15,20.33-.4,9.77.22,19.68-4.49,28.75a50.33,50.33,0,0,1-12.46,16,9.75,9.75,0,0,1-7.79,2.37" transform="translate(-0.41)"/><path class="cls-4" d="M956.69,1760.67c.9,0,2-.4,2.66,0,5.1,3.45,8.09.71,11.26-3.16,2.06-2.52,5.66-3,8.56-4.33,7.54-3.6,15.59-2.75,23.51-2.73,2.86,0,5.69.91,7.21,3.75a3.35,3.35,0,0,1-.19,4,2.23,2.23,0,0,1-2.9.2c-5.35-3.41-11-2.32-16.48-.89s-11.51,1.84-15.78,6.65a13.2,13.2,0,0,0-3.5,7.1c-.2,1.42-.71,2.45-2.23,2.78s-1.81-.83-2.5-1.81c-3.58-5.1-9.18-6.5-14.88-3.74-6.45,3.13-13.91,4.34-19.26,9.49-6.81,6.54-12,14.41-14,23.6-1.42,6.41,2.39,12.2,5.11,17.88.78,1.61,2.25,2.89,3,4.51a12.56,12.56,0,0,0,8.62,7.15,11.7,11.7,0,0,1,5.83,3.66c1.26,1.48,1,2.72,0,4.18-1.22,1.75-2.51.92-3.67.18-5.92-3.76-11.67-7.07-15.31-14.11a166.51,166.51,0,0,1-8.19-17.23c-2.44-6.4-1.63-12.47,1.31-18.67,7.84-16.54,22-24.26,38.77-28.38a14.43,14.43,0,0,1,3.09-.09" transform="translate(-0.41)"/><path class="cls-4" d="M1064.24,2108.8c0-1.94-.2-3.88-.07-5.81.22-3.66,1.19-6.54,5.52-7.66,5.5-1.44,8.51-6.09,11-10.78,2-3.78-.06-11.41-3.24-14.53-.91-.9-3-1.48-2-3.24s2.9-1.14,4.53-.8a7.28,7.28,0,0,1,5,4,19.08,19.08,0,0,1,1.33,15.11,8.71,8.71,0,0,0-.6,1.83c-.72,6.37-3.74,10.44-10.27,12.27-3.7,1-4.86,4.83-3.33,8.72a39.05,39.05,0,0,0,9.44,14.48c3.13,2.91,12,3.68,15.83,1.55a8.55,8.55,0,0,1,2.07-1,3.46,3.46,0,0,1,4.32,2.3c.76,2.21-.57,3.54-2.62,3.86a41.51,41.51,0,0,1-8.79.76c-3.09-.2-4.38.33-2.88,3.5.65,1.37,1.1,2.77-.13,3.93a3.36,3.36,0,0,1-4.32.26c-5.71-4-11.86-7.48-16.8-12.26-4.37-4.21-3.89-10.66-3.89-16.49" transform="translate(-0.41)"/><path class="cls-4" d="M986.57,2141.66c9.24-.19,17.44-6.63,18.25-13.29.76-6.31-.05-7.73-5.83-10.31-1.31-.6-2.87-1.29-2.63-2.92s2-1.37,3.15-1.78c1.64-.57,3,.17,4.46.77,4.8,2,9.18,4.57,12.62,8.62,1.33,1.58,2.64,3.21,4.67,0,1.16-1.8,4.23-3.12,6.39-1.08s.43,4.36-1.21,6c-2.83,2.87-7.6,3.24-11.87.64-3.26-2-4.37-1.37-4.77,2.36-.52,4.85-4.61,7.34-8.07,9.65-11.32,7.55-23.25,6.54-35.11,1.19a7.9,7.9,0,0,1-3.5-11.71c2-3.08,2-6.59,3.13-9.86.57-1.74-.49-3-2-3.78a17,17,0,0,0-8.52-2.23,84,84,0,0,1-14.7-.51c-1.59-.23-3.36-.15-3.26-2.35.09-2,1.91-2.41,3.39-2.56a18,18,0,0,1,4.6.42c5.89.94,11.89,0,17.77,1.16,2.86.55,5.28,2,7.89,3.15a3.07,3.07,0,0,1,1.77,2.4c1,4.8.85,9.48-2.35,13.49s-2.63,7.74,2.32,9.78a43,43,0,0,0,13.4,2.7" transform="translate(-0.41)"/><path class="cls-4" d="M1048.67,1752.7c2.89.81,6.93,1.27,9.81,4.37a3.66,3.66,0,0,0,4.46,1.16c5.58-2.08,9.92-.15,13.78,4,2.78,3,5.84,5.78,8.91,8.51,6,5.37,7.27,11.8,4.85,19.29-1.69,5.26-3.87,10.34-5,15.82-.78,3.88-7.18,6.82-10.22,5.22-2.66-1.39-3.36-4.07-1-5.74,7.55-5.29,9.07-13.73,11.61-21.54,1.81-5.58-2.25-9.24-6.12-12.31a68.42,68.42,0,0,1-6.17-5.25c-3.53-3.52-6.34-3.24-9.09.81-.7,1-1.52,1.91-2.75,1.76-2.23-.28-3.27-2-3.82-3.94-1-3.48-3-6-6.78-5.29-2.22.45-3.77-.33-5.66-.59-3.13-.42-2-2.36-2.16-3.76-.17-2.08,1.43-2.48,3.13-2.52l2.14,0" transform="translate(-0.41)"/><path class="cls-4" d="M1034.64,2099.59c1.67,6.32,9.15,8.9,13.9,5.21.61-.47,1.4-.85,1.15-1.78-.2-.77-1-.66-1.6-.78-4.37-.85-8.73-1.72-13.45-2.65m-8.77-5c-.34-2.26.76-4.34,2-6.33.59-1,1.47-1.9,2.87-1.46a2.31,2.31,0,0,1,1.83,2.6c-.4,4.11,1.09,5,4.92,3.43,1.86-.75,4.59-1.77,5.07,2.41.24,2.09,7.69,3.77,10.26,2.72,3.57-1.47,3.2-5,3.07-7.67-.25-5.08-1.92-9.68-7.48-11.63-1.34-.47-1-1.6-.29-2.52a3.05,3.05,0,0,1,2.47-.86c3.33-.17,11.26,4.82,12.66,8,2,4.47.74,11.06-2,14.59-2.32,3-4.89,5.77-7.3,8.65-2.81,3.36-7.5,4.06-11.72,4.23-9.42.36-16.25-6.54-16.31-16.14" transform="translate(-0.41)"/><path class="cls-4" d="M1074.56,1789.18c.1.33.29.62.21.76-7.43,13.92-16.34,26.22-33.08,29.83-.06,0-.09.2-.32.7,12.34-.55,21.21-7.09,29.49-16.69.23,5-2.71,7.14-4.72,9.2a36.07,36.07,0,0,1-16.56,10.1c-6.41,1.71-12.6,2.28-18.52-1.63a35.19,35.19,0,0,0-4.61-2,2.29,2.29,0,0,1-1.58-2.43c.29-1.44,1.75-1.08,2.55-.83,8.39,2.62,15.76-.31,23.43-3.38,3.31-1.31,5.3-3.71,8-5.51a38.71,38.71,0,0,1-20.33,5.25c-1.87-.06-3.77.74-5.64,1.24-1.08.28-2.09.37-2.78-.66-.94-1.41.81-1.57,1.14-2.35,1.27-3.07,3.76-2.37,6.25-2.58,4.45-.36,8.06-3.27,12.14-4.85,8.68-3.35,17-7.55,23.9-14,.22-.2.68-.14,1-.21" transform="translate(-0.41)"/><path class="cls-4" d="M1028.66,2007.76c-9.52.11-14.15-3.4-16.3-12.51-1.59-6.79-2.58-13.68-1.06-20.67a8.88,8.88,0,0,1,.51-1.85c1-2.13,2.24-5,4.77-4.18,2.77.9,1,3.73.64,5.77-1.42,7.59-1.31,15.07,1.54,22.35.39,1,1,1.93,2.2,1.87.89,0,1.23-.82,1.51-1.57s.06-2.57,1.65-1.63a2.79,2.79,0,0,1,1.05,3.44c-.45,1.2-3,2.1-.63,3.74,2,1.4,3.38,0,5.21-.71,5.61-2,5.08-7.25,6.66-11.39.31-.81.12-2.06,1.25-2.12,1.34-.09,1.42,1.18,1.66,2.17,1.11,4.54,0,8.9-1.86,12.87-1.68,3.64-5.31,4.64-8.8,4.42" transform="translate(-0.41)"/><path class="cls-4" d="M1074.27,1815.86c2.61,0,4.72,3.25,3.7,5.87a25.3,25.3,0,0,0-1.86,5c-.8,4.66,2,7.48,5,10.19,6.46,5.92,6,13.82-1,19.1-2,1.51-5,2.47-4.26,6.06.14.72-.8,1.67-1.54,1.17-2.65-1.8-6.62-1.89-7.75-5.68-.65-2.18-1.07-4.4,2.56-3.69,1,.21,1.67-.39,2.44-.87,2.15-1.33,3.78-3.33,6.5-4,2-.49,2.34-6.35.69-8.38a15.05,15.05,0,0,0-2.62-2.27c-6.86-5.32-8.5-13.44-4.24-20.94a3,3,0,0,1,2.48-1.6" transform="translate(-0.41)"/><path class="cls-4" d="M1036.75,1690.58c-.44,5.18.55,10.13-5,12.29-.38.14-.28,1.27-.68,1.71-.93,1,.25,3.91-2.1,3.35s-4.28-2.26-3.64-5.1c.89-4,.31-8,.59-11.94.11-1.66,0-2.67-1.61-3.82-3.75-2.73-3.4-4.64.85-6.34,1.25-.5,1.59-1.56,2.16-2.56,2-3.53,4.39-3.6,6.68-.21,1.21,1.77,2.76,9.38,2.75,12.62" transform="translate(-0.41)"/><path class="cls-4" d="M1030.59,1754.45c0,1.42.05,2.84.08,4.26,0,1-.43,2.25-1.23,2.16-4.23-.48-3.27,2.48-3.37,4.76-.06,1.21-.34,2.47-1.4,3s-1.85-.58-2.69-1.15c-2.63-1.78-3.16-4.38-2.48-7.19a22.44,22.44,0,0,0,.28-7.7c-.36-3.6,1.45-6.15,4.83-6.36,3.57-.23,5.67,1.72,5.91,5.51l.18,2.7h-.11" transform="translate(-0.41)"/><path class="cls-4" d="M987.87,1803.41c-5.79-1.58-11.45-3.28-17.2-4.63-3.13-.73-5.8-1.9-7.85-4.43-1-1.18-1.93-2.47-.76-3.74s2.38,0,3.26.88c1.66,1.6,3.79,2.14,5.86,2.84.6.2,1.63.47,1.86.2,3.08-3.69,4.91-.13,7.15,1.13,2.82,1.59,5.7,3,8.49,4.66.73.42,1.68,1.09,1.46,2.1-.29,1.24-1.57.44-2.27,1" transform="translate(-0.41)"/><path class="cls-4" d="M967.66,1806.32c-7.35-.44-15.83-8.24-16.93-15.94-.16-1.11-.47-2.43,1-3,1.17-.48,1.9.45,2.67,1.12a5.49,5.49,0,0,1,1.52,3c1.77,6.51,5.2,9.38,12,10.11,1.74.18,3.27.89,3.25,2.63,0,1.55-1.39,2.36-3.43,2.06" transform="translate(-0.41)"/><path class="cls-4" d="M1041.73,1834.34a15.48,15.48,0,0,1-2.87-.52c-1.15-.46-3-.68-3-2,.09-1.77,2-1,3.16-1.21a54.39,54.39,0,0,0,20.69-8.95c.74-.51,1.41-1.11,2.16-1.59.52-.34,1.18-.76,1.76-.22.81.73.2,1.45-.31,2-6.14,6.39-13.86,9.94-21.62,12.54" transform="translate(-0.41)"/><path class="cls-4" d="M121.87,1050.89v-5.79l-20.06-4.64a11.28,11.28,0,0,0-1.62-.23v-.15a12.89,12.89,0,0,0,1.62-.23l20.09-4.55v-5.79l-27.39-6.59V1028l20.06,4.21a13.72,13.72,0,0,0,1.86.24v.12a10,10,0,0,0-1.86.3l-20.08,4.78,0,5,20.06,4.87a10.47,10.47,0,0,0,1.86.31v.12a15.12,15.12,0,0,0-1.86.22l-20.08,4.12v5.06Zm-9.31-47.44c-5.9-.29-9.29,2.74-9.58,8.33-.29,5.75,3.47,9.41,9.83,9.73s10.09-3,10.38-9c.2-3.93-1.5-7.07-4.78-8.66l-1.79,3.46a4.85,4.85,0,0,1,3,4.87c-.15,3-2.34,5-5.58,4.86l.68-13.53Zm-1.15,4.5-.45,9c-3.2-.24-5-2-4.9-4.93.14-2.73,1.87-4.23,5-4.08ZM105,987l19.18,2.11.51-4.6-11.09-1.22c-3.07-.34-4.73-1.88-4.48-4.18.23-2,1.72-3,4.37-2.67l11.94,1.31.5-4.6-11.2-1.23c-3.07-.34-4.62-1.83-4.36-4.17.23-2.11,1.69-3,4.49-2.7l11.82,1.3.5-4.6-12.54-1.37c-4.53-.5-7.38,1.4-7.78,5.08a6.33,6.33,0,0,0,3.25,6.42,5.38,5.38,0,0,0-4.51,5,5.82,5.82,0,0,0,3.29,6.12l-3.41-.38Zm.7-33.76.66-5-4.77-.63-.67,5ZM128,956l.61-4.59-19.12-2.55-.62,4.58Zm1.14-8.2.79-5-4.61-4.21a9.07,9.07,0,0,0-1.82-1.38l0-.08a6.84,6.84,0,0,0,2.14-.71l5.68-2.58.83-5.22L121.27,934,113,926.2l-.81,5.1,4.2,3.56a9.51,9.51,0,0,0,1.8,1.3v0a11.58,11.58,0,0,0-2.11.72l-5.11,2.2-.83,5.22,10.2-5ZM118,901.31l-1,4.57-2.12-.43c-2-.42-2.81-1.46-2.44-3.27a12.22,12.22,0,0,1,.59-1.89l-3.51-.72a12,12,0,0,0-.86,2.62c-.84,4,1.05,6.91,5,7.73l2.42.5-.67,3.25,3.28.68.68-3.26L135,914.32l.94-4.53-15.61-3.23.94-4.57Zm6.49-7.58-4.55-1.05-1,4.2,18.8,4.36,1-4.51L131,894.91c-2.11-.49-4.21-1.17-5.33-3a5.48,5.48,0,0,1-.41-4.21l.14-.61-4.32-1a2.07,2.07,0,0,0-.16.52c-.71,3,.86,5.51,3.61,7.14m10.37-25.13c-5.72-1.47-9.66.82-11.05,6.25s1.52,9.91,7.69,11.49,10.49-1,12-6.69c1-3.82-.06-7.23-3-9.44l-2.46,3A4.86,4.86,0,0,1,140,878.6c-.76,2.95-3.29,4.42-6.44,3.65l3.36-13.13Zm-2,4.18-2.23,8.71c-3.09-.87-4.55-3-3.82-5.8.68-2.66,2.69-3.78,5.75-3Zm16-12.74c1.41-4.81,0-8.28-3.6-9.35-3.08-.9-5.45,0-7.06,3.72l-1.36,3c-.8,1.9-1.79,2.53-3.05,2.16-1.44-.43-1.84-1.83-1.22-3.94a5.49,5.49,0,0,1,4.62-4l-.77-3.56c-3.16.08-5.85,2.54-7,6.54-1.39,4.71,0,8.16,3.41,9.17,3,.89,5.56-.29,7.18-4l1.2-2.7c.86-2,1.72-2.56,3.2-2.12s1.91,1.85,1.25,4.08a5.52,5.52,0,0,1-5.17,4.31L141,867c3.83-.15,6.63-2.7,7.89-7m3.22-12.31,1.41-4.41-9.74-3.12c-3.57-1.14-5.11-3.29-4.26-5.94.72-2.25,2.56-2.92,5.35-2l11.06,3.54,1.43-4.44-11.43-3.66c-4.9-1.57-8.13-.3-9.41,3.67a6.33,6.33,0,0,0,2,7.17l-11.65-3.73-1.41,4.4Zm-5.24-34.28L148,810.2l9.34,3.48c3.65,1.37,6.47.77,8.08-3.57a14.54,14.54,0,0,0,.79-3.08l-3.65-1.37a7,7,0,0,1-.45,1.86c-.67,1.81-1.89,2.3-3.84,1.57l-8.65-3.23,1.65-4.41-3.14-1.17-1.65,4.41-6.29-2.35.11,5L144.9,809l-1.21,3.25Zm.06-18.65,1.86-4.65-4.47-1.79L142.42,793Zm21,8.15,1.72-4.29-17.91-7.18-1.72,4.3Zm-13.71-18,17.65,7.8,1.87-4.23L163.48,784c-2.82-1.25-3.94-3.22-3-5.34.83-1.88,2.54-2.3,5-1.23l11,4.86,1.88-4.23L168,773.47c-2.83-1.25-3.85-3.14-2.9-5.29.86-1.95,2.52-2.35,5.1-1.22l10.87,4.82,1.87-4.24-11.54-5.11c-4.16-1.83-7.46-.88-9,2.5a6.32,6.32,0,0,0,1.16,7.1,5.4,5.4,0,0,0-5.82,3.43,5.79,5.79,0,0,0,1.29,6.81l-3.14-1.38Zm29-42c-5.32-2.58-9.63-1.11-12.08,3.92-2.51,5.18-.49,10,5.25,12.8s10.47,1.15,13.05-4.17c1.72-3.54,1.39-7.09-1-9.84l-3,2.48a4.84,4.84,0,0,1,.82,5.64c-1.33,2.74-4.1,3.67-7,2.29L185,743.79Zm-2.82,3.69-3.93,8.1c-2.85-1.47-3.87-3.81-2.58-6.45,1.19-2.47,3.38-3.16,6.23-1.78Zm-.58-22.74,2.4-4.4-4.23-2.31-2.41,4.4Zm19.87,10.58,2.21-4.07-16.94-9.24-2.21,4.06Zm5.19-9.59,2.31-4-8.86-5.12c-3.18-1.83-4.24-4.31-2.89-6.66,1.22-2.11,3.1-2.36,5.74-.83l10,5.75,2.33-4-10.36-6c-4.49-2.59-7.89-2-10,1.63a6.57,6.57,0,0,0,.47,7.67l-3.24-1.87-2.2,3.81Zm21.45-34.69c3-4.68,2-9.94-3.43-13.44s-10.58-2.18-13.58,2.5-2.07,9.92,3.36,13.4,10.64,2.21,13.65-2.46m-3-1.9c-1.6,2.5-4.45,2.79-8.15.41s-4.56-5-2.95-7.55,4.36-2.8,8.07-.41,4.65,5.05,3,7.55m14.21-15a6.35,6.35,0,0,0,.11-7.25l2.95,2,2.51-3.61-15.85-11-2.66,3.83,8.78,6.11c2.66,1.85,3.43,4.46,2,6.55-1.28,1.84-3.21,1.91-5.52.3l-9.61-6.67-2.64,3.8,10.17,7.07c3.71,2.58,7.09,2.72,9.78-1.15m.19-26.19L234,644.26l-2.59,3.46L246.8,659.3l2.78-3.69-6.45-4.85c-1.73-1.3-3.38-2.77-3.65-4.91a5.46,5.46,0,0,1,1.33-4l.37-.5-3.55-2.66a2.24,2.24,0,0,0-.35.41c-1.89,2.5-1.44,5.39.41,8m28.89-12.58c3.16-3.9,3.2-7.63.26-10-2.49-2-5-2.05-7.94.73l-2.4,2.23c-1.47,1.44-2.62,1.65-3.64.82-1.18-1-1-2.4.38-4.11a5.45,5.45,0,0,1,5.81-1.95l.67-3.58c-3-1.15-6.38.09-9,3.33-3.08,3.82-3.16,7.52-.37,9.78,2.43,2,5.25,1.87,8.16-.93l2.15-2c1.55-1.48,2.57-1.7,3.77-.73s1.05,2.45-.41,4.24a5.49,5.49,0,0,1-6.43,2l-1,3.64c3.6,1.32,7.16,0,10-3.41M277.88,621c2.05-2.36,2.58-5.13,1.42-7.37a25.84,25.84,0,0,0,2.7,1.94l3-3.48a23.76,23.76,0,0,1-4.89-3.5l-4.33-3.78c-4.22-3.68-7.73-3.36-11.48,1-3.28,3.75-3.49,7.86-.58,10.81l3.12-3.57c-1.56-1.57-1.57-3.38-.07-5.09s3.29-1.9,5.47,0l.38.33-2.31,3.41a17,17,0,0,0-2.83,5.89,5,5,0,0,0,1.74,4.64c2.59,2.26,6,1.78,8.62-1.19m-1.48-3.29c-1.35,1.55-2.94,1.79-4.17.72s-1.18-2.57.17-4.77l2.38-3.72.93.81c2.33,2,2.57,4.81.69,7m-5.17-32-3.13,3.41L288.73,608l3.13-3.42Zm28.72,11c2.18-2.26,2.84-5,1.79-7.3a26.85,26.85,0,0,0,2.6,2.08l3.21-3.33a23.09,23.09,0,0,1-4.71-3.74l-4.14-4c-4-3.88-7.55-3.74-11.51.38-3.46,3.59-3.88,7.69-1.11,10.77l3.29-3.41c-1.48-1.64-1.41-3.44.18-5.08s3.38-1.73,5.46.28l.36.34L292.9,587a16.88,16.88,0,0,0-3.12,5.74,4.94,4.94,0,0,0,1.51,4.72c2.48,2.38,5.93,2.07,8.66-.76m-1.31-3.36c-1.42,1.48-3,1.64-4.2.52s-1.06-2.63.41-4.76l2.55-3.6.89.86c2.23,2.14,2.33,4.92.35,7M316,580.47a6.44,6.44,0,0,0,1.72-7.12l2.4,2.49,3.14-3-19.41-20.15-3.33,3.21,7.92,8.23a5.78,5.78,0,0,0-6.22,1.55c-3.48,3.35-3,8.62,1.17,13s9.24,5.09,12.61,1.85m-1.32-3.65c-2,1.95-5,1.37-7.87-1.6s-3.3-5.88-1.27-7.84,4.75-1.52,7.38,1.21l.86.89c2.51,2.61,2.84,5.46.9,7.34M333.6,564.1c3.75-3.34,4.39-7,1.87-9.85-2.13-2.39-4.65-2.83-8-.56l-2.72,1.82c-1.69,1.19-2.86,1.21-3.74.23s-.6-2.53,1.05-4a5.43,5.43,0,0,1,6-1l1.23-3.43c-2.72-1.6-6.31-.93-9.42,1.85-3.66,3.26-4.33,6.91-1.94,9.59,2.09,2.33,4.88,2.69,8.21.38l2.44-1.66c1.77-1.21,2.81-1.27,3.84-.12s.65,2.59-1.08,4.13a5.52,5.52,0,0,1-6.67.94l-1.53,3.44c3.34,1.88,7.06,1.19,10.37-1.77m9-15.61L338.48,552l3.47,4.09,4.17-3.55Zm18.85-8.6,4.6-3.52-8.55-18.74a12.33,12.33,0,0,0-.8-1.42l.12-.1a11.56,11.56,0,0,0,1.17,1.15l15.85,13.16,4.59-3.52L367,501.17l-4,3.07,8.89,18.48a15,15,0,0,0,.93,1.61l-.09.07a10.29,10.29,0,0,0-1.36-1.29l-16-13-4,3L359.71,532a10.68,10.68,0,0,0,.89,1.67l-.1.07a13.2,13.2,0,0,0-1.31-1.33L343.69,519l-4,3.07Zm31.95-36.38c-3.35-4.88-7.82-5.73-12.44-2.56s-5.37,8.46-1.77,13.71,8.54,6.17,13.41,2.83c3.25-2.23,4.71-5.48,4-9.06l-3.84.67a4.86,4.86,0,0,1-2.07,5.31c-2.52,1.73-5.38,1.17-7.25-1.49l11.16-7.67Zm-4.28,1.81-7.42,5.09c-1.75-2.68-1.47-5.22.95-6.88,2.26-1.55,4.5-1.08,6.3,1.53ZM418,500.88c4.28-2.63,5.57-6.13,3.59-9.36-1.68-2.73-4.07-3.62-7.72-2l-3,1.3c-1.87.87-3,.68-3.71-.45-.79-1.28-.14-2.58,1.73-3.73a5.43,5.43,0,0,1,6.13.09l1.82-3.15c-2.39-2.07-6-2.05-9.6.14-4.18,2.56-5.49,6-3.61,9.09,1.63,2.67,4.32,3.51,8,1.84l2.71-1.21c1.95-.87,3-.74,3.79.58s.18,2.65-1.79,3.86a5.52,5.52,0,0,1-6.73-.26l-2.12,3.11c2.94,2.44,6.73,2.43,10.52.11m.29-19.44,3-1.74,5,8.63c2,3.37,4.5,4.7,8.51,2.39a14.09,14.09,0,0,0,2.57-1.89l-2-3.37a7.28,7.28,0,0,1-1.52,1.15c-1.67,1-2.93.57-4-1.23l-4.61-8,4.07-2.35-1.68-2.91-4.07,2.36-3.36-5.82-3.09,3.93,2.44,4.21-3,1.73Zm27.25,3.38c2.75-1.5,4.2-3.92,3.89-6.42a26.91,26.91,0,0,0,1.86,2.76l4.06-2.21a23.18,23.18,0,0,1-3.36-5l-2.75-5.05c-2.67-4.92-6.07-5.84-11.09-3.11-4.38,2.38-6,6.16-4.31,9.94l4.17-2.27c-.91-2-.3-3.7,1.71-4.79,2.17-1.18,3.74-.63,5.13,1.91l.23.44-3.35,2.4A17,17,0,0,0,437,478a4.94,4.94,0,0,0,0,5c1.65,3,5,3.76,8.5,1.89m-.25-3.6c-1.79,1-3.38.65-4.15-.78s-.22-2.82,1.82-4.42l3.52-2.65.59,1.08c1.47,2.72.74,5.4-1.78,6.77m21.92-7.71c4.12-2,5.86-5.82,4.59-10l-4.3,1.14c.81,2.61.16,4.52-1.91,5.55-2.67,1.31-5.28-.06-7.13-3.81-1.76-3.56-1.23-6.5,1.33-7.76,2-1,4-.39,5.47,1.83l3.72-2.66c-2.46-3.69-6.4-4.59-10.69-2.47-5.26,2.6-6.82,7.63-4,13.27s7.79,7.43,12.95,4.88M490.68,462l4.9-2.18-11.51-7.72,3.38-9.78-5.15,2.29-3.39,10.89-7-15.76-4.23,1.88,11.39,25.56,4.23-1.88L480.94,460l1.4-3.88Zm23.3-9.24a6.39,6.39,0,0,0,4.18-5.94l1.29,3.34,4.1-1.57-6.91-18-4.36,1.67,3.83,10c1.16,3,.34,5.62-2,6.53-2.09.8-3.73-.22-4.74-2.86L505.14,435l-4.32,1.66,4.44,11.57c1.62,4.22,4.33,6.23,8.72,4.55m17.93.68,4.38-1.49-3.3-9.75a6.24,6.24,0,0,0,6.45,1.23c4.5-1.52,6.31-6.29,4.31-12.18s-6.19-8.54-10.57-7.05a6.52,6.52,0,0,0-4.63,5.59l-1.08-3.17L523.3,428ZM537,440.49c-2.6.88-5-.79-6.19-4.3l-.31-.92c-1.25-3.69-.32-6.34,2.32-7.23s5,.84,6.34,4.75.47,6.81-2.16,7.7m33.67-27.3a6.87,6.87,0,0,1,1.54-.25l-1-3.33a4.53,4.53,0,0,0-1,.18,4.85,4.85,0,0,0-3.88,4.84,10.06,10.06,0,0,0-4.11.42c-4.74,1.39-6.87,4.79-5.79,8.46a6.21,6.21,0,0,0,3.65,4.08,4.24,4.24,0,0,0-1.72,4.78,3.53,3.53,0,0,0,3.31,2.64c-1.81,1.25-2.48,2.9-2,4.53.78,2.63,3.75,4.09,10.07,2.22,6.71-2,9.16-5.39,8-9.2-1-3.45-3.79-4.68-8.13-3.4l-4.81,1.42c-2.08.61-3.06.13-3.36-.87A1.61,1.61,0,0,1,562,428a10,10,0,0,0,3.94-.44c4.71-1.38,6.81-4.9,5.73-8.56a6,6,0,0,0-3.27-3.87,3.17,3.17,0,0,1,2.31-2m-5.56,11.71a3.49,3.49,0,0,1-4.48-2.63,3.56,3.56,0,1,1,6.83-2,3.49,3.49,0,0,1-2.35,4.6m5,8.26c2.15-.63,3.45-.17,3.89,1.31s-.59,3.08-4.77,4.31c-3.22,1-5.55.83-6.13-1.13a2.76,2.76,0,0,1,.68-2.74c.45-.09,1-.21,1.5-.36Zm18.28-4.2c5.4-1.36,8.28-5.86,6.69-12.15s-6.23-8.82-11.62-7.46-8.29,5.83-6.72,12.08,6.26,8.89,11.65,7.53m-.85-3.4c-2.89.73-5.16-1-6.23-5.28s.12-6.8,3-7.53,5.1.95,6.17,5.22-.06,6.86-2.94,7.59M610,424c5.44-1.14,8.5-5.53,7.16-11.88s-5.88-9.05-11.32-7.91-8.51,5.49-7.18,11.8,5.89,9.14,11.34,8m-.72-3.43c-2.92.61-5.11-1.22-6-5.53s.39-6.78,3.3-7.4,5.06,1.15,6,5.46-.33,6.86-3.24,7.47m20.89-.48a6.43,6.43,0,0,0,5.44-4.91l.57,3.42,4.3-.72-4.66-27.6-4.56.78,1.9,11.26a5.79,5.79,0,0,0-6-2.23c-4.76.8-7.34,5.42-6.34,11.36s4.76,9.42,9.37,8.64m1-3.76c-2.78.47-4.91-1.68-5.6-5.76s.6-6.71,3.37-7.18,4.79,1.42,5.42,5.16l.21,1.21c.6,3.58-.74,6.12-3.4,6.57m23.75-20.18,2,19.19,4.6-.46-1.13-11.1c-.32-3.08.85-5,3.15-5.25,2-.21,3.26,1.06,3.53,3.71l1.21,11.95,4.61-.47-1.14-11.21c-.32-3.08.82-4.9,3.16-5.14,2.12-.21,3.29,1,3.58,3.83l1.2,11.83,4.6-.47L683,400c-.46-4.53-2.91-6.91-6.6-6.54a6.34,6.34,0,0,0-5.6,4.52,5.4,5.4,0,0,0-5.85-3.36c-2.69.28-4.4,1.73-5.29,4.5l-.35-3.42Zm33.23-6.36,5-.38-.36-4.8-5,.37ZM690,412.19l4.61-.34-1.44-19.25-4.62.35Zm11-.79,4.63-.17L705.26,401c-.13-3.66,1.41-5.88,4.12-6,2.43-.09,3.64,1.38,3.75,4.42l.41,11.5,4.67-.17-.43-12c-.19-5.17-2.48-7.74-6.68-7.6a6.61,6.61,0,0,0-6.26,4.47l-.13-3.73-4.4.16Zm29.32-.32a6.44,6.44,0,0,0,6.19-3.92l0,3.47h4.36l.09-28h-4.63l0,11.42a5.8,5.8,0,0,0-5.55-3.22c-4.82,0-8.15,4.1-8.17,10.13s3.09,10.08,7.77,10.1m1.59-3.54c-2.82,0-4.55-2.49-4.54-6.62s1.72-6.53,4.54-6.52,4.47,2.22,4.46,6v1.24c0,3.63-1.76,5.9-4.46,5.9m26-18.93,5,.2.2-4.81-5-.21Zm-.7,22.49,4.62.2.8-19.28-4.62-.2Zm10.9.51,4.61.32.69-10.21c.25-3.66,2-5.7,4.71-5.53,2.43.17,3.49,1.75,3.28,4.79l-.78,11.48,4.66.32.81-11.95c.35-5.15-1.67-8-5.86-8.24a6.6,6.6,0,0,0-6.69,3.8l.25-3.73-4.38-.3Zm40.64,4.25c5.51.73,9.85-2.4,10.71-8.83s-2.55-10.49-8.06-11.22-9.85,2.36-10.69,8.75,2.53,10.57,8,11.3m.46-3.48c-3-.39-4.42-2.84-3.84-7.21s2.62-6.27,5.57-5.88,4.39,2.76,3.81,7.12-2.59,6.36-5.54,6m19.61,6.35a6.39,6.39,0,0,0,6.62-3l-.6,3.54,4.33.74,3.24-19-4.6-.78-1.79,10.54c-.55,3.2-2.58,5-5.09,4.58-2.22-.38-3.1-2.1-2.62-4.88l2-11.53-4.57-.78-2.08,12.22c-.76,4.45.54,7.57,5.19,8.36m23.59-11.09.9-4.58-4.24-.83-3.72,18.94,4.54.89,1.55-7.92c.42-2.12,1-4.24,2.84-5.42a5.52,5.52,0,0,1,4.2-.55l.61.12.85-4.36a2.33,2.33,0,0,0-.52-.13c-3.07-.61-5.48,1-7,3.84m23.92,20.71c4.87,1.22,8.27-.32,9.18-4,.78-3.11-.27-5.44-4-6.89l-3-1.23c-1.93-.72-2.61-1.69-2.29-3,.36-1.46,1.75-1.91,3.89-1.38a5.45,5.45,0,0,1,4.22,4.43l3.53-.91c-.21-3.15-2.78-5.74-6.83-6.75-4.76-1.18-8.15.32-9,3.8-.76,3,.53,5.54,4.3,7l2.76,1.09c2,.77,2.62,1.6,2.25,3.1s-1.77,2-4,1.43a5.51,5.51,0,0,1-4.53-5l-3.7.67c.32,3.82,3,6.51,7.3,7.58m17,4.42c3,.83,5.74.1,7.26-1.92a27.65,27.65,0,0,0-.59,3.28l4.47,1.22a22.89,22.89,0,0,1,1-5.92l1.53-5.54c1.48-5.4-.33-8.42-5.83-9.93-4.81-1.33-8.61.27-10,4.17l4.57,1.25c.74-2.08,2.36-2.87,4.56-2.27,2.38.66,3.13,2.15,2.36,4.94l-.13.49-4.08-.61a17.18,17.18,0,0,0-6.53,0,5,5,0,0,0-3.43,3.59c-.91,3.31,1,6.2,4.81,7.25M895.7,430c-2-.55-2.89-1.88-2.46-3.44s1.8-2.19,4.38-1.92l4.38.52-.33,1.2c-.82,3-3.21,4.4-6,3.64m13.92,6.93,4.42,1.39,3.08-9.75c1.1-3.5,3.3-5.07,5.88-4.26,2.32.73,3,2.52,2,5.43l-3.46,11,4.45,1.4,3.61-11.41c1.55-4.93.26-8.13-3.76-9.4a6.6,6.6,0,0,0-7.39,2.12l1.13-3.57-4.2-1.32Zm27.67,9.65a6.44,6.44,0,0,0,7.15-1.63l-1.17,3.27,4.1,1.46,9.4-26.36-4.35-1.56-3.84,10.77a5.8,5.8,0,0,0-4.17-4.89c-4.54-1.62-9.06,1.15-11.08,6.83s-.44,10.54,4,12.11m2.69-2.81c-2.66-.95-3.47-3.86-2.08-7.75s3.79-5.58,6.45-4.63,3.48,3.57,2.21,7.14l-.42,1.16c-1.22,3.42-3.62,5-6.16,4.08m16.42,9.36,4.35,1.79,8-10.49c.33-.49.78-1.18,1-1.62l.07,0a13.48,13.48,0,0,0-.4,1.88l-1.78,13,4.35,1.79,12.28-15.81L980.06,442l-7.69,10.73-1.11,1.8-.07,0c.2-.71.31-1.46.44-2.08l1.94-13.1-4-1.66-7.83,10.67c-.38.51-.8,1.13-1.19,1.77l-.07,0c.21-.71.34-1.45.47-2.06l2.15-13-4.2-1.73Zm33-10.52,4.58,2,2-4.41-4.59-2Zm-8.87,20.68,4.23,1.87,7.79-17.66-4.24-1.87Zm16.83,8.23c4.16,2,8.21,1,10.66-2.62l-3.57-2.66c-1.53,2.26-3.43,2.95-5.53,2-2.69-1.27-3.24-4.18-1.47-8,1.7-3.6,4.32-5,6.91-3.8,2.06,1,2.81,2.9,2,5.41l4.4,1.26c1.34-4.23-.4-7.86-4.74-9.9-5.3-2.5-10.21-.58-12.89,5.11s-1,10.73,4.25,13.18m12.25,5.46,4.11,2.12,4.69-9.09c1.71-3.33,4.09-4.49,6.56-3.22,2.1,1.08,2.46,3,1.11,5.6l-5.31,10.34,4.14,2.14,5.5-10.68c2.35-4.56,1.63-8-2.07-9.88a6.34,6.34,0,0,0-7.41.79l5.6-10.88-4.11-2.12Zm39.93,9.53c2.9-5.16,1.69-9.55-3.19-12.29s-10-1.08-13.09,4.48-1.76,10.39,3.39,13.27c3.44,1.93,7,1.81,9.89-.42l-2.3-3.15a4.85,4.85,0,0,1-5.68.49c-2.66-1.49-3.43-4.32-1.87-7.17l11.82,6.63Zm-3.51-3-7.85-4.41c1.64-2.76,4-3.63,6.59-2.19,2.39,1.34,3,3.56,1.41,6.32Zm8.16,18.78c4.29,2.61,8,2.16,10-1.07,1.66-2.74,1.35-5.27-1.78-7.77l-2.53-2.08c-1.63-1.27-2-2.39-1.3-3.51.78-1.29,2.24-1.3,4.12-.16a5.43,5.43,0,0,1,2.71,5.5l3.64.18c.74-3.07-.94-6.31-4.51-8.48-4.18-2.55-7.87-2.13-9.74.93-1.62,2.68-1.15,5.45,2,8l2.31,1.86c1.67,1.33,2,2.31,1.22,3.63s-2.29,1.37-4.27.16a5.52,5.52,0,0,1-2.83-6.11l-3.73-.46c-.83,3.74.91,7.1,4.7,9.41m17.55,4.11-4.61-3-2.89,4.51,4.6,3Z" transform="translate(-0.41)"/></g></g></g></svg>