<?xml version="1.0" encoding="utf-8"?>
<!-- Generator: Adobe Illustrator 24.1.3, SVG Export Plug-In . SVG Version: 6.00 Build 0)  -->
<svg version="1.1" id="레이어_1" xmlns="http://www.w3.org/2000/svg" xmlns:xlink="http://www.w3.org/1999/xlink" x="0px"
	 y="0px" viewBox="0 0 1938 1099" style="enable-background:new 0 0 1938 1099;" xml:space="preserve">
<style type="text/css">
	.st0{fill:#E6321E;}
	.st1{fill:#F0E6D2;}
</style>
<g id="레이어_1-2">
	<rect class="st0" width="1938" height="1099"/>
	<path class="st1" d="M694.6,1015.2c-13.2,13.8-35.2,14.3-49.1,1.1c-0.6-0.6-1.3-1.3-1.9-1.9c-9.4-10.7-9.6-23.8-9.6-37.3v-17.8
		h14.7c2.7,10.5,8,15.6,16.6,15.6c6.3,0,10.5-2.8,10.5-7.7c0-5.1-3.4-7.9-11.7-11.6c-17-7.5-28.1-16.5-28.1-38.1
		c0-22.5,13.8-38.8,33.8-38.8c10.1,0,19.3,4.1,25.2,10.7c6.7,7.5,8.8,14.8,8.8,33.6v18.2h-15.3c-1.9-8.1-6.1-11.8-13-11.8
		c-5.7,0-8.8,2.3-8.8,7.1c0,6.4,7.8,8.4,16.6,12c15.5,6.6,22.2,19.7,22.2,36.6C705.3,997.6,701.3,1008.1,694.6,1015.2"/>
	<path class="st1" d="M747.5,948.1c-11-0.2-20,8.6-20.1,19.6c0,0.2,0,0.4,0,0.6c0,12,8.8,20.8,19.3,20.8s20.3-8.8,20.3-19.9
		C767,957.8,758.4,948.1,747.5,948.1 M763.7,1023.8v-13.9h-1.3c-3.6,11.6-10.7,16.7-22,16.7c-15.9,0-23.7-11.1-23.7-30.6v-57.4
		c0-18.8,8.6-28.9,23.9-28.9c10.7,0,18.2,6.2,21.8,17.1h1.3v-14.4h13.2v111.4H763.7z"/>
	<rect x="791" y="880.9" class="st1" width="13.2" height="142.9"/>
	<path class="st1" d="M847.4,948.1c-11-0.1-20,8.6-20.1,19.6c0,0.2,0,0.4,0,0.5c0,12,8.8,20.8,19.3,20.8s20.3-8.8,20.3-19.9
		C866.9,957.8,858.3,948.1,847.4,948.1 M863.6,1023.8v-13.9h-1.3c-3.6,11.6-10.7,16.7-22,16.7c-15.9,0-23.7-11.1-23.7-30.6v-57.4
		c0-18.8,8.6-28.9,23.9-28.9c10.7,0,18.2,6.2,21.8,17.1h1.3v-14.4h13.2v111.4L863.6,1023.8z"/>
	<path class="st1" d="M918.7,948.1c-10.9,0-19.5,9.6-19.5,21c0,11.1,9.8,19.9,20.3,19.9s19.3-8.8,19.3-20.8c0.2-11-8.6-20-19.6-20.1
		C919,948.1,918.9,948.1,918.7,948.1 M936.3,1023.7v-13.9h-1c-3.4,11.3-10.9,16.7-22.2,16.7c-15.5,0-23.7-10.5-23.7-31.3v-56.5
		c0-18.4,8.4-29.1,23.7-29.1c10.7,0,18.9,6,22.2,17.1h1v-45.8h13.2v142.9L936.3,1023.7z"/>
	<path class="st1" d="M1024.9,1016.9c-6.6,7-15.8,10.8-25.4,10.7c-9.8,0-19.1-4.2-25.6-11.6c-9.4-10.7-9.6-23.8-9.6-37.3V961H979
		c2.7,10.5,8,15.6,16.6,15.6c6.3,0,10.5-2.8,10.5-7.7c0-5.1-3.4-7.9-11.7-11.6c-17-7.5-28.1-16.5-28.1-38.1
		c0-22.5,13.8-38.8,33.8-38.8c10.1,0,19.3,4.1,25.2,10.7c6.7,7.5,8.8,14.8,8.8,33.6V943h-15.3c-1.9-8.2-6.1-11.8-13-11.8
		c-5.7,0-8.8,2.4-8.8,7.1c0,6.4,7.8,8.4,16.6,12c15.5,6.6,22.2,19.7,22.2,36.6C1035.6,999.3,1031.6,1009.8,1024.9,1016.9"/>
	<path class="st1" d="M1075.4,949.4c-9.2,0-15.9,5.8-18.9,14.6h37.5C1091.6,954.3,1084.7,949.4,1075.4,949.4 M1095.8,1020.1
		c-11.1,10.7-28.6,10.8-40,0.4c-8-7.1-9.6-19.1-9.6-29.6v-43.5c0-20.8,10.3-36.2,28.5-36.2c18.7,0,30.4,12.2,30.4,36.2v27h-48.4
		c1.9,9.2,9,15.4,19.5,15.4c6.9,0,12.4-2.1,18.4-7.5h10.4v9.9C1105,1001.7,1104,1011.7,1095.8,1020.1"/>
	<rect x="1117.8" y="882.6" class="st1" width="13.2" height="142.9"/>
	<rect x="1147.4" y="882.6" class="st1" width="13.2" height="142.9"/>
	<path class="st1" d="M1202.3,949.4c-9.2,0-15.9,5.8-18.9,14.6h37.5C1218.5,954.3,1211.6,949.4,1202.3,949.4 M1222.7,1020.1
		c-11.1,10.7-28.6,10.9-40,0.4c-8-7.1-9.6-19.1-9.6-29.6v-43.5c0-20.8,10.3-36.2,28.5-36.2c18.7,0,30.4,12.2,30.4,36.2v27h-48.4
		c1.9,9.2,9,15.4,19.5,15.4c6.9,0,12.4-2.1,18.4-7.5h10.5v9.9C1231.9,1001.7,1230.9,1011.7,1222.7,1020.1"/>
	<path class="st1" d="M1291.2,982.6v-9c0-11.1-1.3-15.2-4.4-18.8c-3-3.3-7.3-5.1-11.7-5.1c-11.3,0-17.2,7.9-17.2,24.2v51.6h-13.2
		V914h13.2v14h1c4.6-11.6,11.5-16.7,22-16.7c6.9,0,12.4,2.4,15.9,6c5.7,5.8,7.8,11.1,7.8,24.8v40.5L1291.2,982.6z"/>
</g>
</svg>
