<svg xmlns="http://www.w3.org/2000/svg" viewBox="0 0 1324.3 706.83"><defs><style>.cls-1{fill:#f0e6d2;}.cls-2,.cls-3{fill:none;stroke:#f0e6d2;}.cls-2{stroke-miterlimit:10;stroke-width:5px;}.cls-3{stroke-miterlimit:9.98;stroke-width:4.99px;}</style></defs><g id="레이어_2" data-name="레이어 2"><g id="레이어_1-2" data-name="레이어 1"><path class="cls-1" d="M291.7,468.07c-7.62,1.65-13.87-2.3-18.58-6.85-8-7.73-15.39-16.32-18.76-27.49-2.46-8.16.94-19.6,7.34-25,2.68-2.26,5.8-2.65,8.76-2.82a12.17,12.17,0,0,0,9-4.21c1.81-2.06,5.67-3.34,4.6-6.69-1-3.07-4.57-1.67-7-2.26-23.93-5.85-44.13-33.46-42.57-58.25.6-9.62-1.59-19.71,3-28.66,3.71-7.18,5.92-14.93,12.7-21,5-4.44,9.41-9.86,14.56-14.57,6.31-5.77,14.75-6.69,21.44-11.64,4.5-3.34,10.45-6.76,15.71-7.65,6.69-1.13,12.31-4.29,18.44-5.8,8-2,12.24-7.34,14.76-13.2a156.47,156.47,0,0,1,30.65-45.77c11-11.64,23.93-21.49,36.29-31.81,4-3.29,9.41-3.47,14.33-3.09,12.22.93,23.51-2.44,34.87-6.15,2.81-.92,6.28-.63,9.26,0,10.48,2.15,21.81-2.61,31.8,4.42,2.09,1.47,6.19.27,9.25.09,8.33-.49,15.26,3.74,22.73,5.92,3.76,1.09,5.13,5.61,5.47,9.45s-2.91,4.79-6.11,5.69c-16.83,4.75-33.25,11-50.8,13.05-8.29,1-10,3.69-9.35,12.52.26,3.54-6.7,7.92-12.09,7.09-2.56-.39-5.47-2.08-7.17.35-1.86,2.65,1.37,4.75,2.62,6.73,2.73,4.29,1.28,8.81.81,12.93-.69,5.88,1.66,8,6.74,9.41a65.78,65.78,0,0,0,16,2.66c6.7.24,13.2,5,19.86,7.55,10.05,3.9,17,12,25,18.5,9.43,7.67,16.15,17.56,22.57,27.7,2.21,3.51,5.8,5,9.67,6.19,18.13,5.71,28.07,18.86,32.81,36.62,1.72,6.44-1.41,11.73-4.23,17-1,1.83-3.4,3.47-5.34,2.11-2.68-1.89-3.4-5.51-3.33-8.5.38-15.84-12.64-32-27.94-34.24-5.68-.84-9.48-4.94-12.17-9.19-10.42-16.54-23.27-30.78-39.37-41.71-12.77-8.68-27.91-11.53-42.73-14.66-20.28-4.25-39.58-3.05-56.66,10.68-4.45,3.58-9.24,4.58-14.83-.16-9.21-7.81-30.56-6.44-39.33,1.48-1.34,1.22-2.65,3.26-4.62,1.93-9.78-6.56-18.49.11-26.6,3.2a211.39,211.39,0,0,0-33.92,16.36c-20.55,12.4-30,31.2-29.29,53.79,1,32.32,15,43.39,39.51,54.31,3.2,1.43,7.73.83,11.38,0,5.62-1.26,5.89-7.74.91-14.09-9.06-11.56-9.36-32.41,2-41.32,3.93-3.07,4.39-7.87,9.5-10.5a44.56,44.56,0,0,1,31.18-4.12c2.13.45,4.6,1.3,6.85-.38,6.2-4.62,12.31-9.39,18.76-13.63,4.48-2.95,10.18-2.27,15.2-4.64,11.09-5.22,23-4,34.62-1.32,12.29,2.83,17.36,1.44,23.1-6.39,3.21-4.39,2.36-9.53,3.28-14.31.39-2-2.12-5,.87-6.18,3.31-1.26,6.33.94,8,3.67a130.56,130.56,0,0,1,7.07,14.09c1.5,3.31,3.26,6.76,3.62,10.28.74,7.13,6.31,10.34,11.31,11.7,6.44,1.74,9.54,6.39,12.84,10.65,3.76,4.87,6.23,10.65,11.93,13.92,1.84,1.06,2.18,3.37,3,5.33,2.2,5.26,5.2,9.25,12.29,7.25,11-3.09,17.9.47,23.21,11,3.8,7.59,8.33,9.51,16.55,6,10.57-4.52,21.53-5.91,32.84-5.58,4.45.12,7.53-.83,7.62-6.44.06-4.35,2.86-8.18,6.14-10.71,11.24-8.68,21.92-18.48,36.18-22.21,16.44-4.32,32.59-5.74,46.57,6.78,2.62,2.33,5.17,2.33,7.9.74,21.6-12.62,43-.79,56.16,16.21,3.24,4.18,6.76,6.39,11.49,7.24,5.93,1,10.72,4.22,15.07,8,7.1,6.17,9.24,6.29,15.12-1.56,8.41-11.24,20.9-17.23,31.84-25.15,4.26-3.07,10.55-2.62,14.76,1,3.72,3.18,8.37,4.39,12,7.38,1.27,1.05,2.8,1.84,4.25.56,8.68-7.69,18.1-7,27.33-1.76,9.67,5.51,16.94,13.52,19.8,24.56a58.45,58.45,0,0,1,.77,26.21c-3.11,16.8-7.87,33.2-10.65,50-1,5.86-3.78,10.89-6.27,16.09-4.41,9.22-3.8,10.83,6.33,13.48a99.94,99.94,0,0,1,15.63,5.23c12.67,5.69,14.13,12.62,10.75,26.27-3.71,15-15.39,19.78-26.39,26.2-14.73,8.59-31.08,11.32-47.64,10.59-20-.87-39.94,2-60.13-.61-17.75-2.32-35.93,0-53.85,2.74-7.35,1.13-15,0-22.55-.79a105,105,0,0,0-20.9-.07,93.67,93.67,0,0,1-23.66,0c-9.54-1.37-19-.14-28.43.27-34.56,1.49-69.15.2-103.75,1.77C497.72,539,474,541,450.39,539.47c-10.12-.65-20.47-2.63-30.47-2.31-7.72.25-15.51.34-23.26.47-16.67.29-33.34.7-50,.81-5.06,0-6.28,1.41-6.4,6.92-.29,12.69,6.65,21.72,13.28,31a208.09,208.09,0,0,0,71.73,63.65c34.9,18.83,72.52,30.61,109.93,43C556.72,690.2,578.55,696,601,699.14a252.38,252.38,0,0,0,102.17-6.55c26.3-7.11,47.4-21.89,66.3-40.66,5.64-5.61,9.74-12.27,13.88-19,6.87-11.17,14-22.18,20.34-33.67,9-16.22,12-34,15.83-51.75.41-1.94-.31-4.9,2.69-4.82,2.14,0,3.61,2.26,4.14,4.32a23.56,23.56,0,0,1,0,11,176.07,176.07,0,0,1-30.59,68.91c-5,6.72-8.18,14.82-13.58,21.11-22.56,26.3-49.85,44.84-84.69,51.47-16.27,3.1-32.55,7.16-49,7.34-24.6.27-49.23-.79-73.49-6.85-34-8.49-66.53-21.14-99.86-31.51C459.44,663.56,445,655,430.19,647.81A246.86,246.86,0,0,1,386,620.14a190.38,190.38,0,0,1-39.89-42.7c-7.06-10.3-13.88-20.22-15-33.07-.4-4.64-3.94-6.67-8.13-7.31-19.46-3-36.72-12.21-54.69-19.41-5.5-2.2-9.75-6.35-13.81-10.35-5.79-5.72-3.56-21,3.9-24.27a51.17,51.17,0,0,0,14.22-9.44c2.59-2.35,4.94-1.79,6.86.32,2.14,2.35.37,4.34-1.54,5.92-3.84,3.17-7.8,6.2-11.62,9.4-8.07,6.79-7.78,16.24,1.31,21.52,17.6,10.23,36.59,17.67,56.95,18.2,13.31.35,26.85,3.24,40.32-.74,6.3-1.86,13,.73,19.57,1.34,9.22.87,18.17-1.9,27.36-1.53,23.56,1,47.12,2.46,70.69,2.4,24.36,0,48.73-1.79,73.1-2.58,19.25-.62,38.48-1.36,57.77-.84s38.52-.44,57.79-.39c9.94,0,19.88,1.12,29.82,1.25,22.07.3,43.91-4.78,66.07-3,24.78,2,49.59.76,74.38.6,21.75-.15,41.22-7.55,55.89-23.3,9.6-10.3,12.2-18.5-4.83-23.07-4.55-1.23-9.52-2.35-13.35-4.47-9.94-5.5-14.31.51-19.06,7.13a53.19,53.19,0,0,1-4.9,6.1c-7,7.1-16.37,6.71-22.62-1-2-2.44-3.34-5.37-5.31-7.82s-4.67-4.72-6.9-.77c-4,7.07-13,6.44-17.66,12.29-.38.48-1.49.45-2.27.52-15.3,1.34-29.76-1.39-44.58-8.39,5.12-4.19,9.65,1.46,13.75-1.73-.39-3.53-4-3.18-5.9-3.93-4.66-1.84-7-5.2-8.51-9.53-.64-1.86,0-4.84-3-4.73-2.1.08-2.11,2.63-2.7,4.31-3.6,10.24-8.71,19-19,24.39A31.4,31.4,0,0,1,716.59,495a27.35,27.35,0,0,0-18.28,7c-19,16.32-41.39,21.38-65.87,18.19a16.6,16.6,0,0,1-7.34-2.53c-7.9-5.66-15-5.61-24-1-20.35,10.52-41.87,8.93-62.88,1.71-12-4.12-14-14.72-6-24.88,2.21-2.8,3.57-6.26,5.7-10.1-10.87,1.26-21.17-.11-31.54-1.52-1.79-.25-6,1.05-9,1.69-5.15,1.09-9.82-.07-8.4-7.33a18.57,18.57,0,0,1,9-2.16c12.25.08,24.54,2.82,36.79-1.17,3.21-1,8-1.9,10.52,2.78.89,1.63,1.5,4.8,4.28,2.86,1.93-1.36,1.12-4,0-5.81-2.74-4.6-1.26-8.59,1.7-12.24,2.45-3,5.75-5.35,6-9.84.12-2.09,2.24-2.25,4.11-2.84,21.37-6.75,38.54-19.48,51.84-37.43,11.35-15.31,9.49-30.55-9.71-37.5-6.47-2.34-12.72-2.62-19.16-2.7-6.25-.07-12.61,1.51-18.73.77-6.85-.83-12,2.82-18,4.42-7,1.88-8.69,7.41-8.76,14.55,9.39-8.22,22.94-5.22,32-13.44.52-.46,2.64.17,3.49.9,1.07.94,1.6,2,2.9.34,3.58-4.73,8-1.65,9.19,1,1.68,3.77-1,8-5.32,9-13,2.87-24.65,9-36.9,13.76-8.82,3.39-17,7-24.1,13.3-4.43,3.93-9.4,5.23-14.34,0,1.39-2.62,2.34-6.84,5.36-7.82,10.67-3.43,14.63-11.53,17.39-21.35,3.09-11-1.76-19.16-8-27.17-2.48-3.19-6.33-3.19-9.23-2.51-2,.49-.55,4.11-.26,6.35,1.6,12.34,4.28,24.64,1,37.13-.59,2.25-.17,5.32-3.54,5-2.82-.26-6-1.33-6.37-4.82-.4-4.13.22-8.49-.07-12.46-.65-9.17,7.76-21.07-6.67-26.86a2,2,0,0,1-1-1.17c-4-14.54-16.76-23.08-24-35.38-2.37-4-5.39-7.68-10.57-8.76-12.34-2.59-17.49-10.19-15.3-22.68.05-.27-.42-.62-.61-.88-1.64,4.68-6,7.95-6.19,13.54-.07,1.92-4,3.11-6.83,2.42-11.13-2.63-22.53-2.92-33.85-3.51-18.45-1-34.8,3.92-47,18.72-2,2.43-4.35,2.55-7.1,1.78-6.08-1.7-12.27-2.95-18.6-2.41a32.79,32.79,0,0,0-27.94,20.22c-4.31,10.07-1.15,21.73,4.92,31.43,1.54,2.45,4.78,3.89,7.36,5.59a4.17,4.17,0,0,0,5.08-.39c2-1.5.89-2.75.39-4.59a27,27,0,0,1,.5-14.71c1.31-4.49,5.23-3.62,8-5.17-.15,3.35,4.83,4.1,3.66,8.34-2.93,10.6-2.51,20.67.58,31.83,2.94,10.61,7.57,16.22,17.32,19.53,17.72,6,34.12,14.1,42.41,32.43,3.16,7,7,13.71,5.73,22.13-.55,3.57-7.64,5.72-2.68,9.89,3.43,2.87,7.48-1,11.34-1a8,8,0,0,0,2.14-.75c-14.26-8.09-11.05-30.6,3-35.74,2.88-1,4.5-3.06,4.36-5.82s-3-2.29-4.91-3c-4.3-1.53-8.69-1.53-13.2-1.47-9.49.13-17.85-1.93-23.8-10.74-7.06-10.45-16.11-19.32-25.14-28.15-2.76-2.69-9.66-2.21-8.11-7.9,1.27-4.68,6.87-2.08,10.4-3.13,6.1-1.81,12.68-4.18,18.89-2s12.88,2.16,19.23,4.3c10.13,3.43,19.74,6.76,25.85,16.25.85,1.31,1.76,4.3,4,1.91,6.48-7,13.51-4,20.47-1.46,1.16.43,1.29,1.62,2.89.14,4-3.68,8.61-6.7,12.74-10.26,10.78-9.28,22.25-15.88,37.35-12.14,7.57,1.88,9.74,4.94,7.56,12.55-.86,3-1.64,6.07-2.57,9.06-3.1,9.87-1.55,13.08,8.09,17.1a38.27,38.27,0,0,1,4.75,2.78c8.73,5.25,15.47,14,27,14.4,2.49.08,5.14,2.53,7.29,4.39,7.4,6.42,7.51,21.6.44,26.73-6.69,4.86-13.77,6.62-22.32,6.62-8.89,0-14.67-3.49-18-10.46s-7.36-9.74-15.36-8.85c-7.12.77-13.94,0-21.13,3.37-4.31,2-10.39,5.27-16.32,2.51-3.55-7.15-.91-10.36,6.55-12.12,10.3-2.44,20.54-4.94,31.11-4.89,0-3.24-2-4.22-3.16-3.68-6.93,3.16-12.52-.7-18.72-2.62-12.9-4-24-14.15-38.93-11.43-3.18.57-6.8.49-8.2,3.56-1.33,2.92,2.26,4.3,3.86,6.17,2.23,2.6,4.69,5.21,8.1,6.08,10.5,2.69,16.88,9,18.31,19.92-1.22,6.54-5.77,10.74-10.9,14.61,3.29,1.64,5.33,1.48,10.67.6a16,16,0,0,1,7,.73c3.34,1,6.45.73,9.91.43,8.71-.76,17.39,2,26.21,1.12-.78,5.53-4.74,7.65-9.46,7.11-6.71-.78-13.35.24-20.17-.66-9.54-1.25-19.48-.11-29.19.69-23.59,1.93-47.18,5.18-70.83,3.89-12.8-.7-25.46-4.43-38.11-7.14-5.36-1.15-10.63-2.57-16.08-3.43-5.28-.85-10.94-2-12.76-8.46a6.77,6.77,0,0,1,6.6-1.3c10.08,2.79,20.36,5,30.32,8.13s19.76,5.45,30.22,3.54a40.77,40.77,0,0,1,8.47-.7c4,.13,18.27-12.9,18-16.72a9.82,9.82,0,0,0-.54-1.49c-4.88-18.34-22.4-40-48.29-36a4.08,4.08,0,0,1-3-.65c-5.07-4.85-10.85-1.7-16.4-2-4.07-.25-6.6-.28-8.73,3.6-1.58,2.85-16.92.84-18.1-2.1a1.71,1.71,0,0,1-.18-.77c.23-2.79,1.74-4.69,3.86-6.52,3-2.59,6.2-1,8.9-.37,3.75.86-.27,4,.74,5.85,4.89-2.67,8.13-7.92,14.45-8.68,2-.25,5-2.57,4.57-4.75-.93-5.34-2.84-10.69-7.41-14.08-3.7-2.74-7.76-1.58-11.74.34A64.82,64.82,0,0,0,283,408.72c-3.52,3.9-7.59,9.27-14.66,6.27-1.44-.61-2.14.59-3,1.68-5,6-6.28,16.42-1.94,23,5.2,7.83,10.61,15.46,19.86,19.52,3.59,1.57,9,2.86,8.48,8.92m367.43-16.74C644.26,454.61,632.9,464,619.27,468c-3.43,1-7.24,1.09-10.28,3.67-1.27,1.08-3.49,3.72-5.21.87-1.12-1.85-2.82-4.64.93-6.53,3.36-1.69,1.17-3.56-.7-4.38a12.39,12.39,0,0,0-5.41-.49c-5.31.29-6.94-2.56-6.72-7.33.26-5.62,3.58-4.46,7.18-3.56a113.43,113.43,0,0,1,14,4c6.68,2.58,14.37,4.88,21.48-.84,6.25-5,13.08-8.89,21.37-10.34a26.46,26.46,0,0,0,12.45-6.32c3.16-2.86-1.76-5.94-2-9.1-.26-3.93,2.25-3,5.18-3.22,8.9-.6,17.12,4.9,26.19,2.27,11-3.19,21.94-6.91,33.48-8,3.17-.29,4.75-1.85,2.32-4.55-11.14-12.36-32.21-18.58-45.09-2.19-7.57,9.63-8.85,10-19.43,4.29-12.47-6.7-35.45-6.82-42.11,2-7.14,9.51-16.42,15.93-25.23,23.12-8.08,6.59-16.18,12.95-27.13,15.42-18.85,4.25-18.74,5-12.66,22.53,1.86,5.35-2.21,6.75-5.63,7.22-3.76.53-7.29,1.34-10.24,3.49-5.49,4-9.93,9.49-9.45,16.18.32,4.6,5.62,7.58,10.26,8.63,20.36,4.6,39.43,1.14,56.75-10.55,6.25-4.22,14.08-4.66,19.33,1,8.17,8.87,18.45,9.33,28.74,7.36A78.4,78.4,0,0,0,694.32,489c3.2-3.38,6.07-4.13,10.39-3.1,5.93,1.4,11.93,1.85,17.42-2.06,12.08-8.61,15.61-22.45,20.87-35,1.77-4.23,2.14-9,5.71-12.48,2-2,2.77-4.5.18-6.88-4.53-4.14-28.17-.24-31.25,5.19-.65,1.13-1.22,2.31-1.9,3.43-4.56,7.59-9,15.22-13.76,22.7-2.24,3.53-5.53,5-9.39,2.34-4.13-2.86-1.81-5.63.17-8.68,4.07-6.26,7.78-12.75,12.17-20-8.77,1.14-15.21,5.75-22.52,7.29-5.67,1.19-10.21,2.06-9.23,9.61.41,3.18-2.55,5.51-4.79,7.75-8.94,8.91-15.56,19.19-18.93,31.52-.74,2.72-1.11,7-5.45,6.42s-5-4.25-4.6-7.89a25.49,25.49,0,0,1,1.68-6c4.24-11.31,10.93-21.26,18-31.91M639.72,346.59c-1.53-3.48-5.52-6.39-2.07-8.84,4-2.83,6.26,1.91,7.55,4.56,1.42,2.9,2.12,6.13,5.84,6.24,8.44.27,16.45,5.52,25.19,2.18,2.29-.87,4.09-1.54,5.46,2,1.94,5,7,4.41,10.72,3.15,4.64-1.54.23-4.69.09-7.07s-.51-4.44,2.07-5.13c2.13-.56,4.65-1.31,5.82,2.08.84,2.45,2.64,4.56,3.52,7,2.56,7.05,7.75,10,14.91,9.92a17.62,17.62,0,0,1,9.73,2.33c2.66,1.69,7.38,2.19,7.2,6.11-.26,5.55-5,2.66-8,3.15-.75.13-1.44.62-2.19.81a185.49,185.49,0,0,0-29.95,10.38c-2.2,1-4.44,2.33-6.23-.43-1.69-2.6.19-4.37,1.75-6.21,1.44-1.69,3.53-2.16,5.31-3.21,4.47-2.64,10.27-2.55,13.61-6-9.79-3.21-19.34-7.47-29.79-8.7a16.57,16.57,0,0,0-8,.54c-11.15,3.7-19.27,12-29,17.87-3.46,2.1-6.18,3.79-8.75-1.33s1-6.32,4-7.49c7.71-2.94,13.15-9.14,21.29-13.16a43.13,43.13,0,0,1-4.42-2.18c-5.34-3.55-11.33-.58-17.06-1.83-10.94-2.38-22-.54-33,1.66-1.63.33-3.32.65-3.6,2.48-.37,2.49,2.15,1.61,3.27,2.4,10.35,7.25,21.08,14.5,23.74,27.91,1.89,9.47,7.72,11.43,16,12.44,9.17,1.11,19,.63,27,6.87,2.34,1.82,3.79-.64,5.14-2,14.93-15,29.55-17.47,48-8,5.35,2.76,10.56,5.78,15.73,8.86,7.92,4.73,10.42,3.8,14.44-4,3.57-7,3-15.3,8.46-21.77,3-3.56,5.88-8.48,2-13.71-4.25-5.7-9.93-11.13-16.82-9.77-7.64,1.51-9.6-2.56-12.33-7.32-7.67-13.37-30.31-25-46.37-13.29-4.3,3.14-8.13,2.8-13,.17-5.19-2.82-9.46-7-15.74-8.5-8.8-2.11-17-.54-25.58.32-13.07,1.31-21.42,9.91-32.45,17,13,2.72,24.31.17,36.35,1.53m136.61,95.08c0,8.38-.19,15,0,21.56.29,8.11,7.44,19.64,12.32,20.39,9.48,1.46,20.38-5.22,23.43-14.47,1.73-5.26,3.15-10.6,2.71-16.23a17.41,17.41,0,0,1,2.34-9.82c6.9-12.71,16-23.9,20.63-38.25,6.51-20.07,12-39.28,2.06-59.53-2.68-5.48-6.46-9.25-13.09-7C816,341.94,807,348,800.33,357.12c-8.33,11.38-12,24.53-16,37.91-4.81,16-9.82,31.56-8.14,46.67M339.41,243.27c3.47-5.19,7.3-2.19,10.79-3.1,6.66-1.75,14.36-3.9,21-1,14.27,6.26,25.59-1.87,37-7.2,5.42-2.52,10.14-4,15.8-3.41,4,.4,7.84,2.31,10.32-3.68s3.9-10.84-1.45-15.59c-2.35-2.09-5.12-3.78-7.07-6.17-1.84-2.23-3.06-6.29.23-7.32,4.74-1.49,9.73-4.42,15.1-1.94,2,.93,4.62,1.89,5.73,0,.75-1.26-.24-4.2-1.33-5.79-1.89-2.72-3.4-5.37.51-7a121.49,121.49,0,0,1,36-9.15c9.5-.82,17.4-6,27-9.48-7.79-4.34-15.06-2.86-21.86-4.36-14-3.07-28.26-4.62-42.34-.55-6.69,1.93-13,6.27-20.22,4.26-8.31-2.3-14.9.52-21.13,5.37-10,7.81-19.11,16.75-28.89,24.72A78.63,78.63,0,0,0,358,211.59c-6,9.8-13.74,18.92-18.52,31.66M883,373.25c.54-8.25-2.47-15.52-5.93-22.65-2.68-5.5-7.13-8.53-12.76-10.92s-7.33,7.56-12.8,3.08c-.28,1.25-1,2.55-.76,3.72.44,2.84,1.43,5.58,1.93,8.41a99.75,99.75,0,0,1-2.83,46.5c-2.43,8-8.46,15.46-3.34,24.54.41.72,0,2.08-.33,3-3.88,9.45-2.45,19.53-3.55,29.31-.28,2.46-.19,3.36,3.06,3.67,9.86.94,15.49-3.14,19.86-11.94,8.94-18,10.68-37.57,13.92-56.79,1.14-6.68,4.9-12.92,3.53-19.93m-531.91,14c7.4,9.42,16.16,16.83,23.14,26,7.48,9.82,16.89,12.22,28.54,8.29,3-1,6.61-3.17,6.13-6.29-.85-5.51-1-11.61-6-15.78C387.62,386.64,369.36,387,351,387.25m133.15,6.69c.25-5.51-1.24-8.45-5.76-7.73-14.7,2.32-27.41,8.24-35.91,21.15-2.12,3.23-2.52,6.79,1.29,8.77,8,4.17,15.66,9.45,25.12,10.25,7.43.62,15.91-5.25,15.26-11.38-.81-7.55-2.78-15,0-21.06m-70.09,78.65c9.82-.15,17.23-2.59,22.5-9.79,3.56-4.87,2.67-10.41-2.82-13.06-6.92-3.33-14.67-3.5-21.89-2.18s-12.15,9.49-10.45,16.18,7.49,8.75,12.66,8.85m107.37-9.49c12,0,19.71-8.82,15.17-17.41-2-3.7-4.63-5.92-7.07-.61-2.57,5.55-5.7,4.95-9.89,2.12-2.93-2-12.71.93-13.41,4.12-1.09,5,1,8.51,6,10.44a25,25,0,0,0,9.23,1.34m-28.21-42.39c-5.17,10.72-5.17,12.52-.12,16.68,2.37,2,11.89.93,13.41-1.72,2.81-4.92-.21-7.76-4.15-10-2.91-1.66-5.9-3.2-9.14-4.95"/><path class="cls-1" d="M335.78,268.45c-1.23,4.46-7.65,1-6.49,4.88,1.34,4.57,5.44.85,7.87,0,5.24-1.87,8.82,1,13.21,3.21-1.78,3.57-6,4.33-8,4.17-7.12-.54-9.58,8.85-17.25,7.1-2.09-.47-.36,2.78.22,4.33.94,2.56,3.38,5.32-.54,7.46-3.61,2-5.15-1.09-7.06-3.14-.9-1-1.77-1.94-2.6-3a3.4,3.4,0,0,0-4.69-1l-.19.14c-1.93,1.23-2.09,2.9-.44,4.6,2.1,2.16,1.51,4.37-.13,6.35-2.22,2.71-4.18.46-6-.66-1.62-1-3.38-2.32-5-.88-2.4,2.11.78,3,1.49,4.34,1,1.88,2.42,3.85.95,5.85-1.84,2.49-4.18.51-5.5-.54-6.74-5.35-11.73-3.27-16.14,3.08-2.36,3.41-6.12,4-8.84,1.61s1.25-4.31,2.29-6.45c1.52-3.19,4-5.47,6.55-7.72,1.19-1,2.54-2.24,1.37-4-1.33-2-3.11-1.6-4.82-.42-6,4.16-13.18,6.59-17.83,12.69-1.41,1.84-3.64,4.26-5.88,2.53-2.44-1.88.08-4.4,1.27-6.11,4.35-6.29,11.11-9.56,17.67-12.79,2.74-1.34,4.65-2.48,4.12-5.65-1.22-7.26,2.55-6.66,7.24-4.7,1.4.59,2.91,1.85,4.22.19,1-1.23-.1-2.42-.77-3.55-1.14-2-1.75-3.94.59-5.5,2.12-1.42,3.37.53,4.83,1.43,6.57,4.07,8.07,3.46,10.38-4.55.45-1.57,1.28-4,2.33-3.73,9.82,3,18.9-4.71,28.58-1.75,1.13.35,2,1.44,3,2.17"/><path class="cls-1" d="M400,324c2.14-.47,5,.69,7,3.43,4.55,6.19,12,9.37,16.26,15.84,1,1.54,2.54,2,4.71,2,9.67-.06,19.32-1.63,29,0,4.05.68,6.85-3.34,11.62-3.27,6.93.11,4.46,6,6.93,8.53,2,2.12-2.7,2.62-4.53,3.57-11.58,6-23.8,4.36-35.79,2.12-11.79-2.2-14.86-1.4-20.83,8.7-.84,1.39-.16,4.23-3.22,2.74-2.32-1.13-6.31.65-6.82-3.61-.25-2.21-1.64-5,1.06-6.49,7.14-3.93,7.26-9.31,4.33-16-3.66-8.41-10.24-9.79-18-7.82-2.67.68-4.07-.71-5.64-1.7-1.87-1.19-2.19-3.6-1.59-5.63s2.55-.92,4-1c3.37-.23,6.72-.76,11.42-1.32"/><path class="cls-1" d="M779.87,260.9c4.93-2.67,7.35-7.07,6.92-11.52l3.33,4.91,4.27-2.32-9.88-18.19-14.35,7.81,2.56,4.72,8.92-4.85.34.62c1.68,3.1,3,9.65-3.68,13.29-6.36,3.45-12.42-.17-16.45-7.6-4.19-7.71-3.55-14.72,2.49-18,5.06-2.75,9-.36,11.09,2.36l5.38-4.27c-3.3-4.19-10.09-7.84-19-3-9.9,5.37-11.75,15.81-6.06,26.29s15,14.72,24.13,9.77m31.18-17.23c6.69-3.64,8.93-10.71,4.58-18.71s-11.44-9.88-18.13-6.25-9,10.66-4.63,18.61,11.49,10,18.18,6.35m-2.35-4.34c-3.58,1.94-7.21.34-10.16-5.09s-2.26-9.25,1.32-11.2,7.11-.41,10.06,5,2.36,9.33-1.22,11.27m28.79-10c6.68-3.64,8.92-10.71,4.58-18.71s-11.45-9.88-18.13-6.25S815,215,819.31,223s11.5,10,18.19,6.35M835.14,225c-3.57,1.94-7.21.34-10.16-5.09s-2.26-9.25,1.32-11.2,7.11-.41,10.06,5,2.36,9.33-1.22,11.27M862,216a8.77,8.77,0,0,0,4.79-8.89l2.33,4.29,5.25-2.85L855.6,174,850,177l7.65,14.1a7.92,7.92,0,0,0-8.84-.32c-5.8,3.15-7,10.42-3,17.85S856.35,219,862,216m-.48-5.41c-3.39,1.84-7.13-.07-9.9-5.17s-2.33-9.16,1.06-11,6.87-.21,9.4,4.46l.83,1.52c2.43,4.48,1.86,8.42-1.39,10.19m32.68-12.81,5.25-2.85L886,170.21a34.31,34.31,0,0,0-2.21-3.62l.19-.1a22.3,22.3,0,0,0,2.78,3.12l21.37,20.52,5.34-2.9-5.67-29a29.24,29.24,0,0,0-1.1-4l.14-.08a33.47,33.47,0,0,0,1.83,3.82l13.39,24.67,5.48-3-18.36-33.81-8.41,4.56,5.37,27.49a19.7,19.7,0,0,0,1.15,4.12l-.09.05a20,20,0,0,0-2.8-3.16l-20.26-19.47L875.82,164Zm25.85-50,6-3.28-3.23-5.95-6,3.28Zm15.36,27.61,5.57-3L928,148.59l-5.57,3Zm13-7,5.57-3-6.85-12.62c-2.46-4.52-2-8.25,1.3-10,2.92-1.59,5.33-.48,7.37,3.28l7.7,14.19,5.62-3.05-8-14.76c-3.47-6.39-7.9-8.24-13-5.49-3.58,2-5.2,5.05-4.87,9.43l-2.51-4.62-5.29,2.88Zm35.33-18.45a8.76,8.76,0,0,0,4.8-8.89l2.32,4.28,5.25-2.85-18.74-34.52-5.58,3,7.66,14.1a7.92,7.92,0,0,0-8.84-.32c-5.81,3.15-7,10.42-3,17.85s10.51,10.38,16.13,7.33m-.47-5.41c-3.39,1.84-7.14-.08-9.91-5.17s-2.32-9.16,1.07-11,6.86-.21,9.39,4.45l.83,1.53c2.43,4.48,1.87,8.42-1.38,10.19m21.43-19.35,4.23-2.3L996.67,97.39,990,101Zm7.29.79-6.36,3.46,3.31,6.09,6.36-3.45Z"/><path class="cls-1" d="M746.77,215.89l7-3.78-7.92-27.77a16.36,16.36,0,0,0-.81-2.15l.19-.1a16.37,16.37,0,0,0,1.37,1.85l19,21.76,7-3.78L762,163.84l-6.09,3.3,8.43,27.49a21.54,21.54,0,0,0,1,2.44l-.13.08a15.57,15.57,0,0,0-1.62-2.09l-19.25-21.61-6,3.28L746,204.65a15.52,15.52,0,0,0,.87,2.48l-.14.08a21.13,21.13,0,0,0-1.52-2.13l-18.46-22-6.09,3.3Zm49-43.59c-3.95-7.29-10-9.19-16.72-5.54-6.92,3.76-8.46,10.89-4.19,18.75s10.92,9.92,18,6.06c4.74-2.58,7.17-6.85,6.64-11.93l-5.36.32a6.65,6.65,0,0,1-3.52,7c-3.67,2-7.53.76-9.75-3.22l16.31-8.85Zm-6.1,1.83L778.85,180c-2-4-1.35-7.47,2.18-9.39,3.3-1.79,6.31-.77,8.43,3.13Zm42-3.31c8.41-4.56,10.2-11.46,7-17.27-3.25-6-8.27-6.6-14.35-4.84L819,150.26c-4.06,1.16-6.32.53-7.82-2.23s-.07-5.88,3.51-7.82c4.36-2.37,8.32-1.62,11.51,1.7l3.39-5.17c-4.49-4.84-10.89-4.76-17.16-1.35-7.43,4-10,10.41-6.8,16.27s8.12,6.76,13.91,5l5.15-1.49c4-1.21,6.61-1.12,8.39,2.16,1.91,3.53-.49,6.62-3.89,8.47-5.11,2.77-9.46,1.18-12.64-2l-3.87,5.06c4.35,4.79,11.19,6.2,19,2m3.47-28.4,4.18-2.27L846,152.48c2.61,4.81,6.1,6.8,11.67,3.77a19.26,19.26,0,0,0,3.58-2.49L858.6,149a9.66,9.66,0,0,1-2.12,1.52c-2.33,1.26-4,.65-5.44-1.92L845,137.13l5.67-3.08-2.25-4.14L842.72,133l-4.5-8.28L833.89,130l3.26,6L833,138.28Zm37.19,6c3.76-2,5.73-5.4,5.27-8.91a40.56,40.56,0,0,0,2.59,3.9l5.58-3a33.42,33.42,0,0,1-4.71-7l-3.85-7.1c-3.75-6.91-8.45-8.24-15.32-4.51-6,3.26-8.19,8.52-5.79,13.82l5.71-3.11c-1.29-2.81-.46-5.17,2.28-6.66,3-1.61,5.14-.82,7.08,2.75l.34.62-4.59,3.29c-3.38,2.52-5.28,4.35-6.4,6.26a7,7,0,0,0,.08,6.92c2.3,4.24,7,5.33,11.73,2.76m-.39-5c-2.46,1.34-4.65.86-5.73-1.14s-.34-3.94,2.44-6.13l4.81-3.66.83,1.52c2.07,3.81,1.09,7.55-2.35,9.41m29.56-10.8c5.53-3,7.67-8.36,5.64-14.1l-5.85,1.75c1.3,3.62.54,6.31-2.25,7.82-3.57,2-7.27.13-10.06-5-2.66-4.9-2.13-9,1.31-10.88,2.74-1.49,5.51-.71,7.64,2.33l4.94-3.86c-3.64-5-9.11-6.15-14.87-3-7.07,3.83-8.87,10.92-4.66,18.68,4.11,7.57,11.24,10.06,18.16,6.3m30.91-17.52,6.45-3.51L922.1,102l3.43-14-6.78,3.68-3.32,15.5L904,85.85l-5.57,3,18.75,34.53,5.57-3-3.85-7.09,1.44-5.54Zm30.13-15.62A8.73,8.73,0,0,0,967,90.65l2.4,4.43,5.3-2.87L961.81,68.39l-5.62,3.06,7.16,13.19c2.18,4,1.55,7.73-1.51,9.39-2.7,1.46-5.12.32-7-3.16L947,76.44l-5.57,3,8.3,15.28c3,5.57,7.12,7.91,12.79,4.84m24.66-2.11,5.57-3-6.9-12.72a8.52,8.52,0,0,0,9,.27c5.71-3.1,7-10.08,2.81-17.75s-10.51-10.39-16.08-7.36a8.91,8.91,0,0,0-4.88,8.75l-2.25-4.14-5.29,2.87Zm3.71-19c-3.3,1.79-7,0-9.45-4.55l-.64-1.19c-2.62-4.81-2-8.66,1.35-10.48s7,0,9.76,5.12,2.33,9.28-1,11.1"/><rect class="cls-2" x="697.29" y="80.09" width="356.22" height="150.06" transform="translate(32.06 436.5) rotate(-28.5)"/><path class="cls-1" d="M1018,530.23l1-5.43-23.93-4.59L987.86,558l6.7,1.28,3.15-16.44,16.36,3.13,1-5.43-16.36-3.13,2-10.49Zm9.4,14.44,1.23-6.44-5.81-1.12-5.11,26.61,6.23,1.2,2.13-11.13c.58-3,1.42-6,3.89-7.64a7.46,7.46,0,0,1,5.76-.82l.83.15,1.17-6.12a3.55,3.55,0,0,0-.71-.19c-4.21-.8-7.51,1.54-9.61,5.5M1062,557c1.57-8.14-1.89-13.44-9.41-14.88-7.74-1.48-13.45,3.05-15.14,11.83s2.16,14.6,10.1,16.12c5.29,1,9.88-.75,12.69-5l-4.34-3.15a6.67,6.67,0,0,1-7.19,3.21c-4.1-.79-6.29-4.19-5.49-8.68l18.22,3.5Zm-5.88-2.45L1044,552.25c1-4.4,3.69-6.63,7.64-5.87,3.68.71,5.37,3.4,4.53,7.77Zm18.53,20.72c6.74,1.29,11.3-1.15,12.3-6.36.85-4.42-.75-7.6-6-9.31l-4.24-1.48c-2.69-.84-3.68-2.14-3.33-3.95.4-2.07,2.26-2.82,5.22-2.25a7.44,7.44,0,0,1,6.09,5.86l4.77-1.57c-.5-4.4-4.21-7.82-9.82-8.89-6.59-1.27-11.14,1.12-12.09,6.07-.82,4.31,1.11,7.71,6.37,9.44l3.85,1.29c2.78.92,3.7,2,3.29,4.16s-2.29,2.93-5.4,2.33a7.55,7.55,0,0,1-6.54-6.6l-5,1.24c.71,5.32,4.55,8.87,10.52,10m17,2.6,6.23,1.2,2.71-14.11c1-5.16,3.68-7.68,7.42-7,3.16.61,4.36,3,3.59,7.09l-3.08,16,6.28,1.21,3.18-16.56c1.36-7.07-.89-11.37-6.49-12.44a8.64,8.64,0,0,0-9.44,4l3.23-16.87L1099,539.2Zm76.55-24.49-29-5.57-1.07,5.59,11.16,2.14-6.17,32.2,6.69,1.29,6.18-32.2,11.16,2.14Zm3,7.59,6.74,1.29,1.28-6.65-6.75-1.3Zm-5.65,31.09,6.23,1.19,5.11-26.61-6.23-1.19Zm19.59-23.84-5.1,26.61,6.23,1.2,3-15.38c.81-4.26,3.11-6.41,6.23-5.81,2.75.52,3.83,2.72,3.13,6.39l-3.18,16.55,6.23,1.2,3-15.54c.82-4.26,3-6.26,6.2-5.66,2.86.55,3.9,2.68,3.16,6.57l-3.15,16.39,6.23,1.19,3.34-17.4c1.2-6.28-1.06-10.47-6-11.42-3.64-.7-6.67.54-9.14,3.87-.55-3.86-2.7-6.14-6.33-6.84s-6.47.58-8.73,4l.91-4.74ZM1249.51,593c1.56-8.15-1.89-13.45-9.41-14.89-7.74-1.48-13.45,3-15.14,11.83s2.16,14.6,10.1,16.12c5.29,1,9.88-.75,12.69-5l-4.34-3.15a6.67,6.67,0,0,1-7.18,3.21c-4.11-.79-6.31-4.19-5.5-8.67l18.22,3.49Zm-5.88-2.46-12.09-2.32c1-4.4,3.69-6.63,7.64-5.87,3.68.71,5.37,3.4,4.53,7.77Zm16.43,8.34,4.73.91,6.65-27.42L1264,571Zm5.13,5.24-7.11-1.37-1.31,6.81,7.12,1.37Z"/><path class="cls-1" d="M1000.73,505l7.79,1.5L1020,480a18.59,18.59,0,0,0,.73-2.18h.21a16,16,0,0,0-.11,2.3l.86,28.86,7.79,1.49,16-36.1-6.8-1.31-10.91,26.6a19.66,19.66,0,0,0-.8,2.5h-.16a16.29,16.29,0,0,0,.19-2.61l-1.19-28.92-6.74-1.29-11.8,26.43a15.57,15.57,0,0,0-.91,2.47h-.15a22.89,22.89,0,0,0,.18-2.61l-.3-28.75-6.8-1.31Zm65.57-2.59c1.56-8.15-1.89-13.44-9.41-14.89-7.74-1.48-13.45,3-15.14,11.83s2.16,14.6,10.1,16.12c5.29,1,9.88-.75,12.69-5l-4.35-3.15a6.64,6.64,0,0,1-7.22,3.24c-4.1-.79-6.3-4.19-5.49-8.67l18.22,3.49Zm-5.88-2.46-12.1-2.32c1-4.39,3.7-6.63,7.64-5.87,3.69.71,5.38,3.4,4.54,7.77Zm23.06,20.93,5.87,1.12,5.28-27.57a34.63,34.63,0,0,0,.59-4.19h.21a22.36,22.36,0,0,0,.17,4.17l3.51,29.42,6,1.15L1119.16,499a28.31,28.31,0,0,0,1.7-3.82h.15a34.18,34.18,0,0,0-1,4.11l-5.29,27.57,6.12,1.18,7.25-37.79-9.39-1.8-13.29,24.65a20.11,20.11,0,0,0-1.72,3.92h-.1a20.54,20.54,0,0,0-.16-4.22l-3.32-27.9-9.34-1.79Zm51.69-22.26,6.74,1.3,1.28-6.66-6.75-1.29Zm-5.64,31.09,6.23,1.2,5.1-26.62-6.23-1.19Zm11,2.1,6.8,1.31,6-6.3a12.63,12.63,0,0,0,2-2.49h.11a9.85,9.85,0,0,0,.87,3l3.24,8.07,7.11,1.36-6.77-15.48L1171,510.09l-7-1.33-5.09,5.75A13.53,13.53,0,0,0,1157,517h0a15.64,15.64,0,0,0-.88-3l-2.75-7.25-7.11-1.37,6.31,14.51Z"/><rect class="cls-3" x="1057.68" y="364.99" width="149.8" height="355.59" transform="translate(384.15 1551.35) rotate(-79.03)"/><path class="cls-1" d="M51.72,663.67l-1.47-4.16-15.59,1.8a8.52,8.52,0,0,0-1.22.25v-.11a9.77,9.77,0,0,0,1.11-.58l13.25-8.4-1.47-4.16L25,650.59l1.28,3.63,15.48-2.11a11.1,11.1,0,0,0,1.39-.3v.08a8.61,8.61,0,0,0-1.26.7l-13.19,8.56,1.28,3.6,15.64-1.63a8.32,8.32,0,0,0,1.41-.25V663a11.6,11.6,0,0,0-1.27.64l-13.36,8.09,1.28,3.63ZM32.91,632c-4.31,1.3-6,4.34-4.74,8.43s4.89,5.86,9.54,4.46,6.46-4.76,5.16-9.07a6.53,6.53,0,0,0-5.65-5l-.4,2.94a3.68,3.68,0,0,1,3.37,2.73,3.77,3.77,0,0,1-2.35,4.8,2.77,2.77,0,0,1-.41.12l-3-9.88Zm.32,3.52,2,6.57c-2.36.64-4.13-.14-4.77-2.29-.61-2,.26-3.51,2.57-4.21Zm-10-13.37,14.3-3.39-.81-3.43-8.27,2c-2.29.54-3.87-.14-4.28-1.86-.36-1.52.48-2.56,2.45-3l8.9-2.11-.81-3.43-8.36,2c-2.29.54-3.78-.13-4.19-1.88-.37-1.57.44-2.58,2.53-3.08l8.82-2.09-.82-3.43-9.33,2.13c-3.38.8-4.94,2.89-4.29,5.64a4.82,4.82,0,0,0,4,3.77,4.09,4.09,0,0,0-1.95,4.75A4.41,4.41,0,0,0,25,618.3l-2.55.6Zm-8.13-24.4L14.31,594l-3.59.77.79,3.73ZM31.84,594l-.74-3.45-14.37,3,.73,3.45Zm-1.28-6.18-.71-3.78-4.39-1.84a6.36,6.36,0,0,0-1.65-.53v-.06a5.42,5.42,0,0,0,1.36-1.06l3.41-3.3-.74-4L21.4,579.9l-7.92-3.47.72,3.87,3.93,1.47a7.64,7.64,0,0,0,1.61.48h0a8.57,8.57,0,0,0-1.33,1l-3.1,2.89.74,4,6-6.19ZM10.68,557.33l.49,3.53-1.63.22c-1.54.22-2.39-.32-2.59-1.71a10.89,10.89,0,0,1,0-1.51l-2.71.38a9.23,9.23,0,0,0,.06,2.1c.43,3.11,2.52,4.69,5.55,4.27l1.86-.26.35,2.5,2.53-.35-.35-2.5,12-1.68-.49-3.49-12,1.67L13.21,557Zm2.73-7.09-3.53.4.37,3.27,14.61-1.68-.41-3.51-6.1.71c-1.64.19-3.32.23-4.59-.81a4.11,4.11,0,0,1-1.38-2.92l-.05-.46L9,545.59A2.94,2.94,0,0,0,9,546c.27,2.36,2,3.73,4.42,4.2m1-20.69c-4.49.41-6.72,3.06-6.34,7.31s3.63,6.72,8.46,6.28,7.28-3.38,6.87-7.86a6.54,6.54,0,0,0-4.54-6l-1,2.81a3.69,3.69,0,0,1,2.76,3.35,3.77,3.77,0,0,1-3.25,4.23,3.15,3.15,0,0,1-.44,0L16,529.39ZM14,533l.62,6.82c-2.44.17-4-1-4.22-3.18s1-3.4,3.36-3.62Zm8.23-13.23c-.21-3.82-2.09-6-5-5.79-2.44.14-3.9,1.42-4.11,4.47L12.91,521c-.1,1.56-.64,2.27-1.64,2.33s-1.79-.85-1.88-2.52a4.15,4.15,0,0,1,2.27-4.07l-1.45-2.37c-2.25.86-3.56,3.32-3.38,6.49.21,3.73,2.06,5.86,4.79,5.71,2.38-.13,3.92-1.63,4.13-4.7l.22-2.26c.12-1.63.58-2.27,1.76-2.34s1.84.84,1.94,2.61a4.2,4.2,0,0,1-2.61,4.41l1.32,2.55c2.7-1.1,4.06-3.64,3.87-7m-.83-9.66-.12-3.52-7.78.25c-2.86.09-4.51-1.06-4.58-3.18-.06-1.79,1.09-2.74,3.32-2.81l8.85-.29L21,497.06l-9.14.29c-3.9.13-5.9,1.87-5.8,5A4.79,4.79,0,0,0,9.31,507L0,507.29l.11,3.52ZM9,486.93v-2.65l7.58.11c3,.05,4.84-1.1,4.89-4.62a11,11,0,0,0-.22-2.42h-3a5,5,0,0,1,.15,1.44c0,1.47-.76,2.14-2.35,2.11l-7-.11.05-3.58H6.52l-.06,3.59-5.11-.08,1.36,3.55h3.7v2.65Zm-4.73-13.4.15-3.82-3.67-.14-.15,3.82Zm17.14.48.14-3.52-14.69-.57-.14,3.53ZM6.9,464.59l14.66,1.09.26-3.52-8.47-.63c-2.35-.17-3.65-1.3-3.52-3.06.12-1.56,1.23-2.3,3.26-2.15l9.12.68.26-3.52-8.56-.63c-2.35-.18-3.57-1.27-3.43-3.06.12-1.62,1.2-2.33,3.34-2.17l9,.67.27-3.52-9.59-.71c-3.46-.26-5.58,1.27-5.79,4.08a4.84,4.84,0,0,0,2.65,4.8,4.1,4.1,0,0,0-3.3,3.94,4.42,4.42,0,0,0,2.67,4.56l-2.61-.19ZM17,427c-4.48-.49-7.2,1.66-7.66,5.9s2.2,7.31,7,7.84,7.8-1.86,8.3-6.33a6.53,6.53,0,0,0-3.25-6.8l-1.52,2.55a3.69,3.69,0,0,1,2,3.83,3.78,3.78,0,0,1-4.06,3.5,2.87,2.87,0,0,1-.41-.05l1.13-10.26Zm-1.08,3.37-.75,6.81c-2.43-.32-3.75-1.74-3.51-4,.23-2.07,1.62-3.13,4-2.87ZM9.66,414.2l.59-3.78-3.62-.57L6,413.59Zm17,2.51.56-3.48-14.52-2.31-.55,3.48Zm1.28-8.21.63-3.47-7.66-1.4c-2.75-.51-4.14-2-3.78-4,.34-1.83,1.63-2.49,3.91-2.07l8.62,1.58.64-3.5-9-1.64c-3.87-.71-6.16.57-6.74,3.72a5,5,0,0,0,2.3,5.39L14,402.59l-.6,3.29Zm6.52-30.37c1-4.13-1.08-7.65-5.89-8.77s-8.15,1.14-9.11,5.27,1.06,7.64,5.84,8.76,8.2-1.14,9.16-5.26m-2.6-.61c-.51,2.21-2.48,3.14-5.75,2.38s-4.56-2.46-4-4.67,2.42-3.12,5.69-2.35,4.63,2.43,4.11,4.64m6.37-14.36a4.85,4.85,0,0,0-1.77-5.23l2.63.71.88-3.23-14.2-3.82L24.78,355l7.87,2.13c2.38.65,3.6,2.32,3.09,4.2-.45,1.64-1.81,2.19-3.88,1.62l-8.6-2.33-.93,3.4,9.11,2.48c3.32.9,5.78.13,6.72-3.33M31.6,344.35l-3.39-1.06-1,3.14,14,4.37,1-3.36-5.81-1.85c-1.58-.49-3.13-1.13-3.88-2.59a4.25,4.25,0,0,1-.07-3.23l.14-.45-3.23-1a3.12,3.12,0,0,0-.15.39c-.71,2.27.35,4.23,2.34,5.62m17.51-16.41c1.27-3.6.35-6.29-2.37-7.25-2.3-.81-4.14-.18-5.51,2.54l-1.15,2.22c-.68,1.41-1.46,1.85-2.41,1.52s-1.32-1.46-.76-3a4.13,4.13,0,0,1,3.66-2.89l-.44-2.74c-2.4-.07-4.55,1.7-5.61,4.7-1.23,3.52-.34,6.2,2.24,7.11,2.25.79,4.24,0,5.61-2.76l1-2c.74-1.46,1.41-1.88,2.52-1.49s1.38,1.49.8,3.15a4.21,4.21,0,0,1-4.11,3.08l.24,2.85c2.92,0,5.15-1.8,6.27-5m4.65-12.6c.88-2.22.54-4.34-.86-5.65a21,21,0,0,0,2.43.7l1.29-3.28a17.19,17.19,0,0,1-4.4-1.26l-4.08-1.6c-4-1.56-6.39-.44-8,3.61-1.39,3.53-.49,6.54,2.35,7.91l1.33-3.36a2.59,2.59,0,0,1-1.49-3.35c0-.09.08-.19.13-.28.7-1.76,1.88-2.21,3.93-1.4l.36.14-.79,3a13,13,0,0,0-.52,4.95,3.73,3.73,0,0,0,2.43,2.88c2.44,1,4.79-.26,5.88-3m-1.9-2c-.57,1.45-1.65,2-2.8,1.58s-1.51-1.54-1.1-3.47l.75-3.28.88.35a3.56,3.56,0,0,1,2.27,4.82M40,291.7l-1.37,3.24,19.63,8.3L59.6,300Zm23.41.53c1-2.17.76-4.31-.59-5.69a21.92,21.92,0,0,0,2.4.83l1.45-3.21a18.46,18.46,0,0,1-4.33-1.48l-4-1.81c-3.89-1.75-6.37-.75-8.16,3.22-1.57,3.46-.82,6.5,2,8l1.49-3.29a2.59,2.59,0,0,1-1.31-3.42c0-.09.09-.18.14-.27.78-1.72,2-2.11,4-1.2l.34.16-.93,3a13,13,0,0,0-.77,4.91,3.74,3.74,0,0,0,2.29,3c2.38,1.08,4.79,0,6-2.76m-1.8-2.07c-.64,1.42-1.75,2-2.88,1.44s-1.43-1.62-.93-3.52l.92-3.24.85.39a3.56,3.56,0,0,1,2.16,4.55,2.54,2.54,0,0,1-.16.38m9.2-13.65a4.87,4.87,0,0,0-.58-5.55l2.36,1.18,1.48-3-19-9.46-1.57,3.15,7.79,3.88a4.42,4.42,0,0,0-4.07,2.71c-1.64,3.29.05,6.95,4.16,9s7.93,1.29,9.51-1.89m-1.88-2.28c-1,1.92-3.23,2.26-6,.86S59,271.73,60,269.8s3-2.3,5.6-1l.84.42c2.48,1.23,3.44,3.19,2.52,5m10.3-14c1.84-3.35,1.36-6.15-1.17-7.54-2.14-1.16-4.06-.84-5.85,1.63l-1.49,2c-.9,1.29-1.74,1.6-2.62,1.12s-1.08-1.66-.27-3.13A4.16,4.16,0,0,1,71.89,252v-2.77c-2.37-.46-4.77.94-6.29,3.73-1.79,3.28-1.34,6.07,1.06,7.38,2.09,1.14,4.19.68,6-1.82L74,256.73c1-1.32,1.69-1.62,2.72-1.06s1.12,1.69.28,3.24a4.2,4.2,0,0,1-4.55,2.37l-.22,2.86c2.88.5,5.37-1,7-3.92m2.51-13.5-2.09,3.61,3.53,2,2.1-3.61Zm11.32-11,2.4-3.69L84.53,220.77a7.37,7.37,0,0,0-.94-.82l.07-.1a7.71,7.71,0,0,0,1.13.52l14.73,5.39,2.4-3.7L87.1,206.59,85,209.81l11.09,11a13.6,13.6,0,0,0,1.09.92v.07a7.73,7.73,0,0,0-1.32-.57L81,216l-2.08,3.2,10.86,11.41a8.36,8.36,0,0,0,1.06,1v.07a11.62,11.62,0,0,0-1.28-.62L75,225.35l-2.1,3.23Zm13.63-34.27c-3.65-2.64-7.08-2.11-9.58,1.34s-1.69,7.45,2.24,10.3,7.7,2.24,10.34-1.4a6.56,6.56,0,0,0,.55-7.52l-2.59,1.46a3.69,3.69,0,0,1-.13,4.34A3.77,3.77,0,0,1,102.3,211l-.37-.28,6-8.36Zm-2.61,2.4-4,5.55c-1.94-1.48-2.39-3.37-1.08-5.18s3-1.93,4.91-.51Zm19.54-10.56c2.4-3,2.43-5.81.19-7.62-1.9-1.54-3.85-1.56-6,.56l-1.83,1.7c-1.12,1.1-2,1.26-2.78.63s-.76-1.82.29-3.12a4.14,4.14,0,0,1,4.42-1.5l.51-2.73c-2.25-.87-4.87.08-6.86,2.55-2.34,2.91-2.4,5.74-.27,7.45,1.86,1.5,4,1.42,6.22-.73l1.63-1.55c1.18-1.13,2-1.3,2.87-.56s.81,1.86-.3,3.23a4.18,4.18,0,0,1-4.9,1.53l-.73,2.78c2.75,1,5.46,0,7.58-2.62m-4.76-14,1.72-2,5.78,4.91c2.26,1.93,4.43,2.23,6.72-.46a10.52,10.52,0,0,0,1.36-2l-2.26-1.92a5.47,5.47,0,0,1-.8,1.22c-.95,1.12-1.95,1.15-3.16.12l-5.41-4.57,2.32-2.73-1.94-1.66-2.33,2.74L117,169.65l-1.21,3.6,2.82,2.4-1.71,2Zm20.42-4.54a5,5,0,0,0,1.15-5.6,21,21,0,0,0,2,1.51l2.35-2.62a17.85,17.85,0,0,1-3.69-2.72l-3.26-2.92c-3.17-2.85-5.85-2.64-8.75.6-2.53,2.83-2.74,6-.55,8.23l2.41-2.64a2.58,2.58,0,0,1-.23-3.64,2.5,2.5,0,0,1,.23-.23c1.26-1.4,2.53-1.41,4.17.06l.28.26-1.8,2.55a13.06,13.06,0,0,0-2.22,4.46,3.77,3.77,0,0,0,1.28,3.55c2,1.75,4.57,1.41,6.58-.82m-1.1-2.52c-1,1.16-2.26,1.33-3.18.51s-.87-2,.18-3.64l1.85-2.8.7.62a3.55,3.55,0,0,1,.74,5c-.09.12-.19.23-.29.34M152,161.13c2.43-2.51,2.72-5.67.74-8.33l-2.79,1.92c1.25,1.67,1.27,3.2.05,4.47-1.58,1.63-3.81,1.31-6.09-.91s-2.55-4.34-1-5.91c1.21-1.24,2.79-1.31,4.39-.08l2-2.86c-2.71-2-5.76-1.66-8.3,1-3.11,3.21-3,7.21.5,10.55s7.49,3.34,10.54.19m13.9-14.26,3-2.83-10.23-2.59-.21-7.9-3.11,3,.35,8.68-9.06-9.52-2.55,2.44,14.7,15.4,2.55-2.44-3-3.17v-3.14Zm14.36-12.59a4.88,4.88,0,0,0,1.48-5.33l1.77,2.07,2.55-2.18-9.57-11.16L173.81,120l5.3,6.19c1.6,1.87,1.67,3.94.2,5.21-1.3,1.11-2.74.79-4.13-.84l-5.8-6.77-2.67,2.3,6.14,7.16c2.23,2.62,4.7,3.37,7.42,1m13-4.1L196,128l-4.86-6.16a4.76,4.76,0,0,0,4.94-.76c2.84-2.25,2.92-6.13,0-9.84s-6.62-4.55-9.39-2.36a5,5,0,0,0-1.89,5.2l-1.59-2-2.62,2.08Zm.37-10.59c-1.64,1.3-3.79.71-5.54-1.5l-.46-.58c-1.84-2.33-1.84-4.47-.18-5.78s3.81-.69,5.76,1.78,2.08,4.77.42,6.08M210.82,91.4a5,5,0,0,1,1-.57l-1.56-2.14a4.7,4.7,0,0,0-.69.39,3.71,3.71,0,0,0-1.6,4.51,7.51,7.51,0,0,0-2.84,1.34c-3,2.22-3.7,5.2-2,7.56a4.76,4.76,0,0,0,3.66,2,3.22,3.22,0,0,0,0,3.87,2.71,2.71,0,0,0,3,1,3.07,3.07,0,0,0-.27,3.76c1.23,1.69,3.72,2,7.79-1,4.31-3.13,5.19-6.21,3.41-8.66-1.61-2.21-3.92-2.38-6.7-.36L211,105.37c-1.33,1-2.16.88-2.63.24a1.23,1.23,0,0,1-.06-1.34A7.86,7.86,0,0,0,211,103c3-2.2,3.63-5.25,1.92-7.61a4.61,4.61,0,0,0-3.33-1.94,2.41,2.41,0,0,1,1.15-2m-1,9.82a2.66,2.66,0,0,1-3.73-.51l-.15-.23A2.71,2.71,0,0,1,210,97a2.83,2.83,0,0,1,.2.28,2.65,2.65,0,0,1-.3,3.74l-.21.16m5.68,4.66c1.38-1,2.44-1,3.13,0s.37,2.35-2.32,4.3c-2.07,1.51-3.77,2-4.69.76a2.09,2.09,0,0,1-.21-2.14c.34-.2.68-.42,1-.65Zm12-7.69c3.52-2.35,4.44-6.32,1.69-10.43s-6.73-4.73-10.25-2.38-4.45,6.3-1.72,10.38,6.84,4.83,10.36,2.43M226,96c-1.89,1.26-4,.59-5.82-2.2s-1.66-4.9.23-6.17,3.9-.62,5.76,2.17,1.71,4.94-.17,6.2m15.71-6.87c3.61-2.21,4.68-6.14,2.1-10.36s-6.53-5-10.14-2.78-4.71,6.11-2.14,10.3,6.56,5,10.18,2.84m-1.4-2.28c-1.93,1.18-4,.43-5.73-2.43s-1.45-5,.48-6.15,3.92-.47,5.67,2.39,1.52,5-.42,6.19m14.87-5.69a4.91,4.91,0,0,0,2.65-4.91l1.29,2.31L262,76.91,251.59,58.3,248.51,60l4.24,7.6a4.4,4.4,0,0,0-4.88-.06c-3.21,1.79-3.88,5.76-1.65,9.77s5.82,5.54,8.93,3.8m-.27-2.95c-1.87,1.06-4,.06-5.48-2.69s-1.3-5,.58-6,3.8-.2,5.2,2.32l.46.82c1.35,2.41,1,4.57-.76,5.57m11.93-20.61,6.31,13.28,3.18-1.51-3.65-7.68c-1-2.12-.67-3.81.93-4.57,1.4-.67,2.6-.07,3.47,1.77L281,67.14l3.18-1.52-3.68-7.75c-1-2.13-.66-3.72,1-4.5,1.46-.69,2.62-.1,3.54,1.84l3.89,8.18,3.18-1.52L288,53.23c-1.49-3.13-3.85-4.22-6.4-3a4.83,4.83,0,0,0-2.86,4.68,4.13,4.13,0,0,0-5.06-.92,4.43,4.43,0,0,0-2.68,4.6l-1.12-2.36Zm22.22-13L292.52,43,291,39.68l-3.49,1.55Zm7.11,15.6,3.22-1.43-6-13.44-3.22,1.43Zm7.66-3.37,3.27-1.3-2.87-7.24c-1-2.6-.49-4.59,1.42-5.35q2.6-1,3.82,2.22l3.24,8.14L316,52l-3.36-8.47c-1.46-3.66-3.76-4.93-6.74-3.75a5,5,0,0,0-3.34,4.81l-1.06-2.65-3.11,1.24Zm20.95-7.73a4.89,4.89,0,0,0,3.44-4.39l.88,2.49,3.13-1.1L325.11,26l-3.33,1.17,2.9,8.21a4.41,4.41,0,0,0-4.81-.89c-3.46,1.22-4.8,5-3.28,9.35s4.8,6.45,8.16,5.26m.24-3c-2,.72-3.9-.62-4.95-3.58s-.44-5.12,1.59-5.84,3.77.45,4.73,3.17l.32.89c.92,2.6.25,4.68-1.69,5.36m13.84-20.23,3.65-1.13-1.09-3.51-3.64,1.13Zm5.25,16.32,3.36-1-4.35-14-3.36,1ZM352,39.76l3.39-1-2.11-7.5c-.76-2.69,0-4.61,2-5.17,1.79-.5,3,.36,3.58,2.6l2.38,8.43,3.42-1-2.48-8.78c-1.06-3.79-3.22-5.29-6.31-4.42a5,5,0,0,0-3.82,4.44l-.78-2.74-3.22.91Zm30.25-7.34c4.14-.89,6.45-4.24,5.42-9.07s-4.51-6.88-8.65-6-6.46,4.21-5.43,9,4.51,6.94,8.66,6m-.56-2.61c-2.22.47-3.9-.92-4.6-4.19s.28-5.18,2.49-5.65,3.85.86,4.56,4.14-.24,5.22-2.45,5.7m15.69-.46a4.88,4.88,0,0,0,4-3.83l.48,2.69,3.3-.58-2.54-14.48-3.5.62,1.4,8c.43,2.43-.57,4.25-2.48,4.58-1.68.3-2.75-.71-3.12-2.82l-1.54-8.78-3.47.61,1.63,9.29c.59,3.39,2.32,5.29,5.86,4.68m14.09-14L411,11.89l-3.26.48,2.17,14.54,3.49-.52-.91-6.08c-.24-1.62-.34-3.3.65-4.61A4.22,4.22,0,0,1,416,14.23l.47-.07-.5-3.34a1.41,1.41,0,0,0-.41,0c-2.36.35-3.67,2.15-4.05,4.55M434,24.15c3.81-.37,5.86-2.34,5.58-5.21-.24-2.43-1.59-3.84-4.64-3.92l-2.49-.11c-1.57,0-2.31-.54-2.4-1.54s.76-1.82,2.43-2a4.16,4.16,0,0,1,4.17,2.1l2.3-1.55c-1-2.22-3.47-3.41-6.63-3.1-3.72.37-5.77,2.31-5.5,5,.23,2.37,1.8,3.84,4.87,3.92l2.26.08c1.63,0,2.29.48,2.41,1.65s-.76,1.88-2.52,2a4.2,4.2,0,0,1-4.52-2.42l-2.51,1.54c1.21,2.65,3.81,3.9,7.17,3.57M447.29,23c2.38-.18,4.14-1.39,4.72-3.23a21,21,0,0,0,.42,2.5l3.51-.26a17.68,17.68,0,0,1-.77-4.51l-.32-4.37c-.32-4.25-2.38-6-6.72-5.64C444.34,7.75,442,9.86,442,13l3.6-.27A2.58,2.58,0,0,1,448,10h.31c1.88-.14,2.8.74,3,2.94v.38l-3.09.61a13.07,13.07,0,0,0-4.68,1.67A3.74,3.74,0,0,0,442,19c.19,2.61,2.31,4.19,5.3,4m1-2.57c-1.55.11-2.55-.61-2.64-1.85s.73-2,2.65-2.49l3.27-.74.07.94a3.54,3.54,0,0,1-2.91,4.09,3.12,3.12,0,0,1-.44.05M460,21.81l3.53-.13-.29-7.78c-.1-2.79,1.08-4.49,3.13-4.56,1.86-.07,2.78,1.05,2.86,3.37l.32,8.75,3.55-.13-.33-9.1c-.14-3.94-1.89-5.91-5.09-5.79a5,5,0,0,0-4.76,3.41L462.78,7l-3.34.12Zm22.32-.15a4.89,4.89,0,0,0,4.71-3V21.3h3.32V0H486.8V8.71a4.4,4.4,0,0,0-4.23-2.44c-3.68,0-6.2,3.14-6.2,7.73s2.37,7.67,5.93,7.67m1.21-2.7c-2.15,0-3.47-1.88-3.47-5s1.29-5,3.44-5,3.41,1.68,3.41,4.56v.94c0,2.77-1.32,4.5-3.38,4.5m14.17,2.52,3.58.18,3-9.57c.11-.44.26-1,.34-1.43h.06a8.86,8.86,0,0,0,.19,1.45l2,9.81,3.58.18,4.89-14.52-3.47-.17-2.77,9.66c-.11.47-.23,1-.34,1.58h-.06a10.84,10.84,0,0,0-.22-1.6l-2-9.9L503.14,7l-2.89,9.66c-.14.47-.28,1-.4,1.57h-.06a12.6,12.6,0,0,0-.18-1.6l-1.79-9.89-3.46-.17Zm21-16,3.81.28.26-3.66L519,1.83Zm-1,17.1,3.52.26,1.07-14.66-3.51-.26Zm14.18,1.6c3.49.34,6.14-1.41,7-4.6l-3.24-1c-.52,2-1.71,3-3.47,2.83-2.25-.23-3.39-2.17-3.08-5.33s1.82-4.7,4-4.49c1.73.17,2.76,1.36,2.81,3.38l3.47-.22c-.11-3.38-2.29-5.54-5.92-5.9-4.45-.43-7.48,2.19-8,7s2.06,7.93,6.42,8.36M542,25l3.49.47,1-7.72c.38-2.83,1.79-4.27,3.89-4,1.77.24,2.52,1.53,2.23,3.74l-1.18,8.77,3.52.47,1.22-9.06c.52-3.87-.87-6.13-4-6.56a4.82,4.82,0,0,0-5.1,2.46l1.23-9.23-3.49-.47Zm31.09-3.42c.76-4.44-1.22-7.28-5.43-8s-7.43,1.77-8.25,6.56,1.4,7.9,5.83,8.66a6.55,6.55,0,0,0,7-2.84l-2.46-1.67a3.72,3.72,0,0,1-3.95,1.81,3.79,3.79,0,0,1-3.25-4.26c0-.14,0-.28.08-.41l10.17,1.74Zm-3.29-1.28L563,19.16c.47-2.4,2-3.64,4.17-3.26s3,1.8,2.63,4.18ZM580.45,31.7c3.74.78,6.28-.49,6.87-3.31.5-2.39-.37-4.13-3.26-5.12l-2.35-.85c-1.49-.49-2-1.21-1.83-2.18.24-1.13,1.28-1.51,2.92-1.17a4.14,4.14,0,0,1,3.35,3.25l2.66-.8c-.26-2.4-2.29-4.29-5.4-4.93-3.66-.76-6.2.48-6.76,3.15-.48,2.34.57,4.21,3.49,5.21l2.13.74c1.54.53,2,1.14,1.8,2.3s-1.28,1.56-3,1.2a4.19,4.19,0,0,1-3.6-3.66l-2.8.62c.36,2.9,2.47,4.87,5.79,5.55m13.64-1.53-4.06-1-.93,4,4.06,1Z"/></g></g></svg>