<svg xmlns="http://www.w3.org/2000/svg" viewBox="0 0 670.6 149.55"><defs><style>.cls-1{fill:#f0e6d2;}</style></defs><g id="레이어_2" data-name="레이어 2"><g id="레이어_1-2" data-name="레이어 1"><path class="cls-1" d="M60.6,136.5a34.83,34.83,0,0,1-49.1,1.1l-1.9-1.9C.2,125,0,111.9,0,98.4V80.6H14.7c2.7,10.5,8,15.6,16.6,15.6,6.3,0,10.5-2.8,10.5-7.7,0-5.1-3.4-7.9-11.7-11.6C13.1,69.4,2,60.4,2,38.8,2,16.3,15.8,0,35.8,0,45.9,0,55.1,4.1,61,10.7c6.7,7.5,8.8,14.8,8.8,33.6V62.5H54.5c-1.9-8.1-6.1-11.8-13-11.8-5.7,0-8.8,2.3-8.8,7.1,0,6.4,7.8,8.4,16.6,12,15.5,6.6,22.2,19.7,22.2,36.6-.2,12.5-4.2,23-10.9,30.1"/><path class="cls-1" d="M113.5,69.4A19.74,19.74,0,0,0,93.4,89v.6c0,12,8.8,20.8,19.3,20.8S133,101.6,133,90.5c0-11.4-8.6-21.1-19.5-21.1m16.2,75.7V131.2h-1.3c-3.6,11.6-10.7,16.7-22,16.7-15.9,0-23.7-11.1-23.7-30.6V59.9c0-18.8,8.6-28.9,23.9-28.9,10.7,0,18.2,6.2,21.8,17.1h1.3V33.7h13.2V145.1Z"/><rect class="cls-1" x="157" y="2.2" width="13.2" height="142.9"/><path class="cls-1" d="M213.4,69.4A19.8,19.8,0,0,0,193.3,89v.5c0,12,8.8,20.8,19.3,20.8s20.3-8.8,20.3-19.9c0-11.3-8.6-21-19.5-21m16.2,75.7V131.2h-1.3c-3.6,11.6-10.7,16.7-22,16.7-15.9,0-23.7-11.1-23.7-30.6V59.9c0-18.8,8.6-28.9,23.9-28.9,10.7,0,18.2,6.2,21.8,17.1h1.3V33.7h13.2V145.1Z"/><path class="cls-1" d="M284.7,69.4c-10.9,0-19.5,9.6-19.5,21,0,11.1,9.8,19.9,20.3,19.9s19.3-8.8,19.3-20.8a19.74,19.74,0,0,0-19.6-20.1h-.5M302.3,145V131.1h-1c-3.4,11.3-10.9,16.7-22.2,16.7-15.5,0-23.7-10.5-23.7-31.3V60c0-18.4,8.4-29.1,23.7-29.1,10.7,0,18.9,6,22.2,17.1h1V2.2h13.2V145.1Z"/><path class="cls-1" d="M390.9,138.2a34.75,34.75,0,0,1-51-.9c-9.4-10.7-9.6-23.8-9.6-37.3V82.3H345c2.7,10.5,8,15.6,16.6,15.6,6.3,0,10.5-2.8,10.5-7.7,0-5.1-3.4-7.9-11.7-11.6-17-7.5-28.1-16.5-28.1-38.1,0-22.5,13.8-38.8,33.8-38.8,10.1,0,19.3,4.1,25.2,10.7,6.7,7.5,8.8,14.8,8.8,33.6V64.3H384.8c-1.9-8.2-6.1-11.8-13-11.8-5.7,0-8.8,2.4-8.8,7.1,0,6.4,7.8,8.4,16.6,12,15.5,6.6,22.2,19.7,22.2,36.6-.2,12.4-4.2,22.9-10.9,30"/><path class="cls-1" d="M441.4,70.7c-9.2,0-15.9,5.8-18.9,14.6H460c-2.4-9.7-9.3-14.6-18.6-14.6m20.4,70.7a29.23,29.23,0,0,1-40,.4c-8-7.1-9.6-19.1-9.6-29.6V68.7c0-20.8,10.3-36.2,28.5-36.2,18.7,0,30.4,12.2,30.4,36.2v27H422.7c1.9,9.2,9,15.4,19.5,15.4,6.9,0,12.4-2.1,18.4-7.5H471v9.9c0,9.5-1,19.5-9.2,27.9"/><rect class="cls-1" x="483.8" y="3.9" width="13.2" height="142.9"/><rect class="cls-1" x="513.4" y="3.9" width="13.2" height="142.9"/><path class="cls-1" d="M568.3,70.7c-9.2,0-15.9,5.8-18.9,14.6h37.5c-2.4-9.7-9.3-14.6-18.6-14.6m20.4,70.7a29.13,29.13,0,0,1-40,.4c-8-7.1-9.6-19.1-9.6-29.6V68.7c0-20.8,10.3-36.2,28.5-36.2,18.7,0,30.4,12.2,30.4,36.2v27H549.6c1.9,9.2,9,15.4,19.5,15.4,6.9,0,12.4-2.1,18.4-7.5H598v9.9c-.1,9.5-1.1,19.5-9.3,27.9"/><path class="cls-1" d="M657.2,103.9v-9c0-11.1-1.3-15.2-4.4-18.8A15.82,15.82,0,0,0,641.1,71c-11.3,0-17.2,7.9-17.2,24.2v51.6H610.7V35.3h13.2v14h1c4.6-11.6,11.5-16.7,22-16.7,6.9,0,12.4,2.4,15.9,6,5.7,5.8,7.8,11.1,7.8,24.8v40.5Z"/></g></g></svg>