<svg xmlns="http://www.w3.org/2000/svg" xmlns:xlink="http://www.w3.org/1999/xlink" viewBox="0 0 842.89 1078.17"><defs><style>.cls-1,.cls-3{fill:#fff;}.cls-1,.cls-2,.cls-6,.cls-7{stroke:#1c1c1b;}.cls-1,.cls-2,.cls-7{stroke-miterlimit:10;}.cls-1,.cls-6,.cls-7{stroke-width:0.5px;}.cls-10,.cls-2,.cls-6,.cls-7{fill:none;}.cls-4{clip-path:url(#clip-path);}.cls-5{fill:#e63323;}.cls-8{clip-path:url(#clip-path-2);}.cls-9{fill:#007576;}.cls-10{stroke:#007576;stroke-width:6px;}</style><clipPath id="clip-path"><rect class="cls-1" x="0.5" y="0.5" width="841.89" height="1077.17"/></clipPath><clipPath id="clip-path-2"><rect class="cls-2" x="0.5" y="0.5" width="841.89" height="1077.17"/></clipPath></defs><g id="레이어_2" data-name="레이어 2"><g id="Layer_1" data-name="Layer 1"><rect class="cls-3" x="0.5" y="0.5" width="841.89" height="1077.17"/><g class="cls-4"><path class="cls-5" d="M475.06,283.88v-7c0-2.37-.37-3.29-1.37-4.29a3.89,3.89,0,0,0-2.81-1c-1.85,0-3.08.89-3.89,2.89h-.18V272h-2.34v19.24h2.34v-8.92c0-2.81,1-4.18,3-4.18a2.84,2.84,0,0,1,2.07.89c.56.62.78,1.33.78,3.25v1.56Zm-14.58-3.22h-6.62a3.43,3.43,0,0,1,3.33-2.52,3.18,3.18,0,0,1,3.29,2.52m1.92,4.88v-1.7h-1.85a4.64,4.64,0,0,1-3.25,1.29,3.29,3.29,0,0,1-3.44-2.66h8.54v-4.66c0-4.15-2.07-6.26-5.36-6.26s-5,2.67-5,6.26v7.51c0,1.81.29,3.88,1.7,5.1a5.23,5.23,0,0,0,7.07-.07,6.28,6.28,0,0,0,1.62-4.81m-14-3.7a3.59,3.59,0,0,1-3.59,3.44,3.54,3.54,0,0,1,.15-7.07,3.55,3.55,0,0,1,3.44,3.63m1.74,4.51v-9.76c0-3.19-1.48-5-4.18-5a3.93,3.93,0,0,0-3.93,3h-.18V266.6h-2.33v24.68h2.33v-2.41h.18a3.75,3.75,0,0,0,3.93,2.89c2.73,0,4.18-1.82,4.18-5.41m-12.69,4.93V276.33c0-2-.37-2.81-1.23-3.67a4.08,4.08,0,0,0-3-1.11,4,4,0,0,0-3.92,3.19h-.18a3.8,3.8,0,0,0-4-3.19,3.84,3.84,0,0,0-3.92,2.89h-.23V272h-2.33v19.24h2.33v-8.7a5,5,0,0,1,.93-3.48,2.9,2.9,0,0,1,4-.15,4.76,4.76,0,0,1,.89,3.37v9h2.33v-8.77c0-2,.26-2.63,1-3.48a2.48,2.48,0,0,1,2-.85,2.66,2.66,0,0,1,2,.89c.74.74.81,2.1.81,3.51v8.7Zm-22.72-10.62h-6.63a3.45,3.45,0,0,1,3.33-2.52,3.2,3.2,0,0,1,3.3,2.52m1.92,4.88v-1.7h-1.85a4.64,4.64,0,0,1-3.25,1.29,3.31,3.31,0,0,1-3.45-2.66h8.55v-4.66c0-4.15-2.07-6.26-5.36-6.26s-5,2.67-5,6.26v7.51c0,1.81.3,3.88,1.71,5.1a5.22,5.22,0,0,0,7.06-.07,6.25,6.25,0,0,0,1.63-4.81m-12.24.19v-3.15h-1.89a3.48,3.48,0,1,1-3.22-4.48,3.43,3.43,0,0,1,3.22,2.33h1.89v-2.92c0-3.55-2-6-5.15-6s-5.21,2.22-5.21,6.15v8c0,3.33,1.73,6,5.18,6a5.36,5.36,0,0,0,3.73-1.59,5.9,5.9,0,0,0,1.45-4.44m-13.95-5.07h-6.63a3.45,3.45,0,0,1,3.33-2.52,3.2,3.2,0,0,1,3.3,2.52m1.92,4.88v-1.7h-1.85a4.65,4.65,0,0,1-3.26,1.29,3.3,3.3,0,0,1-3.44-2.66h8.55v-4.66c0-4.15-2.07-6.26-5.36-6.26s-5,2.67-5,6.26v7.51c0,1.81.3,3.88,1.71,5.1a5.22,5.22,0,0,0,7.06-.07,6.25,6.25,0,0,0,1.63-4.81m-14.87-6.7a3.92,3.92,0,0,1-1.08,3.11c-.4.41-1.29,1.07-3.88,1.07h-1.63v-8.28h2c1.77,0,2.77.26,3.51,1.07a4.19,4.19,0,0,1,1.08,3m2.55,5.37V273.74c0-2.7-.52-4.18-1.81-5.37a7.43,7.43,0,0,0-5.37-1.77h-4.66v24.68h4.66c2.3,0,4-.41,5.4-1.85,1.08-1.08,1.78-2.52,1.78-5.22"/><rect class="cls-6" x="0.64" y="0.64" width="841.61" height="1076.88"/></g><rect class="cls-7" x="0.5" y="0.5" width="841.89" height="1077.17"/><g class="cls-8"><path class="cls-9" d="M653.83,496.73c0-5-.32-9.2-3-11.68-3-2.72-5.84-3-10.4-3h-7.28v-6.4h18.32V458h-23v29.12h11.2c2.4,0,5.12.08,5.12,3.36,0,2.88-2.32,3.28-4.8,3.28H628.39v17.6h12.8c6,0,7.6-1.28,9.76-3.2s2.88-6.4,2.88-11.44"/></g><rect class="cls-2" x="0.5" y="0.5" width="841.89" height="1077.17"/><path class="cls-9" d="M529.78,484H518l3.36-8.4h8.4Zm10.4,27.36v-17.6H535.7v-4.64h4.48V484H535.7V458H522.9l-11,26.32v4.8h17.92v4.64h-6.32v17.6Z"/><g class="cls-8"><path class="cls-9" d="M426.21,498.57c0-6.64,0-10.88-6.32-14.4,4.8-2.72,5-6.24,5-11.6,0-3.92-.08-8.32-2.88-11.44-2.16-2.4-5.12-3.12-8.48-3.12h-12.8v17.6h10.08c2.32,0,5,.4,5,3.36,0,3.2-3,3.2-5.44,3.2h-7.28v5h7.6c3.52,0,6.32.24,6.32,3.44,0,2.4-1.6,3.12-6.16,3.12H400.77v17.6h14.32c4.64,0,7.44-1.76,9.12-4.32a15.86,15.86,0,0,0,2-8.48"/><path class="cls-9" d="M312.65,473.05v-2.24c0-4.48-.56-7.68-3.6-10.32s-5.2-2.48-10.32-2.48H287.45v17.6h11c1.76,0,5,.16,5,3.12a2.62,2.62,0,0,1-1,2.48c-2.56,1.52-8.72-.32-12.48,3.36-3.36,3.36-3.44,7.92-3.44,12.4v14.4h25.92v-17.6h-20c0-2.72.16-5.28,3.12-6.16,4.72-1.36,10.24.64,13.92-3.12,1.92-2,3.12-3.84,3.12-11.44"/></g><rect class="cls-2" x="0.5" y="0.5" width="841.89" height="1077.17"/><polygon class="cls-9" points="185.96 511.37 185.96 458.01 172.04 458.01 172.04 475.93 179.88 475.93 179.88 511.37 185.96 511.37"/><g class="cls-8"><path class="cls-9" d="M655,395.63c0-6.32-2.56-11.2-8.48-13.68-3.36-1.36-6.32-2.08-6.32-4.48,0-1.76,1.2-2.64,3.36-2.64,2.64,0,4.24,1.36,5,4.4h5.84v-6.8c0-7-.8-9.76-3.36-12.56a12.94,12.94,0,0,0-9.6-4c-7.6,0-12.88,6.08-12.88,14.48,0,8.08,4.24,11.44,10.72,14.24,3.2,1.36,4.48,2.4,4.48,4.32s-1.6,2.88-4,2.88c-3.28,0-5.28-1.92-6.32-5.84h-5.6v6.64c0,5,.08,9.92,3.68,13.92a13.07,13.07,0,0,0,9.76,4.32,13.21,13.21,0,0,0,9.68-4,15.85,15.85,0,0,0,4.08-11.2"/></g><rect class="cls-2" x="0.5" y="0.5" width="841.89" height="1077.17"/><polygon class="cls-9" points="534.58 374.27 534.58 356.67 514.74 356.67 514.74 410.03 520.58 410.03 520.58 385.71 533.78 385.71 533.78 380.67 520.58 380.67 520.58 374.27 534.58 374.27"/><polygon class="cls-9" points="419.89 374.27 419.89 356.67 399.17 356.67 399.17 374.27 406.37 374.27 406.37 410.03 412.29 410.03 412.29 374.27 419.89 374.27"/><g class="cls-8"><path class="cls-9" d="M335.37,393.55V356.67h-5.92v26c0,3.92-.88,5.2-2.08,6.64a7.2,7.2,0,0,1-5.6,2.56,7.67,7.67,0,0,1-5.28-2.24c-1.76-1.84-2.4-3.52-2.4-7.92v-25h-5.92v26.24c0,3-.64,4.88-2.32,6.64a7.3,7.3,0,0,1-5.36,2.32,7.41,7.41,0,0,1-5-2c-2.48-2.16-2.64-4.64-2.64-7.2v-26H287v36.88c0,6.24-.16,9.2,3.84,13.36a13.47,13.47,0,0,0,9.44,3.92,13.75,13.75,0,0,0,10.88-5.36c3.44,3.92,6.8,5.36,11.2,5.36a12.47,12.47,0,0,0,8.8-3.6c4-4,4.24-6.48,4.24-13.68"/></g><rect class="cls-2" x="0.5" y="0.5" width="841.89" height="1077.17"/><polygon class="cls-9" points="192.28 374.27 192.28 356.67 171.56 356.67 171.56 374.27 178.76 374.27 178.76 410.03 184.68 410.03 184.68 374.27 192.28 374.27"/><g class="cls-8"><path class="cls-9" d="M107.75,410V373.15c0-7.2-.24-9.68-4.24-13.68a12.47,12.47,0,0,0-8.8-3.6c-4.4,0-7.76,1.44-11.2,5.36a13.75,13.75,0,0,0-10.88-5.36,13.47,13.47,0,0,0-9.44,3.92c-4,4.16-3.84,7.12-3.84,13.36V410h5.84V384c0-2.56.16-5,2.64-7.2a7.41,7.41,0,0,1,5-2,7.3,7.3,0,0,1,5.36,2.32c1.68,1.76,2.32,3.68,2.32,6.64V410h5.92V385c0-4.4.64-6.08,2.4-7.92a7.67,7.67,0,0,1,5.28-2.24,7.2,7.2,0,0,1,5.6,2.56c1.2,1.44,2.08,2.72,2.08,6.64v26Z"/><path class="cls-9" d="M672,580.76v-2.24c0-4.48-.56-7.68-3.6-10.32s-5.2-2.48-10.32-2.48H646.79v17.6h11c1.76,0,5,.16,5,3.12a2.62,2.62,0,0,1-1,2.48c-2.56,1.52-8.72-.32-12.48,3.36-3.36,3.36-3.44,7.92-3.44,12.4v14.4h25.92v-17.6h-20c0-2.72.16-5.28,3.12-6.16,4.72-1.36,10.24.64,13.92-3.12,1.92-2,3.12-3.84,3.12-11.44m-30.8,38.32V565.72H627.27v17.92h7.84v35.44Z"/></g><rect class="cls-2" x="0.5" y="0.5" width="841.89" height="1077.17"/><path class="cls-9" d="M544.74,619.08V565.72H530.82v17.92h7.84v35.44Zm-17.36,0V565.72H513.46v17.92h7.84v35.44Z"/><g class="cls-8"><path class="cls-9" d="M441.17,592.6a8.59,8.59,0,0,1-8.88,8.56c-4.8,0-8.8-3-8.8-8.56a9.11,9.11,0,0,1,8.8-8.88,9,9,0,0,1,8.88,8.88m4.8,9.6V583.32c0-9-.8-11.28-4-14.48a13.81,13.81,0,0,0-19.28,0c-3.52,3.6-4,6.24-4,14.48V602.2c0,6.72.64,10.4,3.68,13.44a14.32,14.32,0,0,0,10,4.24,13.52,13.52,0,0,0,9.6-4.08c3.2-3,4-6.48,4-13.6m-32.4,16.88V565.72H399.65v17.92h7.84v35.44Z"/><path class="cls-9" d="M308.57,590.76h-5.36c-2.56,0-8,.08-8-3.68,0-2.8,2.4-3.6,4.8-3.6,4.56,0,7.6,3,8.56,7.28m4.88,15v-25c0-6.4-.88-8.8-3.92-12a13.76,13.76,0,0,0-9.6-3.92,13.41,13.41,0,0,0-9.52,3.68c-2.88,2.72-3.84,6.64-3.84,12.08,0,6.24,1.2,10.16,3.28,12,2.32,2.08,5.76,2.88,10.24,2.88H308c-2.08,5.36-6,5.92-10.8,5.92h-9.12v17.6h12.08c9.12,0,13.28-3.12,13.28-13.28"/><path class="cls-9" d="M192.12,598c0,2.88-2.88,3.52-5,3.52s-4.88-.8-4.88-3.28c0-2.72,2.64-3.44,4.88-3.44,2.08,0,5,.56,5,3.2m-1.28-11.28c0,1.92-1.84,3-3.6,3-1.6,0-3.68-1-3.68-3s1.68-3.2,3.76-3.2a3.29,3.29,0,0,1,3.52,3.2m10.4,18.08c0-6-1.12-9.6-6.4-13,5.28-2.64,5.12-7.36,5.12-12.88s-.88-8.08-3.28-10.56c-1.92-2-5.68-3.44-9.44-3.44s-7.36,1.2-9.6,3.44c-2.4,2.4-3.28,5.36-3.28,10.64,0,5.52,0,10.16,5.12,12.8-5.36,3.36-6.32,6.8-6.32,12.88,0,5.2.64,8.4,3.76,11.36a14.93,14.93,0,0,0,10.24,3.84,14.6,14.6,0,0,0,10.48-4c3.2-3,3.6-7.52,3.6-11.12"/></g><rect class="cls-2" x="0.5" y="0.5" width="841.89" height="1077.17"/><polygon class="cls-9" points="83.75 583.09 83.75 565.73 57.75 565.73 57.75 583.33 77.59 583.33 60.31 619.09 66.87 619.09 83.75 583.09"/><g class="cls-8"><path class="cls-5" d="M760.43,490c0,2.8-2.4,3.6-4.8,3.6-4.56,0-7.6-3-8.56-7.28h5.36c2.56,0,8-.08,8,3.68m8.64,6.4c0-6.24-1.2-10.16-3.28-12-2.32-2.08-5.76-2.88-10.24-2.88h-7.92c2.08-5.36,6-5.92,10.8-5.92h9.12V458H755.47c-9.12,0-13.28,3.12-13.28,13.28v25c0,6.4.88,8.8,3.92,12a13.76,13.76,0,0,0,9.6,3.92,13.41,13.41,0,0,0,9.52-3.68c2.88-2.72,3.84-6.64,3.84-12.08"/><path class="cls-9" d="M666.63,698.48h-5.36c-2.56,0-8,.08-8-3.68,0-2.8,2.4-3.6,4.8-3.6,4.56,0,7.6,3,8.56,7.28m4.88,15v-25c0-6.4-.88-8.8-3.92-12a13.76,13.76,0,0,0-9.6-3.92,13.41,13.41,0,0,0-9.52,3.68c-2.88,2.72-3.84,6.64-3.84,12.08,0,6.24,1.2,10.16,3.28,12,2.32,2.08,5.76,2.88,10.24,2.88h7.92c-2.08,5.36-6,5.92-10.8,5.92h-9.12v17.6h12.08c9.12,0,13.28-3.12,13.28-13.28M641.19,726.8V673.44H627.27v17.92h7.84V726.8Z"/><path class="cls-9" d="M551.46,705.68c0,2.88-2.88,3.52-5,3.52s-4.88-.8-4.88-3.28c0-2.72,2.64-3.44,4.88-3.44,2.08,0,5,.56,5,3.2m-1.28-11.28c0,1.92-1.84,3-3.6,3-1.6,0-3.68-1-3.68-3s1.68-3.2,3.76-3.2a3.29,3.29,0,0,1,3.52,3.2m10.4,18.08c0-6-1.12-9.6-6.4-13,5.28-2.64,5.12-7.36,5.12-12.88s-.88-8.08-3.28-10.56c-1.92-2-5.68-3.44-9.44-3.44s-7.36,1.2-9.6,3.44c-2.4,2.4-3.28,5.36-3.28,10.64,0,5.52,0,10.16,5.12,12.8-5.36,3.36-6.32,6.8-6.32,12.88,0,5.2.64,8.4,3.76,11.36a14.93,14.93,0,0,0,10.24,3.84,14.6,14.6,0,0,0,10.48-4c3.2-3,3.6-7.52,3.6-11.12m-33.2,14.32V673.44H513.46v17.92h7.84V726.8Z"/></g><rect class="cls-2" x="0.5" y="0.5" width="841.89" height="1077.17"/><path class="cls-9" d="M442.45,690.8V673.44h-26V691h19.84L419,726.8h6.56Zm-28.88,36V673.44H399.65v17.92h7.84V726.8Z"/><g class="cls-8"><path class="cls-9" d="M323.13,705.44c0,2.8-2.4,3.6-4.8,3.6-4.56,0-7.6-3-8.56-7.28h5.36c2.56,0,8-.08,8,3.68m8.64,6.4c0-6.24-1.2-10.16-3.28-12-2.32-2.08-5.76-2.88-10.24-2.88h-7.92c2.08-5.36,6-5.92,10.8-5.92h9.12v-17.6H318.17c-9.12,0-13.28,3.12-13.28,13.28v25c0,6.4.88,8.8,3.92,12a13.76,13.76,0,0,0,9.6,3.92,13.41,13.41,0,0,0,9.52-3.68c2.88-2.72,3.84-6.64,3.84-12.08m-32,15V673.44H285.85v17.92h7.84V726.8Z"/><path class="cls-9" d="M216.52,712.16c0-5-.32-9.2-3-11.68-3-2.72-5.84-3-10.4-3H195.8V691h18.32v-17.6h-23v29.12h11.2c2.4,0,5.12.08,5.12,3.36,0,2.88-2.32,3.28-4.8,3.28H191.08v17.6h12.8c6,0,7.6-1.28,9.76-3.2s2.88-6.4,2.88-11.44M186,726.8V673.44H172v17.92h7.84V726.8Z"/></g><rect class="cls-2" x="0.5" y="0.5" width="841.89" height="1077.17"/><path class="cls-9" d="M91.83,699.44H80.07l3.36-8.4h8.4Zm10.4,27.36V709.2H97.75v-4.64h4.48v-5.12H97.75v-26H85l-11,26.32v4.8H91.83v4.64H85.51v17.6Zm-30.08,0V673.44H58.23v17.92h7.84V726.8Z"/><g class="cls-8"><path class="cls-5" d="M785.55,606.28c0-6.64,0-10.88-6.32-14.4,4.8-2.72,5-6.24,5-11.6,0-3.92-.08-8.32-2.88-11.44-2.16-2.4-5.12-3.12-8.48-3.12h-12.8v17.6h10.08c2.32,0,5,.4,5,3.36,0,3.2-3,3.2-5.44,3.2h-7.28v5h7.6c3.52,0,6.32.24,6.32,3.44,0,2.4-1.6,3.12-6.16,3.12H760.11v17.6h14.32c4.64,0,7.44-1.76,9.12-4.32a15.86,15.86,0,0,0,2-8.48M755,619.08V565.72H741.07v17.92h7.84v35.44Z"/><path class="cls-9" d="M675.51,813.16c0,2.8-2.4,3.6-4.8,3.6-4.56,0-7.6-3-8.56-7.28h5.36c2.56,0,8-.08,8,3.68m8.64,6.4c0-6.24-1.2-10.16-3.28-12-2.32-2.08-5.76-2.88-10.24-2.88h-7.92c2.08-5.36,6-5.92,10.8-5.92h9.12v-17.6H670.55c-9.12,0-13.28,3.12-13.28,13.28v25c0,6.4.88,8.8,3.92,12a13.76,13.76,0,0,0,9.6,3.92,13.41,13.41,0,0,0,9.52-3.68c2.88-2.72,3.84-6.64,3.84-12.08M654.07,796.2V794c0-4.48-.56-7.68-3.6-10.32s-5.2-2.48-10.32-2.48H628.87v17.6h11c1.76,0,5,.16,5,3.12a2.62,2.62,0,0,1-1,2.48c-2.56,1.52-8.72-.32-12.48,3.36-3.36,3.36-3.44,7.92-3.44,12.4v14.4h25.92v-17.6h-20c0-2.72.16-5.28,3.12-6.16,4.72-1.36,10.24.64,13.92-3.12,1.92-2,3.12-3.84,3.12-11.44"/><path class="cls-5" d="M570,819.88c0-5-.32-9.2-3-11.68-3-2.72-5.84-3-10.4-3H549.3v-6.4h18.32v-17.6h-23v29.12h11.2c2.4,0,5.12.08,5.12,3.36,0,2.88-2.32,3.28-4.8,3.28H544.58v17.6h12.8c6,0,7.6-1.28,9.76-3.2s2.88-6.4,2.88-11.44M540.26,796.2V794c0-4.48-.56-7.68-3.6-10.32s-5.2-2.48-10.32-2.48H515.06v17.6h11c1.76,0,5,.16,5,3.12a2.62,2.62,0,0,1-1,2.48c-2.56,1.52-8.72-.32-12.48,3.36-3.36,3.36-3.44,7.92-3.44,12.4v14.4H540.1v-17.6h-20c0-2.72.16-5.28,3.12-6.16,4.72-1.36,10.24.64,13.92-3.12,1.92-2,3.12-3.84,3.12-11.44"/><path class="cls-9" d="M444.69,807.16H432.93l3.36-8.4h8.4Zm10.4,27.36v-17.6h-4.48v-4.64h4.48v-5.12h-4.48v-26h-12.8l-11,26.32v4.8h17.92v4.64h-6.32v17.6ZM426.45,796.2V794c0-4.48-.56-7.68-3.6-10.32s-5.2-2.48-10.32-2.48H401.25v17.6h11c1.76,0,5,.16,5,3.12a2.62,2.62,0,0,1-1,2.48c-2.56,1.52-8.72-.32-12.48,3.36-3.36,3.36-3.44,7.92-3.44,12.4v14.4h25.92v-17.6h-20c0-2.72.16-5.28,3.12-6.16,4.72-1.36,10.24.64,13.92-3.12,1.92-2,3.12-3.84,3.12-11.44"/><path class="cls-9" d="M342.41,821.72c0-6.64,0-10.88-6.32-14.4,4.8-2.72,5-6.24,5-11.6,0-3.92-.08-8.32-2.88-11.44-2.16-2.4-5.12-3.12-8.48-3.12H317v17.6h10.08c2.32,0,5,.4,5,3.36,0,3.2-3,3.2-5.44,3.2h-7.28v5H327c3.52,0,6.32.24,6.32,3.44,0,2.4-1.6,3.12-6.16,3.12H317v17.6h14.32c4.64,0,7.44-1.76,9.12-4.32a15.86,15.86,0,0,0,2-8.48M312.65,796.2V794c0-4.48-.56-7.68-3.6-10.32s-5.2-2.48-10.32-2.48H287.45v17.6h11c1.76,0,5,.16,5,3.12a2.62,2.62,0,0,1-1,2.48c-2.56,1.52-8.72-.32-12.48,3.36-3.36,3.36-3.44,7.92-3.44,12.4v14.4h25.92v-17.6h-20c0-2.72.16-5.28,3.12-6.16,4.72-1.36,10.24.64,13.92-3.12,1.92-2,3.12-3.84,3.12-11.44"/><path class="cls-9" d="M228.28,796.2V794c0-4.48-.56-7.68-3.6-10.32s-5.2-2.48-10.32-2.48H203.08v17.6h11c1.76,0,5,.16,5,3.12a2.62,2.62,0,0,1-1,2.48c-2.56,1.52-8.72-.32-12.48,3.36-3.36,3.36-3.44,7.92-3.44,12.4v14.4h25.92v-17.6h-20c0-2.72.16-5.28,3.12-6.16,4.72-1.36,10.24.64,13.92-3.12,1.92-2,3.12-3.84,3.12-11.44m-29.44,0V794c0-4.48-.56-7.68-3.6-10.32s-5.2-2.48-10.32-2.48H173.64v17.6h11c1.76,0,5,.16,5,3.12a2.62,2.62,0,0,1-1,2.48c-2.56,1.52-8.72-.32-12.48,3.36-3.36,3.36-3.44,7.92-3.44,12.4v14.4h25.92v-17.6h-20c0-2.72.16-5.28,3.12-6.16,4.72-1.36,10.24.64,13.92-3.12,1.92-2,3.12-3.84,3.12-11.44"/><path class="cls-9" d="M101.51,834.52V781.16H87.59v17.92h7.84v35.44ZM85,796.2V794c0-4.48-.56-7.68-3.6-10.32s-5.2-2.48-10.32-2.48H59.83v17.6h11c1.76,0,5,.16,5,3.12a2.62,2.62,0,0,1-1,2.48c-2.56,1.52-8.72-.32-12.48,3.36C59,811.08,59,815.64,59,820.12v14.4H84.87v-17.6h-20c0-2.72.16-5.28,3.12-6.16,4.72-1.36,10.24.64,13.92-3.12,1.92-2,3.12-3.84,3.12-11.44"/><path class="cls-9" d="M107.67,921.11c0,2.88-2.88,3.52-5,3.52s-4.88-.8-4.88-3.28c0-2.72,2.64-3.44,4.88-3.44,2.08,0,5,.56,5,3.2m-1.28-11.28c0,1.92-1.84,3-3.6,3-1.6,0-3.68-1-3.68-3s1.68-3.2,3.76-3.2a3.29,3.29,0,0,1,3.52,3.2m10.4,18.08c0-6-1.12-9.6-6.4-13,5.28-2.64,5.12-7.36,5.12-12.88s-.88-8.08-3.28-10.56c-1.92-2-5.68-3.44-9.44-3.44s-7.36,1.2-9.6,3.44c-2.4,2.4-3.28,5.36-3.28,10.64,0,5.52,0,10.16,5.12,12.8-5.36,3.36-6.32,6.8-6.32,12.88,0,5.2.64,8.4,3.76,11.36A14.93,14.93,0,0,0,102.71,943a14.6,14.6,0,0,0,10.48-4c3.2-3,3.6-7.52,3.6-11.12M85,903.91v-2.24c0-4.48-.56-7.68-3.6-10.32s-5.2-2.48-10.32-2.48H59.83v17.6h11c1.76,0,5,.16,5,3.12a2.62,2.62,0,0,1-1,2.48c-2.56,1.52-8.72-.32-12.48,3.36C59,918.79,59,923.35,59,927.83v14.4H84.87v-17.6h-20c0-2.72.16-5.28,3.12-6.16,4.72-1.36,10.24.64,13.92-3.12,1.92-2,3.12-3.84,3.12-11.44"/><path class="cls-5" d="M793.56,700.32a8.59,8.59,0,0,1-8.88,8.56c-4.8,0-8.8-3-8.8-8.56a9.11,9.11,0,0,1,8.8-8.88,9,9,0,0,1,8.88,8.88m4.8,9.6V691c0-9-.8-11.28-4-14.48a13.81,13.81,0,0,0-19.28,0c-3.52,3.6-4,6.24-4,14.48v18.88c0,6.72.64,10.4,3.68,13.44a14.32,14.32,0,0,0,10,4.24,13.52,13.52,0,0,0,9.6-4.08c3.2-3,4-6.48,4-13.6m-30.49-21.44v-2.24c0-4.48-.56-7.68-3.6-10.32s-5.2-2.48-10.32-2.48H742.67V691h11c1.76,0,5,.16,5,3.12a2.62,2.62,0,0,1-1,2.48c-2.56,1.52-8.72-.32-12.48,3.36-3.36,3.36-3.44,7.92-3.44,12.4v14.4h25.92V709.2h-20c0-2.72.16-5.28,3.12-6.16,4.72-1.36,10.24.64,13.92-3.12,1.92-2,3.12-3.84,3.12-11.44"/><path class="cls-9" d="M338.49,915.75a8.59,8.59,0,0,1-8.88,8.56c-4.8,0-8.8-3-8.8-8.56a9.11,9.11,0,0,1,8.8-8.88,9,9,0,0,1,8.88,8.88m4.8,9.6V906.47c0-9-.8-11.28-4-14.48A13.81,13.81,0,0,0,320,892c-3.52,3.6-4,6.24-4,14.48v18.88c0,6.72.64,10.4,3.68,13.44a14.32,14.32,0,0,0,10,4.24,13.52,13.52,0,0,0,9.6-4.08c3.2-3,4-6.48,4-13.6m-30.88,4.08c0-6.64,0-10.88-6.32-14.4,4.8-2.72,5-6.24,5-11.6,0-3.92-.08-8.32-2.88-11.44-2.16-2.4-5.12-3.12-8.48-3.12H287v17.6h10.08c2.32,0,5,.4,5,3.36,0,3.2-3,3.2-5.44,3.2h-7.28v5H297c3.52,0,6.32.24,6.32,3.44,0,2.4-1.6,3.12-6.16,3.12H287v17.6h14.32c4.64,0,7.44-1.76,9.12-4.32a15.86,15.86,0,0,0,2-8.48"/><path class="cls-9" d="M441,942.23V888.87H427.09v17.92h7.84v35.44Zm-14.8-12.8c0-6.64,0-10.88-6.32-14.4,4.8-2.72,5-6.24,5-11.6,0-3.92-.08-8.32-2.88-11.44-2.16-2.4-5.12-3.12-8.48-3.12h-12.8v17.6h10.08c2.32,0,5,.4,5,3.36,0,3.2-3,3.2-5.44,3.2h-7.28v5h7.6c3.52,0,6.32.24,6.32,3.44,0,2.4-1.6,3.12-6.16,3.12H400.77v17.6h14.32c4.64,0,7.44-1.76,9.12-4.32a15.86,15.86,0,0,0,2-8.48"/><path class="cls-9" d="M224.12,913.91h-5.36c-2.56,0-8,.08-8-3.68,0-2.8,2.4-3.6,4.8-3.6,4.56,0,7.6,3,8.56,7.28M229,929V904c0-6.4-.88-8.8-3.92-12a13.76,13.76,0,0,0-9.6-3.92,13.41,13.41,0,0,0-9.52,3.68c-2.88,2.72-3.84,6.64-3.84,12.08,0,6.24,1.2,10.16,3.28,12,2.32,2.08,5.76,2.88,10.24,2.88h7.92c-2.08,5.36-6,5.92-10.8,5.92h-9.12v17.6h12.08c9.12,0,13.28-3.12,13.28-13.28m-30.16-25v-2.24c0-4.48-.56-7.68-3.6-10.32s-5.2-2.48-10.32-2.48H173.64v17.6h11c1.76,0,5,.16,5,3.12a2.62,2.62,0,0,1-1,2.48c-2.56,1.52-8.72-.32-12.48,3.36-3.36,3.36-3.44,7.92-3.44,12.4v14.4h25.92v-17.6h-20c0-2.72.16-5.28,3.12-6.16,4.72-1.36,10.24.64,13.92-3.12,1.92-2,3.12-3.84,3.12-11.44"/><path class="cls-5" d="M796,798.52V781.16H770v17.6h19.84l-17.28,35.76h6.56Zm-28.08-2.32V794c0-4.48-.56-7.68-3.6-10.32s-5.2-2.48-10.32-2.48H742.67v17.6h11c1.76,0,5,.16,5,3.12a2.62,2.62,0,0,1-1,2.48c-2.56,1.52-8.72-.32-12.48,3.36-3.36,3.36-3.44,7.92-3.44,12.4v14.4h25.92v-17.6h-20c0-2.72.16-5.28,3.12-6.16,4.72-1.36,10.24.64,13.92-3.12,1.92-2,3.12-3.84,3.12-11.44"/><path class="cls-5" d="M768.83,395.63c0-6.32-2.56-11.2-8.48-13.68-3.36-1.36-6.32-2.08-6.32-4.48,0-1.76,1.2-2.64,3.36-2.64,2.64,0,4.24,1.36,5,4.4h5.84v-6.8c0-7-.8-9.76-3.36-12.56a12.94,12.94,0,0,0-9.6-4c-7.6,0-12.88,6.08-12.88,14.48,0,8.08,4.24,11.44,10.72,14.24,3.2,1.36,4.48,2.4,4.48,4.32s-1.6,2.88-4,2.88c-3.28,0-5.28-1.92-6.32-5.84h-5.6v6.64c0,5,.08,9.92,3.68,13.92a13.07,13.07,0,0,0,9.76,4.32,13.21,13.21,0,0,0,9.68-4,15.85,15.85,0,0,0,4.08-11.2"/><path class="cls-5" d="M484.23,138.87v-6.45c0-12.9-1.61-22.12-10.37-29.72-8.52-7.61-15-7.15-29.72-7.15H411.65v50.69h31.8c5.07,0,14.51.46,14.51,9,0,3.68-.92,5.76-3,7.14-7.38,4.38-25.12-.92-35.94,9.68-9.68,9.67-9.91,22.81-9.91,35.71v41.47h74.65V198.54h-57.6c0-7.83.46-15.2,9-17.74,13.6-3.92,29.49,1.84,40.09-9,5.53-5.76,9-11.06,9-32.95M395.52,249.23V95.55H355.43v51.61H378V249.23Z"/></g><rect class="cls-2" x="0.5" y="0.5" width="841.89" height="1077.17"/><line class="cls-10" x1="57.9" y1="592.12" x2="141.52" y2="592.12"/><line class="cls-10" x1="57.9" y1="702.64" x2="141.52" y2="702.64"/><line class="cls-10" x1="57.9" y1="810.36" x2="141.52" y2="810.36"/><line class="cls-10" x1="57.9" y1="918.07" x2="141.52" y2="918.07"/><line class="cls-10" x1="171" y1="918.07" x2="254.62" y2="918.07"/><line class="cls-10" x1="285.52" y1="918.07" x2="369.14" y2="918.07"/><line class="cls-10" x1="398.61" y1="918.07" x2="482.24" y2="918.07"/></g></g></svg>