<svg xmlns="http://www.w3.org/2000/svg" viewBox="0 0 233.1 191.08"><defs><style>.cls-1{fill:#1c1c1b;}</style></defs><g id="레이어_2" data-name="레이어 2"><g id="Layer_1" data-name="Layer 1"><path class="cls-1" d="M191.05,130.83c.81-2.84,4.12-2.42,5.34-4.6.65,1.29,1.4,1.42,2.35.44.48-.49.82-.5,1.33,0s1.44,1.15,1.62,1.68c.55,1.55,2.63,1.51,2.91,3.14.11.61.56.29.85.4.78.29,1.74.34,1.52,1.63-.09.56.45.78,1,.8,1.07,0,1.32.84,1.39,1.65.09,1.22-.35,2.6,1.36,3.13.14,0,.14.55.23.93,1.41-1,2.09-2.57,3.53-3.39a7,7,0,0,1,1.67-.87,2,2,0,0,0,1.61-1.59c.18-.77-.47-1.12-1-1.44-1-.57-1-1.36-.61-2.33.13-.31.26-.81-.08-1.05s-.57.23-.82.46c-1.08,1-1.73-.16-2.15-.68-.53-.68-1-1-1.81-.9-.15,0-.44.08-.45,0-.49-1.17-1.88-.81-2.61-1.58a13.28,13.28,0,0,1-2.29-3,1.78,1.78,0,0,1,1-2.72,2.54,2.54,0,0,0,1.46-1.41c.67.09.49.73.92,1,.11-.17.23-.33.33-.5,1-1.58,2.2-1.43,3.27-.22.75.85,2.07,1.23,2.17,2.7a1.49,1.49,0,0,0,1.27,1.34,1.53,1.53,0,0,1,.71,2.35,1.4,1.4,0,0,0,.15,2c.52.63.71,1.66,1.12,2,1.11.8.58,1.55.39,2.38-.07.31-.16.68.16.87s.58-.14.82-.33c1.86-1.42,3-3.53,4.73-5.05.48-.41.82-1,1.26-1.44.3-.3.5-.58.2-1-2.3-2.85-4.44-5.9-8.15-7.11a10.07,10.07,0,0,1-5.08-3.7c-1.32-1.83-3.15-2.19-5.14-2.35-.41,0-.88.16-1.08-.38a.72.72,0,0,1,.05-.61c.34-.44.77-.22,1.15,0a14,14,0,0,0,2.65.56c2,.63,3.84,1.36,5.16,3.21s3.66,2.48,5.64,3.48a16.48,16.48,0,0,1,6.32,6c.61.93,1.1,1,1.94.59,1.2-.54,2.43-1,3.8-1.61a1.61,1.61,0,0,1-1,1.74c-2.11.94-3.4,2.85-5.12,4.24-2.4,1.93-4.3,4.4-6.75,6.36a31.2,31.2,0,0,0-7.74,9c-.95,1.7-2.78,2.65-4.3,3.74-.92.66-2.43.29-3.68.64a16.89,16.89,0,0,0-5.4,2.61c-1.24.9-1.15,2.18-1.21,3.43-.08,1.86.08,3.81-2,4.85-.22,2.84-3.16,2.59-4.67,4-2.26,2.11-5.18,3.45-7.63,5.45a20.5,20.5,0,0,1-4.78,3.11,12.81,12.81,0,0,0-2.61,1.9A39.14,39.14,0,0,1,170.9,178c-2.08,1.23-4.53,1.79-6.46,3-3.73,2.33-7.91,3.72-11.59,6.11a28.88,28.88,0,0,1-7.73,3.82c-.71.2-1.51.26-1.41-.61.19-1.68-1.24-2.19-2.06-2.94a8.06,8.06,0,0,1-1.9-2.26,7.09,7.09,0,0,0-2.07-2.4c-4.85-3.78-10.34-6.51-15.61-9.6a26.53,26.53,0,0,1-5.46-4.06c-.47-.48-1.06-.82-1.51-1.36a17.4,17.4,0,0,1,4.92,3c1.56,1.59,3.62,2.22,5.4,3.37,3.79,2.43,8,4.14,11.68,6.8a13.7,13.7,0,0,1,3.38,3.28c.21.3.38.73.84.58s.29-.53.35-.83c.49-2.29,1-4.56,1.44-6.86.17-1,.44-1.31,1.31-.67.52.39,1.14.44,1.35-.16s-.55-.48-.91-.66c-2-1-4.32-1.16-6.25-2.36-.23-.14-.5-.21-.73-.34a.82.82,0,0,1-.36-1.22c.28-.39.65.05,1,.19,3.21,1.45,6.46,2.72,10.08,2.48.71-.05,1.28-.15,1.58-.84a1.55,1.55,0,0,0-.45-1.88,86.08,86.08,0,0,0-9.89-7.88c-.13-.1-.33-.25-.42-.21-1.77.83-2.53-1.11-3.87-1.42-.7-.16-.75-.57-.6-1.2.66-2.84-.21-5.35-1.7-7.75-2.07-3.32-5.42-5.37-8-8.17a.8.8,0,0,0-.85-.27,1.29,1.29,0,0,1-1.41-.53c-2-2.46-4.49-4.4-6.65-6.67-.21-.23-.51-.57-.47-.81.32-1.91-1-1.59-2.06-1.53a10.5,10.5,0,0,1-7.72-2.22c-1.36-1.11-1.82-2.56-2.56-3.93-.32-.61-.61-1.23-1-1.82a3.68,3.68,0,0,0-5.5-1.25c-1.53,1.18-3.3,1.18-5.12,1.52,2.5,1.85,4.44,4.41,7.59,5.37a3.53,3.53,0,0,1,1.85,1.46c.87,1.5,2.86,1.92,3.38,3.69,0,.13.29.32.36.29,1.84-.8,1.54,1,2.12,1.72a3.81,3.81,0,0,0,1.92,1.61,4.64,4.64,0,0,1,2.46,1.69c.25.31.48.6.89.61,1.37,0,2.06,1.12,3,1.81,1.6,1.14,3.06,2.45,4.75,3.47a17.25,17.25,0,0,1,5.1,4.15,16.91,16.91,0,0,0,3.52,3.86,30.41,30.41,0,0,0,4.13,2.46c.62.3,1.5.58,1.36,1.37-.24,1.35.5,1.8,1.49,2.24.65.3,1.34.7.88,1.57s-1.13.37-1.7.15c-1.11-.42-2.29-.69-3-1.86a3.08,3.08,0,0,0-2.94-1.52,3.61,3.61,0,0,1-2.64-1c-1.39-1.41-3.39-1.22-5.1-1.81a.75.75,0,0,0-1,.78c.14.82-1,1.8.24,2.43a26.39,26.39,0,0,0,3.38,1.44,2.88,2.88,0,0,1,1.41.69c1.36,1.76,3.71,1.94,5.25,3.4,1,1,3.39.33,3.35,2.69,0,.15.26.06.38,0,.77-.73,1.35.06,1.95.32a.7.7,0,0,1,.35,1.07c-.3.4-.65.18-1.1.07-2.49-.59-4.18-2.75-6.72-3.25-1.19-.23-2-1.36-3-2a42.39,42.39,0,0,0-5.73-2.57,21.44,21.44,0,0,1-3.83-2.55c-1.37-1-3-1.62-4.3-2.64-4-3-7.72-6.3-11.44-9.65a84.89,84.89,0,0,0-9.43-7.82c-2.58-1.73-5.2-3.43-7.78-5.17-1-.71-2.56-.81-3.44-1.64-2.61-2.43-6.13-2.78-9.12-4.3-1.7-.87-3.06-2.21-4.81-3a1.08,1.08,0,0,1-.38-1.52c.41-.59.82-.31,1.37-.13,1.64.55,3.16,1.39,4.74,2.06a63.22,63.22,0,0,0,6.14,2.21,9.71,9.71,0,0,1,3.35,1.77c2.43,2,5.38,3,8.15,4.3.77.36,1.48.8,2.19,1.22,1,.58,1.26.24,1.26-.71,0-2.69-.22-5.17-2.68-7.09a19.77,19.77,0,0,1-4-3.53,2.3,2.3,0,0,1-.74-1.81c.09-.84-1-1.47-1.57-1.44-2.28.12-3.62-1.47-5.11-2.64a61.47,61.47,0,0,0-10.34-6.53c-.75-.38-1.51-.75-2.24-1.19a18,18,0,0,0-7.39-2.27c-2.13-.25-3.65-1.64-5.41-2.6-2.66-1.46-4.81-3.6-7.25-5.37-.36-.26-.95-.56-.47-1.11a.93.93,0,0,1,1.41-.06c1.37,1.1,2.79,2.14,4.16,3.24,3.39,2.7,7,4.79,11.5,5.1,2.28.15,4.29,1.44,6.39,2.4a64.19,64.19,0,0,1,11.58,7.12A5.26,5.26,0,0,0,84.3,120c1.07-.1,2,1.05,3,1.68,1.64,1.08,3.66,1.57,4.83,3.39.78-2-.26-3.16-1.65-4.09-1.08-.72-1.41-2-2.09-3-1.42-2-3.33-3.57-4.75-5.56a5,5,0,0,0-2.37-1.83c-3.33-1.2-5.82-3.61-8.4-5.84a7,7,0,0,0-3.62-1.29,10.22,10.22,0,0,1-4.74-2.11c-3.46-3-7.73-3.3-11.89-4.09-1.35-.26-2.75-.33-4.08-.67a1.61,1.61,0,0,0-2,.8c-.33.55-.62,1.13-1,1.64-1,1.26-1.56,2.84-3.7,2.81-1,0-2,1.13-3.15,1.43-.28.07-.57.52-.84.22-.59-.62-1,.08-1.17.27-.44.38,0,.78.35,1,1.46,1.26,1,3.17,1.56,4.73a13.91,13.91,0,0,1,.41,3,2.09,2.09,0,0,1-.6,2.13c-.72.64-.86,1.63.44,2.26A37.54,37.54,0,0,1,43.15,120c4.45,3.06,7.13,8,11.93,10.62,2.56,1.39,5.07,2.86,7.63,4.25,1.68.91,3.31,1.91,5,2.79.91.46,1.94.23,2.72.8,2.86,2.11,6.19,3.39,9.21,5.25a43.41,43.41,0,0,0,4,2.45,2.91,2.91,0,0,1,.83.46c.55.54,1.56,1.16.91,1.94s-1.11-.4-1.58-.75a40.06,40.06,0,0,0-7.24-4.3,41.48,41.48,0,0,1-5.82-3.17A13.26,13.26,0,0,0,67.54,139c-3.83-1.36-7.21-3.62-10.79-5.46-3.14-1.61-6.21-3.31-8.61-6-1.34-1.5-2.76-2.95-4-4.52a14.49,14.49,0,0,0-2.83-2.52c.07,1.11-.14,1.45-1.17.9-1.52-.81-3.13-1.56-4.55.34a.66.66,0,0,1-1.13-.37,5.83,5.83,0,0,1-.34-2.19,20.18,20.18,0,0,0-.69-7.85,2.07,2.07,0,0,1,.54-2.48c1-1,.6-2.85.32-4.29-.25-1.27-1.69-.89-2.44-1-1.36-.21-2.55-.83-3.84-1.14-.91-.22-1.72-.84-2.74-.47-.31.11-.55-.13-.84-.3-.87-.53-1.6-1.5-2.91-.85-.31.15-1-.39-1.5-.72a.65.65,0,0,1-.19-.86.89.89,0,0,1,.71-.25,17.57,17.57,0,0,1,5,1.05c4.64,1.9,9.46,3,14.43,1.14a3.27,3.27,0,0,0,2.27-2.85c.08-1.36-1-2.36-1.88-3.2a5.79,5.79,0,0,0-1.33-.68c-.71-.27-1.13.08-.95,1,.62.29.52-1.15,1.11-.53.43.46,0,1-.34,1.42a6,6,0,0,1-.64.69c-1.68,1.47-1.68,1.47-2.2-.86-1.14,1.73-2.31.32-3.44.09-.29,0-.6-1-.35-1.59A.9.9,0,0,1,33.5,94c.32.11.62.54.91,0s-.38-.5-.54-.75c-.9-1.42-2.29-.51-3.43-.71a7.59,7.59,0,0,1-1.06,0c-3-.85-5,.38-6.58,2.83-.18.28-.29.83-.77.59s-.34-.64-.11-1.09a8.25,8.25,0,0,1,1.5-2,1.11,1.11,0,0,0,.2-1.32c-.07-.19-.23-.43-.48-.33-.46.2-.86.52-.76,1.09.16,1-.76,1.15-1.18,1.18a3.73,3.73,0,0,0-2.72,1.82c-.32.4-.66,1.46-1.55.47-.18-.2-.45.16-.62.37s-.33.49-.38.47c-2.4-1.1-2.76,2.21-4.67,2.16-.2,0-.41.23-.59.21-1.71-.21-3,.9-4.51,1.31a2.68,2.68,0,0,1-2.33-.19c-.61-.52-.94-.19-1.37,0a.85.85,0,0,0-.47.93c.12.52.68.44,1.05.62.68.32,1.5,0,2.16.48.27.18.62.31.51.7a.75.75,0,0,1-.87.56c-1.24-.45-2.56-.57-3.81-.92A1.61,1.61,0,0,1,0,101a1.49,1.49,0,0,1,.62-1.55,7.72,7.72,0,0,0,2.7-1.57.69.69,0,0,1,.6,0c1.73.88,3.3.18,4.76-.61.91-.49,1.86-.16,2.81-.66a8.34,8.34,0,0,0,3.44-3.37,18.89,18.89,0,0,1,3.54-4.08c.47-.44,1.31-.08,1.61-.35.8-.69-.3-.82-.57-1.21a7.07,7.07,0,0,0-1-1.42,4.69,4.69,0,0,1-1.18-1.49c-1-2-.6-3.79.47-5.59-.4-.2-.62.53-.95.16s0-.57.09-.88c.7-2.37,2.87-3.25,4.57-4.63,2.49-2,5.06-3.93,6.67-6.93.77-1.45,1-3.2,2-4.35,1.55-1.83,3.2-3.76,5.51-4.77a4.58,4.58,0,0,0,2-1.54c.15-.22.34-.51.55-.56a4.84,4.84,0,0,0,2.94-1.75c1-1.38,2.89-.6,4-1.77.25-.28,1-.35,1.1.57s.47,1.08,1.49.85a38.29,38.29,0,0,0,4.7-.84c.53-.19,1,.28,1.42.9a3.54,3.54,0,0,0-2.28,1.17c-1,.81-2.25,1.13-2.94,2.5-.61,1.21-2.26.61-3.16.16s.05-1.74-.06-2.67c0-.22.6-.52,0-.95s-.7.29-.92.49c-.52.48-.59,1.34-1.48,1.55s-1.34.11-.89-1c-1.94,3-5.45,3.74-7.85,6,1,.37,1,.37.45,1.89.92-.62,1.54-1.39,2.39-1.91A4.71,4.71,0,0,1,40,60.21c.57,0,1.44.33,1,1.36a.87.87,0,0,0-.09.4c1.79.84.37,1.74,0,2.58-.17.42-.18.78.26.92.66.23.43-.29.51-.63a2.36,2.36,0,0,1,2.25-1.64,2.85,2.85,0,0,0,2-1.06c.78-.92,1.32-2.06,2.55-2.54.09,0,.25-.11.24-.14-.56-2.65,2.4-2,3.2-3.34.15-.25.77-.15.83.37,0,.29.37,1-.53.66-.45-.16-.34.27-.32.49s.33.42.58.24c1-.69,2.85-.29,2.71-2.29,0-.07.15-.23.2-.22,1.82.41,2-1.73,3.33-2.15,1-.31.38-1.41.14-1.67a7.55,7.55,0,0,0-6.69-2.62,12.16,12.16,0,0,0-3.78,1c-.34.15-.81.57-1.09-.05s.24-.74.58-1a6.91,6.91,0,0,1,4.56-1.25c2.5.07,5.17.05,7.15,2.09.45.46.88.68,1.28,0s.49-1.18,1.39-.94c.32.09.41-.45.51-.73.21-.63-.56-2.16,1.23-1.26.28-1.11,1.34-1.39,2.1-2,1-.81,1.9-1.85,3.38-1.78h.27c-.3-2,1.56-2.18,2.51-2.18s1-.91,1.58-.92a5.24,5.24,0,0,0,2.42-1.09c.34-.18,1.13-.89,1.54.13.87-.93,2.43.41,3.2-1,.18-.33.86-.6,1.14-.28,1,1.13,2.15.27,3.21.41s1.91.23,2.86.34,1.28-.56,1.38-1.36c.53-4.18,2-7.85,5.51-10.47.76-.56,1-1.68,2-2.09,2.41-.91,4.9-1.55,7.37-2.28,1.3-.38,2-.92,1.45-2.38a3.76,3.76,0,0,1-.19-1.42,2.43,2.43,0,0,0-2-2.62,1.72,1.72,0,0,1-1.39-1.34c-.13-.55-.38-1.06-1.24-.82a1.05,1.05,0,0,1-1.23-1c-.23-2.2-2-2.32-3.45-2.27a26.06,26.06,0,0,0-6.26.69,62,62,0,0,1-8.38,1.24c-1,.14-3.33-1.61-3.61-2.59a1.41,1.41,0,0,1,.57-1.7,36,36,0,0,1,7.52-4c3.16-1.13,6.45-1.73,9.59-2.93,5-1.91,10-1,15.06.18,2.92.7,5.88,1.22,8.83,1.79a25,25,0,0,0,3.34.78,19.12,19.12,0,0,0,5.28-.71,40.32,40.32,0,0,1,16,.11A63.81,63.81,0,0,1,155.8,6.54c5.18,2,9.39,5.26,13.4,9.08a36.34,36.34,0,0,1,6.63,9.05A69,69,0,0,1,179.18,32a2.29,2.29,0,0,0,2.42,1.41c2.18-.08,3.64.58,4.63,2.49a5.93,5.93,0,0,0,1,1.65,5.22,5.22,0,0,1,1.76,4.68c-.3,1.84-.23,3.82-2.34,5.21a26.45,26.45,0,0,1-12.5,4.17,17.64,17.64,0,0,1-2.2.29c-.51,0-1.23,2.54-.75,2.91.72.57,1.09,1.58,2.17,1.71,2.56.28,4.65,1.76,6.78,3,3.42,2,7,3.63,10.18,6s6.34,4.61,9.52,6.9A3.63,3.63,0,0,1,201,73.87c1.46,3.24,3.61,6.14,4.72,9.51.67,2,1.46,4,2.12,6,.29.86-.31,2-.32,3a35.43,35.43,0,0,1-2.19,11.8A18.72,18.72,0,0,0,205,106c-1,3.9-1.93,7.81-2.92,11.7a2.71,2.71,0,0,0-.11,1.26,2.56,2.56,0,0,1-1.57,3.35,5,5,0,0,0-1.65,1c-2,2.37-4.75,3.67-7.18,5.44a1.44,1.44,0,0,0-.49,2.14M50.42,79a.75.75,0,0,1-1-.11c-1.34-1.21-3-2.06-4.16-3.46a19.14,19.14,0,0,0-5.59-4.1c-.24-.14-.67-.55-.93.19,1.32.39,2,1.11,1.16,2.52-.24.38-.05.82-.05,1.24,0,2.52,1,4.86,1.22,7.37.13,1.7.14,2.51-1.78,3.07a1.47,1.47,0,0,1-1.76-.34c-.79-.68-.07-.94.28-1.36a.83.83,0,0,0-.19-1.36c-.36,1.94-1.27.49-1.78.21a1.77,1.77,0,0,1-.59-1.7,11.1,11.1,0,0,0-1.67-6.28c-.32-.51-.05-1,.06-1.42-.91,0-2.45,1.71-2.35-1,0-.48-.2-.17-.35-.14-1.72.28-2.31-.54-1.91-2.19a19.58,19.58,0,0,0-5.19,3.48c-.68.59-2.15.71-1.74,1.9.29.86,1.56.59,2.44.65,3.28.2,6.07,2.12,6.82,5,1.34,5.14,5.16,8,9.34,10.52,2,1.24,4.49,1.68,6.63,2.63,3.33,1.48,6.87,1.76,10.29,2.58,3,.73,6,1.06,8.52,3.12a10.16,10.16,0,0,0,5,1.84c3.18.44,6.39.08,9.56,1.16,3.92,1.33,6.81,3.54,8.44,7.32.89,2.06,1.76,4.41,3.59,5.49,2.84,1.67,4.2,4.77,7,6.35.09,0,.21.16.2.22-.24,1.49,1,1.2,1.7,1.31a53.08,53.08,0,0,1,5.68.7c1.91.5,4.2.69,5.44,2.39a19.91,19.91,0,0,1,3,5c2-1.22,3.37-3.19,5.59-4a.31.31,0,0,0,.09-.53,34.54,34.54,0,0,0-3.74-3.9c-1.41-1.13-3.33-1.47-4.73-2.69a1.6,1.6,0,0,0-1.21-.31c-2.4.14-4.51-.46-6-2.53a2.27,2.27,0,0,0-1.16-1c-.43-.13-.84-.37-.69-.89s.54-.61,1-.41c.26.11.53.08.61-.31-.31-.48-.83-.3-1.28-.39a3.45,3.45,0,0,1-2.65-1.58,9.36,9.36,0,0,0-4.54-3.31,3,3,0,0,1-1.88-1.44A3,3,0,0,0,93.62,107c-2.35-1.18-4.18-3-6.28-4.56a17.53,17.53,0,0,0-8.23-3.62,6.47,6.47,0,0,1-3.82-1.46,3.16,3.16,0,0,1,1.53-.18,44.13,44.13,0,0,1,6.65,1.19,15.93,15.93,0,0,1,6,3.66,39.56,39.56,0,0,0,4.11,3.35,34.17,34.17,0,0,0,8,3.81c.53.19,1.22.44,1.21.91-.05,2.36,1.06.9,1.86.47a5.08,5.08,0,0,0,.81,1.76c.8,1,2,1.08,2.91,1.81a30.58,30.58,0,0,0,6.09,3.75c2.33,1.11,4.67,2.16,6.1,4.6a13,13,0,0,0,3.22,3.92c1,.76,2.29,1.57,2.48,2.81a3.6,3.6,0,0,0,1.89,2.5,1.68,1.68,0,0,1,.66.66c.87,2.08,2.88,3.28,4,5.24a34,34,0,0,0,3.84,5.24,13.14,13.14,0,0,0,2.57,2.59,74.21,74.21,0,0,1,6.1,4.64,8.58,8.58,0,0,1,1.2,1.28.57.57,0,0,1-.1.85c-.29.24-.65.27-.84-.05-.89-1.45-2.58-1.76-3.77-2.75-.93-.77-1.68-1.72-2.7-2.45a31.51,31.51,0,0,1-4.87-4.37c-2.28-2.52-4.57-5-6.91-7.47-1-1-2.46-1.48-3.48-2.54s-1.4-1.19-3.33-.63a7.59,7.59,0,0,1,4.17,5.12c.84,4.22,3.73,6.38,7.1,8.09,2.89,1.46,5.54,2.92,5.79,6.6,0,.09,0,.25.08.26,1.77.32,2.11,1.94,2.7,3.2,1.09,2.33,3.55,3.69,4.28,6.25,0,.17.29.3.46.42,2.74,2,6,2.91,9.06,4.26,2,.9,4.43.5,6.26,2,.28.22.76.22.75.71s-.46.53-.74.76c-.73.56-2.09.14-2.35.67-.79,1.56-2.36,2.13-3.45,3.27-.41.43-.21,1.38-1.15,1.35-.37,0-.66.12-.64.53a.74.74,0,0,0,.3.52c.38.24.69,0,1-.24.47-.39.47-1.06,1-1.44,3.23-2.33,7.17-3.26,10.6-5.25a10.58,10.58,0,0,1,4.83-1.69,1.34,1.34,0,0,0,1.16-1.9c-.38-.91-.51-.83-.24-1.44.14-.31.64-.46.42-.93a1.53,1.53,0,0,0-1.2.32c-2,1.66-4.07,3.29-6.07,5a2.28,2.28,0,0,1-1.58.63,1.36,1.36,0,0,1-1.4-1.11c-.13-.63.58-.71,1-.81,2.58-.67,3.83-3.2,6.11-4.29.41-.2.75-1,0-1.11-1.66-.35-2.5-1.67-3.67-2.62a17.87,17.87,0,0,1-4.81-6.68c-.33-.69-.15-1.15.74-1.08.46,0,1.06.37,1.31-.21a4.17,4.17,0,0,1,3.45-2.53c.59-.11,1-.92,1.67-.1s.06,1.36-.51,1.89c-.14.13-.32.31,0,.57a29.44,29.44,0,0,1,3-1.77c1.53-1-.46-2-.06-3.16a2,2,0,0,1,1.52,1.17c.38,1,1,1.3,1.65.17a1.62,1.62,0,0,1,1.37-.92,1.45,1.45,0,0,0,1.29-1.37c-.7.73-2,0-2.5,1.05a1.2,1.2,0,0,1-1.16.71c-.52-.08-.63-.72-.8-1.11s.39-.82.78-1.06a4.44,4.44,0,0,1,2-.93c1,0,2.61-1,3,.59.25,1,.37,1.2,1.28,1.06a.81.81,0,0,1,.88.6c-.1.31-.42.24-.63.34-.61.3-.28.73-.07,1.07s.36.79.65.34c.48-.73,1.13-.87,1.48-.23s-.48,1-1,1.22a7.29,7.29,0,0,0-4.42,3.64c-.17.35-.66.82-.94.78-2.36-.31-2.58,1.48-3.19,3.09.78-.24.88-1,1.48-1.29a14.45,14.45,0,0,0,4.42-3.36,5.93,5.93,0,0,1,3.41-2,26.67,26.67,0,0,0,6.77-2.3c.7-.32,1.39-.58.35-1.37-.58-.43-.09-.84.15-1.23s.93-.45.71-1.11c-2.95.05-3.73,0-3.9-2.36-.45.08-.8.8-1.37.18a.87.87,0,0,1-.11-1.15.9.9,0,0,0-.23-1.28c-.56-.46-.62-.9.2-1.1a1.49,1.49,0,0,0,1.11-1.06c.3-1.5,2.07-1.38,2.62-2.55.49.35,1.44-.65,1.49.15.1,1.48,1.07,2.1,2,2.82.37.28.53,1.17,1.21.64.51-.41.33-1,.09-1.63-.62-1.53-1.95-2.54-2.8-3.89a.85.85,0,0,0-1.29-.12c-1.24,1.29-2.86,2-4.26,3-2.46,1.81-4.49,4.11-7.45,5.37-5.36,2.27-10,5.92-15.11,8.63-1.35.7-2.68,1.44-4,2.2s-2.79,1-4.09,1.74c-.36.21-.89.44-1.19.06s.18-.79.46-1.17a16.37,16.37,0,0,1,3.38-2.87,5.69,5.69,0,0,0-3.51.68c-1.19.87-2,.12-2.53-.74-.71-1.06.27-1.34,1-1.7s1.26-.69.23-1.42c-.77-.54-.77-1.57.07-1.8,1.35-.37,2.24-1.4,3.48-1.9a20.71,20.71,0,0,0,5.54-3c1.29-1.09,2.29-2,3.95-1.22.14-.74-.92-1.52-.08-1.82s.42.93.83,1.31l.35.32c.73-1.33-.49-3.11,1-4.22.88.52-.08,1.65.8,2.13a1.55,1.55,0,0,0,.39-1.33c0-.52.15-1,.7-1.11.82-.13.07.86.61,1,1.32-1,2-2.42,3-3.61.44-.52,1.31-.75.78-1.77-.19-.37.12-.8.73-.62a2.8,2.8,0,0,0,1.73-.12,4.45,4.45,0,0,0,1.35-1.91c.26-.51.21-.64.92-.31,1.7.78,2.09.46,2.81-1.44a2.17,2.17,0,0,1,2.06-1.26c.52,0,1,.28,1.19-.47.79.46,1.33-1.92,2.2-.08.21-1.48.42-1.68,1.49-1.48a.37.37,0,0,0,.42-.36c.23-1.78,1.07-2,2.46-1,.06,0,.25-.09.41-.16-.09-.69-1.14-.58-1.06-1.33,1-.6,1.25,1.3,2.26.65.76-.48,1-1.36,1.53-2,.54.33.41,1.13,1.11,1.13.7-.74-.05-1.32-.29-2,.5,0,.93-.13,1.18.19,1,1.31-.7,2.45-.23,4.14,1.58-2,1.22-4.76,3.17-6.25.85,1.24.17,2.53,0,3.83.35-1.37,2.44-1.09,2.47-2.72-.43-.25-.53.77-1,.29-.29-.31-.06-.71-.06-1.07,0-1.31,1.59-1.4,1.67-2.55.42.15.09.72.82.68-1-1.67-.35-3.29-.11-4.93.21-1.49.47-1.64,1.71-.87.18.12.26.6.55.27s.63-.39.39-.76c-.57-.84.16-1.48.29-2.2a22,22,0,0,1,.81-2.58,10.11,10.11,0,0,0-1.29,1.48c-.89.94-1.58,2.13-2.78,2.71a9.61,9.61,0,0,0-3.86,3c-.5.69-.16,1.62-1.08,2.12-4.84,2.62-9.64,5.34-14.45,8l-1.11.63a.74.74,0,0,0-.28,1.19c.92,1.38-.29,1.58-1.12,2-.31.14-.65-.35-.88,0-1.83,2.6-4.85,3.36-7.42,4.79a70,70,0,0,1-7.34,3.58c-1.16.48-2.09,1.26-3.19,1.76a43.63,43.63,0,0,0-6.42,3.46,25.68,25.68,0,0,1-3.15,1.88c-1.32.64-1.65,1.35-.74,2.42.5.58.41,1.06,0,1.36-1.88,1.25-.9,3.17-1.12,4.79-.06.39.71.95-.14,1.23s-.9-.42-1.07-1c-.55-1.79.35-3.48.27-5.22,0-1.11.63-2.37-.45-3.3-1.77-1.52-1.75-2.05.26-3.11.31-.16.81-.16.81-.65s-.45-.57-.76-.75c-4-2.42-8-4.8-12-7.25-4.61-2.82-9.4-5.37-13.52-9-1.44-1.25-2.74-2.87-4.54-3.47-2.22-.72-3.79-2.35-5.74-3.4-.41-.22-1-.68-.55-1.29s1-.16,1.51.17a25.45,25.45,0,0,0,2.15,1.64c2.9,1.63,6,2.91,8.18,5.65.22.28.63.4.91.64,2,1.66,4.4,2.8,6.53,4.3,5.23,3.71,11,6.61,16.24,10.24a1.85,1.85,0,0,0,1.83.34,14.45,14.45,0,0,0,4.07-2.5,10.35,10.35,0,0,1,2-1.84c3.26-1.95,7.12-3,9.58-6.19a2.11,2.11,0,0,1,1.32-.83,5.12,5.12,0,0,0,1.91-.85c1.18-.56,1.8-1.61,2.76-2.33,2.16-1.62,4.82-2.45,6.8-4.35.15-.13.45-.3.56-.24,1,.52,1.57-.35,2.25-.75.37-.21.67-.52,1.14-.43,1.66.33,2.78-.95,4-1.59a7.41,7.41,0,0,0,3.28-2.48,6.06,6.06,0,0,1,4-2.81,11.75,11.75,0,0,0,3.11-1.55c3.13-1.53,4.26-4.76,5.05-7.86A31.45,31.45,0,0,0,201,85.17c-.15-1.57-.14-3.32-1.34-4.51-1.81-1.8-3.11-4-4.92-5.82-1.4-1.42-3-2.72-4.46-3.94-1.83-1.51-4-2.8-5.89-4.3A35.48,35.48,0,0,0,176,62.05c-.7-.3-1.22-.93-1.88-1.06-2.23-.45-4.51-.69-6.23-2.42a.43.43,0,0,0-.42,0c-.39.64-1.2.72-1.65,1.4s-.8,1.64-1.73,1.75c-1.74.21-2.93,1.58-4.5,2-1.24.33-1.31,1.28-1.48,2.09a4.25,4.25,0,0,0,.34,2c1,2.75-1.29,4.57-1.69,6.89,0,0-.08.08-.13.09-1.74.54-2.16,1.86-2.62,3.51-.59,2.15-1.09,4.34-1.78,6.47-.42,1.3,0,1.77,1.33,1.63A5.85,5.85,0,0,1,158,87.65c1.12.92,1.6,2.49.55,3.31A10.16,10.16,0,0,0,156.44,94a3,3,0,0,1-2.52,1.49c-.94,0-1.31.22-1.62,1.23-.79,2.62-3.6,3.39-5.26,1.42-1.27-1.51-2.36-1.76-4-.69a6,6,0,0,1-2.33,1c-1.13.18-2.35.7-1.51,2.43.29.6-.38,1.21-.89,1.59a6.09,6.09,0,0,1-5.49.81c-1.09-.34-1.44-.44-2,.68a3.83,3.83,0,0,1-3.89,2.28c-1.76-.09-3.58-.08-4.3-2.22-.16-.46-.53-.82-1-.49-.67.5-1.5.32-2.21.71-1.11.6-2,.11-2-1.14,0-2.58.34-5.1,2.84-6.64a1.56,1.56,0,0,0,.86-1.08c.46-3.84.9-7.69,1.27-11.53.06-.57-.12-1.3-1.15-.79a13.21,13.21,0,0,1-3.26,1.16c-1.26.25-1.45.89-1.14,1.94a12.84,12.84,0,0,1,.17,6c-.54,2.87-4.31,6.3-7.49,5.68a16.36,16.36,0,0,0-2.2-.29c-1.47-.07-2.09-1.13-2.67-2.23-.1-.2-.29-.52,0-.71a.62.62,0,0,1,.59,0c1.32.92,2.79.36,4.19.51,2.23.25,4.74-2.46,5.44-4.28a8.77,8.77,0,0,0-.37-7.24c-.19-.4-.74-1.25.12-1.24,2,0,3.69-1.16,5.75-1.21-.2-.26-.31-.53-.46-.57-1.46-.34-2-2.07-3.57-2.28-.43-.06-.89-.47-.73-.91.39-1.11-.16-2.26.19-3.31.89-2.64.81-5.46,1.59-8.13.24-.82.41-1.52,1.4-1.28a1.33,1.33,0,0,1,1,1.87c-1.18,3-1.33,6.32-2.05,9.47a1.08,1.08,0,0,0,.27,1c1.09.76,1.76,1.93,2.93,2.64,4.29,2.61,13.08-.58,13.66-7.46.08-.87-.11-1.12-.91-.87-2.06.63-4.15,1.19-6.16,2a9.08,9.08,0,0,1-4.06.46c-1.19-.09-1.22-.64-.82-1.62a25.63,25.63,0,0,1,3.6-5.7c-2.89-1.41-5.93-2.38-8.18-4.62a3.09,3.09,0,0,0-2.65-.91,52.87,52.87,0,0,1-6.17.11,27.4,27.4,0,0,1-9-1.79c-1.12-.48-2.42-.36-3-1.84-.48-1.17-2-1.54-2.63-2.59a23.19,23.19,0,0,1-2-4.55c-.44-1.35-1-2.8-.45-4.21.65-1.81-1.69-2.27-1.53-3.79-1.26,0-1.44-.89-1.46-1.78,0-.59-.24-.45-.63-.52a1.17,1.17,0,0,0-1.41,1.17c0,2-1.29,1.62-2.33,1.38a9.13,9.13,0,0,0-5.48.61c-3.26,1.35-6.53,2.6-9.26,5.13a88.11,88.11,0,0,1-10.14,8.44c-2.06,1.4-2.62,4-4.65,5.43s-4,3.47-6.39,4.41a31.17,31.17,0,0,0-6.56,3.87l1.65,1C46,72.64,47.06,74.77,49,76a3.81,3.81,0,0,1,1.64,2.61l-.19.36M177,49.71a22.72,22.72,0,0,0,6.58-1.53c3.27-1.33,4.39-4.39,2.77-7.56-.54-1-1.26-2-1.75-3a4.83,4.83,0,0,0-4.52-3c-2.47-.1-2.78-.32-3.63-2.66a18.74,18.74,0,0,0-1.21-3.27c-1-1.71-2.37-3.18-3.19-4.94-2.13-4.53-5.65-7.83-9.36-10.91-6.51-5.39-14.35-7.58-22.54-8.64a33.76,33.76,0,0,0-16.35,2.06c-2.26.84-4.72,1.39-6.56,3.23a49.72,49.72,0,0,0-6.62,8.6c-.7,1.11-1.24,2-.27,3.29.55.72.12,1.65-.26,2.26s-.73-.43-1.13-.42a3.78,3.78,0,0,0-2.16.27,6.2,6.2,0,0,1-2.06.86A20.8,20.8,0,0,0,97,27.21c-4.16,2.77-5.8,6.62-6.23,11.26-.16,1.72.93,3.16,1.54,4.67.37.92,1.45.89,2.35,1.06.55.1,1,.5.43,1.27a4.66,4.66,0,0,0-.51,4.42,24.73,24.73,0,0,0,1.57,3.28c1.58,3.25,4.4,4.86,7.56,5.92,3.68,1.24,7.52,1.22,11.36,1,.3,0,.7.1.83-.28s-.2-.65-.45-.76a6.35,6.35,0,0,1-2.14-1.84c-1.07-1.18-2.72-1.8-3.18-3.6-.59-2.3-2.39-3.21-4.6-3.73a7.84,7.84,0,0,1-4.73-3.09c-1.88-2.66-2-8.17.38-10.86a5,5,0,0,1,5-1.32c.58.13,1.24.5,1.6-.42,1-2.6,3-4.54,4.47-6.88a11.49,11.49,0,0,1,7.27-5.1c.38-.1.92-.47,1.12.11s-.46.56-.8.74c-2.41,1.29-4.81,2.57-6.2,5.1-1.65,3-3.66,5.75-4.38,9.34a20.76,20.76,0,0,0-.07,8.45c1,4.88,4.12,8.46,7.76,11.84,4.49,4.17,9.29,7.23,15.52,7.67,3.36.24,6.82.64,10-.59A56.47,56.47,0,0,1,149.66,63c5.06-1.26,10.16-2,14.38-5.79,2.5-2.23,3.47-5.09,5.15-7.65.06-.08,0-.21,0-.31.23-1.69.75-3.41.35-5.07-.44-1.91.1-4.4-2.62-5.23-.51-.15-.28-.59,0-.9.61-.71.39-1.31-.1-2-.71-1-1.27-2.11-1.94-3.14-3.44-5.26-8.41-7.62-14.59-7.57-1.23,0-1.48-.27-1.07-1.48.48-1.45,1.52-2.9.52-4.55-.23-.38.09-1.15-.56-1.16s-.88.58-1.07,1.07a11.48,11.48,0,0,1-2.57,3.41,3.16,3.16,0,0,1-3.3,1.2,35.68,35.68,0,0,0-4.86-1c-2.38-.43-4.84-.95-7.29-.47s-4.81-.05-7.11.87c-.4.16-1,.21-1.2-.44s.35-.82.78-1a7.57,7.57,0,0,1,1.64-.56c1.51-.25,3-.44,4.56-.61a32.26,32.26,0,0,1,13.07,1c.65.2,1.49.5,2-.15,1.51-2.18,3.81-4,3.46-7.11-.11-1,.87-1.26,1.48-1.72.29-.22.88-.24,1,.14.45,1.5,1.75,2.74,1.92,4.12.2,1.67.73,3.48.25,5.13-.53,1.84.61,1.85,1.72,2a18.23,18.23,0,0,1,5.9,1.73c1.38.71,3,1.12,4,2.39,1.39,1.91,4.37,2.34,4.51,5.5.09,2,2.3,3.39,4.44,3.47a3.72,3.72,0,0,1,2.66.83,15.6,15.6,0,0,1,3,5.06c.55,1.31-.17,2.6.12,3.88A2.32,2.32,0,0,1,177,49.71m-52.71,52.83c.12.56.61.61.77.93.61,1.2,1.5,1.83,2.82,1.23,1-.44,1.38-2.17.85-3.41-.29-.67-.92-1.3-.19-2s1.58.19,2.39,0c.16,0,.45.42.65.66a10.82,10.82,0,0,0,3,2.17,1.7,1.7,0,0,0,2.06-.28c.62-.53.3-1.09.15-1.74-.34-1.54-1.47-1.93-2.78-2.18-.41-.08-.92-.19-.95-.68s.49-.5.84-.58c1.69-.43,3.37-.71,4.8.72a.85.85,0,0,0,1.38,0c.48-.55-.16-.7-.38-1a2.76,2.76,0,0,0-3.16-.94c-1.35.4-2.63-.17-3.95.12-.79.18-.94-.66-.76-1.23.54-1.78,0-3.57.14-5.37.23-2.39,0-4.81.75-7.16a3.47,3.47,0,0,0,.21-2.06c-3.05.68-5.73,3.06-9.21,1.89a4.22,4.22,0,0,1,1.22,3.14c-.18,3-1.54,5.71-1.35,8.74,0,.72-.31,1.55-.3,2.35,0,.58-.11,1.2-.74,1.25-2.45.22-2.5,2.3-3,3.92-.17.52-.35,1.35.33,1.76s.89-.41,1.36-.58a2.18,2.18,0,0,0,1.32-1.32c.45-1.11,1.54-1.2,2.44-1.58a.56.56,0,0,1,.78.33,3,3,0,0,1-1.39,2.93M108.77,16.85c1.07-.63.43-1.63.71-2.38,1-2.73,1.85-5.51,2.94-8.19s1.15-2.62-1.54-3.17c-.52-.1-1-.29-1.55-.39-3.94-.8-7.85-1.39-11.87-.26-2.3.65-4.56,1.44-6.9,2A34.87,34.87,0,0,0,80.49,8.68c-.36.22-.73.52-.43,1.05a1.28,1.28,0,0,0,1.41.82c1.91-.33,3.85-.58,5.75-1a34.31,34.31,0,0,1,9.34-1.15c1.61.09,2.71-.18,3-1.93.07-.41.22-.94.78-.85s.6.6.62,1c.05.93,0,1.86,0,2.94l2.2-2.8c.2-.25.35-.59.74-.5s.44.42.48.75a5.71,5.71,0,0,1,0,2.5c-.61,1.91.36,4.24,1.81,4.87.78.33,1.72-.35,2.3.18s-.5,1.5.25,2.3M152.68,77c-2.31.8-4.19,1.12-6.13.39-.46-.17-.8.25-.83.74-.26,3.93-2,7.76-.82,11.8a1.79,1.79,0,0,1-.43,1.33,9,9,0,0,0-1.18,2.06c-.22.53-.8,1-.11,1.51a1.61,1.61,0,0,0,2.18,0c.62-.44.94-1.62,2-1.12s.39,1.6.52,2.41c0,.31,0,.65,0,1a1.21,1.21,0,0,0,1.13,1.15,1.26,1.26,0,0,0,1.36-.89,2.32,2.32,0,0,0,0-1.56c-.64-2.34-.63-2.34,1.6-1.75a9.5,9.5,0,0,0,.95.11A1.86,1.86,0,0,0,155.08,93c.3-.88-.75-.74-1.28-1s-.76-.49-.59-1,.59-.37,1-.33a7.77,7.77,0,0,0,1.58.16c.82-.08,1.58-.31,1.63-1.39s-.83-1.87-1.47-1.78c-1.29.18-2.79-.26-3.89.94-.43.46-1,1.16-1.77.64s-.5-1.18-.36-1.87A68.46,68.46,0,0,1,152.68,77m-45.5,74.14c-.48-1.36-1.67-2.08-2.8-2.87-.48-.33-1.46-.45-1.06-1.29a1.64,1.64,0,0,1,2.09-1,14.4,14.4,0,0,1,8.48,6.81c.47.84.75,1.06,1.48.27a1.9,1.9,0,0,1,3-.14c.86.88,2.61,1.3,1.8,3.24-.54,1.27-.07,1.76,1.24,1.62a3.52,3.52,0,0,1,1.72.24,17.79,17.79,0,0,1,4.91,2.22c.42.32,1.51.85,1.78.17s-.86-.41-1.27-.76c-.12-.1-.3-.13-.4-.25-1.74-2.05-4.87-2.48-6.07-5.19-.11-.25-.5-.37-.77-.55a53.58,53.58,0,0,1-8.29-6.52,16.91,16.91,0,0,0-4.54-3.23,13.51,13.51,0,0,1-3.17-1.91c-1.78-1.52-4-1.86-6.3-2-1.18-.1-1.5.95-2,1.62s.41.94.67,1.4c.5.88,1.5,1.16,2.18,1.83a49.1,49.1,0,0,0,7.35,6.34m26.75-56.47a7.22,7.22,0,0,1,6.63-.26,3.86,3.86,0,0,1,.31-1.19c1.25-2,1.46-4.12,1.68-6.37.26-2.58,1-5.11,1.51-7.67a7.6,7.6,0,0,0,.1-2.23c-.09-.71-.21-1.22-1.4-1-1.54.22-2.72,1.14-4.15,1.5a.89.89,0,0,0-.33,1.57c1.25,1.22.9,2.81,1.22,4.25a6,6,0,0,1-2.36,6.22,14.14,14.14,0,0,1-2.35,1.33c-.48.26-1.08.58-.89,1.17a8.31,8.31,0,0,1,0,2.73m-.15-4.82A4.72,4.72,0,0,0,137.5,86a11,11,0,0,0-.95-6.66c-.73-1.73-.5-1.93,1.08-2.76,1.33-.69,2.9-1.11,3.83-2.48a3.44,3.44,0,0,0,.31-3.36,2.64,2.64,0,0,0-2.64-1.08,2.27,2.27,0,0,0-2.1,1.68,64.33,64.33,0,0,1-1.93,7.4,33.27,33.27,0,0,0-1.32,11.11m60,56.47c-2.25.37-3.88,2-5.72,3.2-.25.17-.19.47-.1.73.48,1.47.85,3,1.45,4.4.85,2,.91,2,2.35.41.33-.35.75-.6,1.09-.94,1.42-1.47,3.39-2.49,4-4.68.68-2.46.48-2.73-2-2.87a4.77,4.77,0,0,1-1-.25M101.7,42.52a5.41,5.41,0,0,0,3.63,5.59c2,.74,2,.6,2-1.45,0-1.17-1.46-2.34-.08-3.53-1.18-.18-.64-1.12-.55-1.62.23-1.35-.17-2.72.28-4,.19-.58.06-1.16-.58-1.27-1-.18-2-.3-2.84.79a11.05,11.05,0,0,0-1.85,5.53M139.43,67a9.06,9.06,0,0,1-2.63.11c-.85-.08-1.71,0-2.57,0s-1.71.4-2.67.07c-2.3-.79-3.94-.06-4.83,2.13a17.74,17.74,0,0,0-.83,1.7c-.13.47-.93.84-.45,1.38s1.09.07,1.49-.12c2.9-1.36,6.39-1.22,8.92-3.52a1.09,1.09,0,0,1,.76-.16A2.68,2.68,0,0,0,139.43,67m7.92-.75c-.42.15-1-.61-1.31.27a1.22,1.22,0,0,0,.34,1.46c1.19.89,1.61,2.33,2.52,3.42a5.9,5.9,0,0,0,3.19,1.9c.57.15.86-.14.75-.67-.44-2.11-.42-4.36-1.83-6.19-.26-.33-.61-1-.92-.64-.85.87-1.83.31-2.74.45M172.07,48c1.25-.33,2-1.71,3.21-2,.83-.23.86-.66.81-1.27A12.66,12.66,0,0,0,173.78,39a2,2,0,0,0-2.5-.43c-.7.28-.14,1-.14,1.53a9.44,9.44,0,0,0,.85,2.84c.54,1.63,0,3.32.08,5.07m7.56,104.46a19.55,19.55,0,0,0-8,9.49,6.65,6.65,0,0,0,4-2.52c.65-1,1.3-1.93,2-2.85.17-.23.29-.43.62-.41.52,0,.11,1.18.89.77.53-.28-.21-.87.15-1.3.18-.22.33-.39.64-.32s.51-.13.45-.44-.24-.5-.33-.49c-2.75.28-.63-1-.47-1.93M152.91,75a3.78,3.78,0,0,0-1.71-.55c-2.63-.21-4.37-1.77-5.79-3.8-.28-.4-.53-.87-1.13-.62-.35.14-.78.46-.67.81.48,1.54,1,3.06,1.63,4.56.09.21.54.37.83.4,2.27.21,4.47-.43,6.72-.52,0,0,0-.09.12-.28m-34.52,80.69a2,2,0,0,0-1.65-2.33c-1-.15-1.29,1.07-1.51,1.9-.59,2.29,1.11,3.46,2.48,4.77.24.23.47.62.94.38s.33-.62.27-1c-.22-1.35.24-2.8-.53-3.74m63.44-3.3c1.74,0,1.78,1.72,3,2,0,0,0,.49-.12.55-1.52.74-.41,1.79-.49,2.77,2.65-1,2.9-1.61,1.83-4l-.9-2.05a1.07,1.07,0,0,0-1.8-.52c-.39.26-.74.59-1.49,1.19m-68.13,3.26c-.57-.9-.45-2.91-1.39-3-1.55-.16-1.68-1.33-2.42-2-.26-.25-.39-.74-.84-.42s-.08.72.1,1c.78,1.2,1.57,2.38,2.43,3.51.42.55.26,1.42,1,1.73.23.09.5.27.71.23.41-.09.31-.5.37-1m41.7-84.82a38,38,0,0,1,.88-4.36c.17-.56.39-1.47-.39-1.65a2.23,2.23,0,0,0-2.25.45c-.14.15-.35.32-.16.53,1.27,1.34,1,3.26,1.92,5"/><path class="cls-1" d="M56.34,119.38c1.4.5,1.58-.23,1.47-1.33-.07-.68,0-1.38,0-2.08,0-1,.28-1.86-1.47-1.9-1.4,0-2.34-1.57-3.06-2.87-.37-.69,0-1,.69-1a2.77,2.77,0,0,1,2.81,1.37c.31.59.57.86,1.35.6,3.42-1.11,6.17.42,7.15,4,.12.43.38.22.54.35a7.13,7.13,0,0,0,3.25,1c1.36.25,2.36,1.11,3.57,1.56,1.48.55,1.39,2.27,2.21,3.34.19.24,0,.52-.25.68s-.77.24-.87,0c-.43-1.21-1.91-1.3-2.41-2.39a.61.61,0,0,0-.12-.16c-.69,1.62-1.58.13-2.37.14s-1.81,0-2.71,0c-.58,0-1,0-.51.93.32.67-.29,1.8-.52,2.72-.12.51-.32,1-.51,1.61a2.38,2.38,0,0,1-1.72-1.36c-.29-.55-.25-1.94-1.65-1.22-.23.12-.47-.36-.47-.7s-.1-.69.21-.88a.92.92,0,0,1,.91,0c.46.24.73,1.26,1.37.64a2.53,2.53,0,0,0,.77-2.75,3.73,3.73,0,0,1,.32-4c-.71-.09-.45,1-1.07.66-.39-.22-.28-.67-.28-1,0-.64.08-1.12-.94-1.12-.73,0-1.33-.77-1.76-1.58a10,10,0,0,1-.75,2.4c-.21.31-.33,1-.15,1.2,1.14,1,.46,2.47,1,3.6a2.34,2.34,0,0,1,.14,1.56c-.14.65,0,1.52-.9,1.68s-1.21-.57-1.48-1.19c-.39-.88-1.54-1.09-1.76-2.41"/><path class="cls-1" d="M86.68,148.27c.66.52,1.41,1,2.06,1.66,1.63,1.55,3.81,2.23,5.55,3.64a39,39,0,0,0,3.35,2.58c2,1.26,3.09,3.48,5.35,4.27.47.16,1,.4.73,1-.39.79-1,.22-1.35,0-1.46-1-2.83-2.2-4.4-3.1-2.52-1.44-4.36-3.76-6.76-5.35a40.34,40.34,0,0,1-4.33-2.9c-.37-.32-.79-.58-.77-1.14,0-.33,0-.67.57-.64"/><path class="cls-1" d="M81.51,67.28a4.62,4.62,0,0,0-4.38,5.33c.26,2.46,2.38,3.33,3.56,4.94s3.45,2.72,5.32,3.92c2.53,1.63,5.14.92,7.71.37,1-.21.11-.94-.14-1.17-1-.86-1.78-1.86-2.74-2.69-1.27-1.1-1.23-2.61-1.67-4a11.9,11.9,0,0,1-.62-3c-.08-1.77-1.75-1.38-2.61-2.06a9.12,9.12,0,0,0-2-1,.82.82,0,0,1-.52-.9.75.75,0,0,1,1-.49,5,5,0,0,1,2.16.94c.7.8,1.59-.3,2.19.46.13.16.1-.15.14-.23.72-1.67,1.19-3.48,2.94-4.52.38-.24.5-.89.79-1.32.17-.25.19-.88.75-.45.36.27.59.57.24,1.07s-.56,1.15-.93,1.67a10.55,10.55,0,0,0-1.53,9.66c.9,2.61,2.23,5.3,5,7.06,1.63,1,3.14.3,4.56,1,.31.15.38-.3.52-.5.94-1.41,2.54-1.6,4-2.12.31-.11.66-.21.78.23s-.15.56-.5.66c-1.52.45-2.32,1.82-3.49,2.72a.54.54,0,0,0-.13.73c.93,1.67,1,3.68,2.2,5.27.38.52.86,1.33,0,1.78s-1.29-.23-1.6-.9c-.16-.34-.22-.8-.72-.67a1.12,1.12,0,0,0-.73,1,5.64,5.64,0,0,0,2,5c.27.19.55.34.8.54a1.18,1.18,0,0,1,.3,1.59c-.42.62-.83,0-1.21-.22a6.42,6.42,0,0,1-3.38-4.21c-.2-.68-.44-1.26-1.31-1.4a3,3,0,0,1-1.66-1.19c-1.69-1.92-3.88-3.34-5.44-5.4a2.65,2.65,0,0,0-1.93-1c-4.79-.51-8.33-3.21-11.36-6.67a10.39,10.39,0,0,1-2.67-4.2A7.52,7.52,0,0,1,76,68.09c.64-1.54,2.57-2,4.31-2,.63,0,1.23-.47,1.87-.05.33.21.92.17.81.79s-.62.45-1,.46a1.9,1.9,0,0,1-.4,0M99.18,89.49c.28-1.1.21-2.41,1.13-3.45a.9.9,0,0,0-.46-1.45c-1.69-.33-3.14-1.66-5-1.25-.55.12-1.39-.15-1.59.43s.45,1.29.88,1.56C96,86.49,97,88.69,99.18,89.49"/><path class="cls-1" d="M184,95.25c-.08,1.7-.14,3.11-1.75,3.81-1.45.64-3.07.45-4.51,1.13-.42.2-.62-.31-.61-.71.06-1.76,2.36-4.31,4.12-4.55.39-.05.5-.32.68-.57a3.28,3.28,0,0,1,2.23-1.12,2.22,2.22,0,0,1,2,.69c.66.66-.25,1-.51,1.4a1.06,1.06,0,0,0-.1.3c-.09.46,0,1.14-.61,1.17-.79,0-.37-.86-1-1.55"/><path class="cls-1" d="M98.23,102.07c-.59.49-1.06.25-1.53-.21a26.07,26.07,0,0,0-6.12-4.09c-2.32-1.24-4.35-3-6.69-4.26-1-.52-2-1.06-2.89-1.65-.38-.24-.86-.58-.48-1.16s.83-.25,1.27-.06a1,1,0,0,1,.39.27c.68,1.13,2,1.1,3,1.7s2.36,1.19,3.49,1.87c1.31.79,2.55,1.69,3.84,2.53,1.87,1.21,3.9,2.19,5.49,3.81a1.29,1.29,0,0,1,.48.93l-.25.32"/><path class="cls-1" d="M61.63,92.74c.09.56-1.1.84-2,.7-2.8-.42-4.91-2.21-7.27-3.51-1.37-.75-2.94-.54-4.46-.62a11.18,11.18,0,0,1-5.28-1.13c-.78-.45-1.57-.88-2.38-1.29-.44-.22-.54-.55-.24-.88s.53-.09.84.07A16.07,16.07,0,0,0,48.08,88c3,0,5.76.17,8.09,2.51a5.83,5.83,0,0,0,4.55,1.77c.32,0,.78-.07.91.44"/><path class="cls-1" d="M50.6,78.59c.26-.26.36-.86.95-.44a51.76,51.76,0,0,0,6.54,3.36c2,1,4.45.76,6,2.55.34.38.68,0,1-.09a1.06,1.06,0,0,1,1.08.54.65.65,0,0,1-.11.74c-.33.39-.68.13-1,0a79,79,0,0,1-7.79-2.59,20.06,20.06,0,0,1-6.89-3.77l.18-.35"/><path class="cls-1" d="M176.47,85.25c-1.44-.37-2-.34-1.38-2.15.65-2.06,1.78-2.27,3.27-2.63a2.15,2.15,0,0,1,2.2.62c.61.73-.48,1-.7,1.53-.69,1.64-2.34,1.88-3.39,2.63"/><path class="cls-1" d="M98.48,101.75c1.23-.67,2,.36,2.81.89,2.92,1.87,5.8,3.8,8.71,5.69.38.25.76.47.46,1a.73.73,0,0,1-1.11.25c-2.26-1.62-4.84-2.74-6.92-4.62a3.21,3.21,0,0,0-1.85-1.1,2.6,2.6,0,0,1-2.35-1.77l.25-.32"/><path class="cls-1" d="M80.1,90.23c.1,1.11-.41,1-.9.89a18.47,18.47,0,0,1-2.39-1.21c-1.52-.56-2.81-1.67-4.54-1.8a1,1,0,0,1-.84-1.29c.27-.6.78-.21,1.31-.08,2.33.58,4.3,2,6.56,2.7a1.26,1.26,0,0,1,.8.79"/><path class="cls-1" d="M51,84.55c-.17.71-.77,1.28-1.35,1-1.89-1.08-4.29-1.16-5.8-3-.17-.2-.48-.35-.32-.63a.69.69,0,0,1,.86-.22c2.07.73,4.12,1.5,6.17,2.26a.6.6,0,0,1,.44.61"/><path class="cls-1" d="M115.8,13.52a7.69,7.69,0,0,0,3.7-.3c1.88-.77,1-1.43.55-2.32-.22-.45-.94-.89-.38-1.35s1.18.09,1.48.55c.87,1.36,2.12,1.27,3.36.91.79-.23,1.88-.6.71-1.77A.9.9,0,0,1,125.06,8c.33-.35.81-.2,1.21,0,.58.25,1.25.38,1.59,1a1.16,1.16,0,0,0,1.74.53c.59-.29,1.39-.36,1-1.41A.91.91,0,0,1,131.08,7c.54-.21.94.13,1.19.57A25.76,25.76,0,0,1,134,10.75a2,2,0,0,0,2.4,1.52,4.57,4.57,0,0,1,2.68.22c.34.16.53.36.5.73s-.38.44-.71.45l-.64,0c-3.1.18-3.09.18-2,3.19.2.55.9,1.26,0,1.66a1.44,1.44,0,0,1-2.11-.8c-.22-.54-.71-1-.73-1.58,0-1.33-1-1-1.68-1-.51,0-1.18.31-.51,1a.91.91,0,0,1,0,1.41c-.49.47-1,0-1.45-.23s-.52-.57-.84-.73a1.9,1.9,0,0,0-2,.33c-.43.29-.18.64,0,1,.25.51.8,1.15.29,1.58s-1.32,0-1.93-.32a2.59,2.59,0,0,1-.79-.76c-.47-.58-1-.16-1.48-.1s-.8.34-.62.9,0,.79-.61.63a3.53,3.53,0,0,0-3.11.65,1.65,1.65,0,0,1-1.05.26,1.11,1.11,0,0,1-.78-.47c-.19-.34.19-.56.43-.74s.81-.52,1.15-.84c.71-.69,0-1.16-.34-1.63s-.78-.33-1.15.12-1,1.1-1.46,1.69a.89.89,0,0,1-1.5,0,.74.74,0,0,1,.38-1.27c1.36-.32,1.19-2.13,2.56-2.45.3-.07.1-.61-.25-.7s-.58-.42-1-1m7.77,2.89c-.62-1-1.12-2-2.08-2.16a1.64,1.64,0,0,0-1.93,1.31,1.69,1.69,0,0,0,1.53,1.74c.92.11,1.47-.83,2.48-.89m4-2.33c-.38-.83-.56-2-1.62-1.93-.64,0-1.69-.06-2,1-.1.38,1.36,2.42,1.6,2.3.7-.37,1.72-.3,2-1.33"/><path class="cls-1" d="M150.62,44.43a4.82,4.82,0,0,0-2.21.16c-3,.45-5.83.28-8.38-1.63a5.26,5.26,0,0,0-1.87-.59c-1.2-.29-.55.82-.87,1.21a9.87,9.87,0,0,1-5.8,3.39c-.47.1-.82-.34-.56-.85s.68-1.13,1.26-1.17c2.79-.22,3-2.58,3.3-4.42.17-.94.77-2.07.12-3.22a6.88,6.88,0,0,0-3.05-2.73c-.56-.28-1.62-.3-1.43-1.13s1.13-.64,1.82-.64c2.3,0,5.33,2.28,5.21,4.47-.17,3.09,2.26,3.34,4,4.44a11.4,11.4,0,0,0,1.21.39c.67.3,1-.06,1-.6,0-4.53,3.25-6.13,6.78-7.52a6.63,6.63,0,0,1,4.37-.26,4.76,4.76,0,0,1,3.32,4,4.9,4.9,0,0,0,.48,2.31,1.24,1.24,0,0,1-.62,2.06,27.92,27.92,0,0,1-8,2.29m-4.5-1.34c2.76-.14,5.21.34,7.55-.73,1.13-.51,2.39-1,2.42-2.45,0-1.83-.25-3.62-1.88-4.85a1.46,1.46,0,0,0-1.33-.26,7.23,7.23,0,0,0-5.64,6.82c0,.75-.45.92-1.12,1.47"/><path class="cls-1" d="M149.08,42.8c-.8,0-1.23-.46-.9-1.08.76-1.43,1.56-2.88,3.21-3.54.65-.25,1.1-.06,1.21.56.18,1.09-2.16,4.32-3.52,4.06"/></g></g></svg>